<?xml version="1.0" encoding="UTF-8"?>
<svg version="1.1" xmlns="http://www.w3.org/2000/svg" width="512" height="512">
<path d="M0 0 C5.82485779 3.51996782 10.54466582 8.98962934 12.5625 15.5 C13.36748575 23.33457059 13.68829143 31.12123733 8.5625 37.5 C4.79441918 41.45339627 1.92912621 44.15834345 -3.4375 45.5 C-3.4375 56.39 -3.4375 67.28 -3.4375 78.5 C1.5125 78.83 6.4625 79.16 11.5625 79.5 C14.9919705 80.13293904 18.21823984 80.78764727 21.5625 81.6875 C22.40643311 81.90817139 23.25036621 82.12884277 24.11987305 82.35620117 C46.89887629 88.52475094 68.93419382 100.54112971 85.5625 117.5 C85.93930908 118.17498535 86.31611816 118.8499707 86.7043457 119.54541016 C88.40281235 122.34809006 89.76171701 123.74327511 92.5625 125.5 C99.27668479 126.9548198 106.37019816 126.33607281 113.1875 126.125 C115.08850285 126.10199877 116.98955057 126.08243389 118.890625 126.06640625 C120.71098589 126.03956058 122.53130555 126.00971524 124.3515625 125.9765625 C125.20062164 125.96178864 126.04968079 125.94701477 126.92446899 125.93179321 C134.63029791 125.68387069 138.66361794 123.86763041 144.08203125 118.2734375 C144.83718269 117.51191879 144.83718269 117.51191879 145.60758972 116.73501587 C147.20394577 115.12195177 148.78951559 113.49874394 150.375 111.875 C151.45958934 110.77535366 152.54486882 109.67638755 153.63085938 108.578125 C156.28279392 105.89322582 158.92510846 103.19918312 161.5625 100.5 C161.20808838 99.66742676 160.85367676 98.83485352 160.48852539 97.97705078 C157.76506383 91.30631484 155.72373745 85.60483221 156 78.375 C156.01732178 77.61002197 156.03464355 76.84504395 156.05249023 76.05688477 C156.54120001 64.28681336 161.16238433 55.60975125 169.62890625 47.52734375 C179.81203146 38.94728656 190.58038938 37.38128951 203.49169922 38.27685547 C214.25756924 39.43695983 222.5625775 45.6647682 229.375 53.75 C236.83776374 64.11109291 237.90054566 75.08281916 236.5625 87.5 C234.39911945 98.26569846 227.78335629 106.65174924 218.98046875 112.9921875 C209.28091488 119.04069767 198.73736515 119.85295224 187.5625 118.5 C184.41005576 117.6828301 181.59246528 116.71068858 178.62890625 115.375 C176.47608106 114.30503805 176.47608106 114.30503805 173.5625 114.5 C171.11894027 116.59144092 171.11894027 116.59144092 168.5546875 119.35546875 C167.55741593 120.38098023 166.56001576 121.40636667 165.5625 122.43164062 C164.00596361 124.04986306 162.45294751 125.67130273 160.90332031 127.29614258 C151.23714627 137.39533886 144.71431488 142.91780229 130.40985107 143.26530457 C127.93979877 143.29534524 125.47021269 143.3045479 123 143.3125 C121.30660885 143.33567494 119.61324627 143.36104645 117.91992188 143.38867188 C113.80067456 143.45113736 109.68217837 143.48377704 105.5625 143.5 C106.10229492 144.49217529 106.64208984 145.48435059 107.19824219 146.5065918 C107.91881481 147.84152887 108.63918137 149.17657718 109.359375 150.51171875 C109.71370605 151.16168823 110.06803711 151.81165771 110.43310547 152.48132324 C115.75157454 162.36939648 119.35227996 172.70452405 121.875 183.625 C122.03452148 184.30409424 122.19404297 184.98318848 122.35839844 185.68286133 C123.85231462 192.68992185 124.03809414 199.158318 124.5625 206.5 C146.0125 206.5 167.4625 206.5 189.5625 206.5 C190.2225 204.85 190.8825 203.2 191.5625 201.5 C195.11745619 196.37861193 199.19847868 191.65811695 205.5625 190.5 C213.45633952 189.75583136 221.12374134 189.32882694 227.5625 194.5 C232.60771222 199.30448639 236.16812995 203.66177055 236.8984375 210.76953125 C236.99233204 219.28576573 236.6802288 225.17595494 230.69140625 231.46484375 C223.78755269 237.8466668 218.36082071 238.98042252 209.0078125 238.8046875 C201.09040117 238.10450827 196.95677507 234.385806 191.91015625 228.5 C190.5625 226.5 190.5625 226.5 189.5625 222.5 C168.1125 222.5 146.6625 222.5 124.5625 222.5 C124.5625 225.47 124.5625 228.44 124.5625 231.5 C124.24512299 234.62838727 123.63287826 237.670678 123 240.75 C122.74198608 242.02351318 122.74198608 242.02351318 122.47875977 243.32275391 C119.89032397 255.3918187 116.20243816 267.50049169 110.5625 278.5 C111.30894775 278.49111755 112.05539551 278.48223511 112.82446289 278.4730835 C119.88566532 278.39267782 126.94670711 278.33190447 134.00823975 278.29275131 C137.63801731 278.27194485 141.26741415 278.24375646 144.89697266 278.19824219 C148.40481263 278.15453341 151.9122882 278.13081079 155.42037964 278.12049103 C157.39894644 278.10958746 159.37736821 278.07840165 161.35571289 278.04681396 C169.70987811 278.04474624 175.34456535 278.80379594 181.8046875 284.46484375 C182.34351563 285.11582031 182.88234375 285.76679688 183.4375 286.4375 C183.99179687 287.08589844 184.54609375 287.73429687 185.1171875 288.40234375 C188.58500316 293.43536269 188.84354012 298.08076107 188.78955078 304.05395508 C188.78984283 304.90324585 188.79013489 305.75253662 188.79043579 306.62756348 C188.78904634 309.42499125 188.77350323 312.2221502 188.7578125 315.01953125 C188.754081 316.96294509 188.75123468 318.90636082 188.74923706 320.84977722 C188.74161137 325.95764384 188.72197197 331.06539621 188.6998291 336.17321777 C188.67934778 341.38824925 188.67023045 346.60329924 188.66015625 351.81835938 C188.63872512 362.04562304 188.60460197 372.27280201 188.5625 382.5 C189.23488708 382.62384567 189.90727417 382.74769135 190.60003662 382.87528992 C191.48967102 383.04494766 192.37930542 383.21460541 193.29589844 383.3894043 C194.61385406 383.63704781 194.61385406 383.63704781 195.95843506 383.88969421 C199.8798475 384.80874222 203.26273843 386.44992748 206.8125 388.3125 C207.48023438 388.64314453 208.14796875 388.97378906 208.8359375 389.31445312 C222.13612953 396.10798258 230.53502205 408.17408213 235.171875 422.1328125 C236.7617108 427.58742856 237.0625464 432.71752925 237 438.375 C236.98864014 439.82289917 236.98864014 439.82289917 236.97705078 441.30004883 C236.80792298 448.6299489 235.79675742 454.85180419 232.5625 461.5 C232.10359375 462.46164062 231.6446875 463.42328125 231.171875 464.4140625 C223.44241674 479.50684678 211.26806702 488.03970206 195.40234375 493.609375 C183.31834347 496.41217466 168.76530104 495.95001132 157.5625 490.5 C156.60085938 490.04109375 155.63921875 489.5821875 154.6484375 489.109375 C139.56669803 481.38557311 130.98956058 469.20237876 125.45703125 453.328125 C122.03711421 438.69267215 123.64048792 422.51983294 131.3125 409.5390625 C132.97409248 407.09680803 134.70023224 404.79138091 136.5625 402.5 C137.18898438 401.66726563 137.81546875 400.83453125 138.4609375 399.9765625 C145.77060467 391.36256811 156.76637159 385.57540916 167.74975586 383.43701172 C168.65084579 383.26048065 169.55193573 383.08394958 170.48033142 382.90206909 C171.16744705 382.76938629 171.85456268 382.63670349 172.5625 382.5 C172.4780982 372.155524 172.3832153 361.81120222 172.27497292 351.4669466 C172.22503978 346.663622 172.17870941 341.86031908 172.140625 337.05688477 C172.10373461 332.42079244 172.05736432 327.78488276 172.00443649 323.14894676 C171.98591252 321.38077182 171.97079718 319.61255776 171.95915604 317.84432411 C171.94225941 315.36648505 171.91321628 312.88906245 171.88134766 310.41137695 C171.87918747 309.68129425 171.87702728 308.95121155 171.87480164 308.19900513 C171.80978012 304.23832354 171.64199861 300.92762546 169.5625 297.5 C165.83428614 295.33156763 162.37078914 295.23145904 158.11987305 295.18115234 C156.83892258 295.16128265 155.55797211 295.14141296 154.23820496 295.12094116 C152.85021131 295.10906656 151.46221583 295.0974036 150.07421875 295.0859375 C148.64645785 295.06721595 147.2187079 295.0476418 145.79096985 295.0272522 C142.04444854 294.97602899 138.29789139 294.93635106 134.5512085 294.89910889 C130.72350268 294.85900747 126.89594465 294.80794321 123.06835938 294.7578125 C115.56650783 294.66116951 108.06458448 294.57672787 100.5625 294.5 C100.11680664 295.41543579 100.11680664 295.41543579 99.66210938 296.34936523 C93.99976071 307.42388331 84.58398539 317.43983322 74.9375 325.125 C65.80365743 332.40373209 60.32956613 339.82827241 55.5625 350.5 C56.3359375 350.45359375 57.109375 350.4071875 57.90625 350.359375 C64.72718582 350.12300594 70.03409449 350.23183316 75.5625 354.5 C80.6134774 359.29092708 84.1690748 363.6709664 84.8984375 370.76953125 C85.01670734 381.49660592 85.01670734 381.49660592 82.4375 386.0625 C80.19446724 389.2680776 80.19446724 389.2680776 81.1875 392.1875 C81.64125 392.950625 82.095 393.71375 82.5625 394.5 C85.69610202 401.04369834 85.70846237 408.95966808 83.9453125 415.9453125 C81.26531444 421.99309574 76.09802987 426.64689469 70.296875 429.6875 C66.75783352 430.7391009 63.401974 430.71586251 59.75 430.625 C59.05712891 430.61597656 58.36425781 430.60695313 57.65039062 430.59765625 C55.95427605 430.57426157 54.25834129 430.53839641 52.5625 430.5 C52.60890625 431.21542969 52.6553125 431.93085938 52.703125 432.66796875 C53.27713065 448.51462479 46.82614252 463.1488837 36.3125 474.875 C25.49957674 486.38870925 10.18562254 494.23153107 -5.70703125 494.80078125 C-25.85611774 495.0166836 -42.48871302 490.91057747 -57.42602539 476.77929688 C-68.07752894 466.11133042 -75.50935726 451.1456796 -75.5625 436 C-75.53073089 434.16646845 -75.49248946 432.3329821 -75.4375 430.5 C-76.4275 430.54640625 -77.4175 430.5928125 -78.4375 430.640625 C-92.79983644 431.1208247 -92.79983644 431.1208247 -98.4375 426.5 C-103.47980096 421.6887208 -107.04265587 417.34284349 -107.7734375 410.23046875 C-107.89170734 399.50339408 -107.89170734 399.50339408 -105.3125 394.9375 C-103.06946724 391.7319224 -103.06946724 391.7319224 -104.0625 388.8125 C-104.51625 388.049375 -104.97 387.28625 -105.4375 386.5 C-108.57110202 379.95630166 -108.58346237 372.04033192 -106.8203125 365.0546875 C-104.13703733 358.99950902 -98.94273641 354.26422495 -93.078125 351.3125 C-89.97037494 350.35626921 -87.37020729 350.30367676 -84.125 350.375 C-83.05636719 350.39304687 -81.98773438 350.41109375 -80.88671875 350.4296875 C-79.67435547 350.46449219 -79.67435547 350.46449219 -78.4375 350.5 C-84.87021631 337.49385171 -92.81085856 328.10764026 -104.375 319.25 C-108.3204942 316.02186838 -111.32561679 311.89571716 -114.484375 307.92578125 C-116.36610787 305.49984814 -116.36610787 305.49984814 -118.4375 303.5 C-121.39768677 303.19213396 -121.39768677 303.19213396 -124.91918945 303.24121094 C-125.58444641 303.2377063 -126.24970337 303.23420166 -126.93511963 303.23059082 C-129.14044551 303.22176907 -131.34545194 303.22762603 -133.55078125 303.234375 C-135.08294232 303.23302799 -136.61510297 303.23108716 -138.14726257 303.22857666 C-141.36278339 303.22562441 -144.57819324 303.22992444 -147.79370117 303.23925781 C-151.90956419 303.25062368 -156.02516556 303.24411185 -160.14101887 303.23211288 C-163.30750993 303.22487235 -166.4739394 303.22719277 -169.64043236 303.23236847 C-171.15744241 303.2337004 -172.6744581 303.23207326 -174.19146156 303.22740936 C-176.31699964 303.22231123 -178.44211985 303.23010135 -180.56762695 303.24121094 C-181.77626907 303.24280212 -182.98491119 303.24439331 -184.23017883 303.24603271 C-187.41808468 303.49846262 -189.61338088 304.02236132 -192.4375 305.5 C-194.43392306 309.01665944 -194.72338762 312.24349749 -194.8515625 316.23828125 C-194.89023438 317.30498047 -194.92890625 318.37167969 -194.96875 319.47070312 C-194.9996875 320.57349609 -195.030625 321.67628906 -195.0625 322.8125 C-195.10117188 323.93462891 -195.13984375 325.05675781 -195.1796875 326.21289062 C-195.27372011 328.97509852 -195.35937341 331.737304 -195.4375 334.5 C-194.81133789 334.60014404 -194.18517578 334.70028809 -193.54003906 334.8034668 C-187.55371728 335.86389771 -182.55890105 337.49410676 -177.1875 340.3125 C-176.51976562 340.64314453 -175.85203125 340.97378906 -175.1640625 341.31445312 C-161.86387047 348.10798258 -153.46497795 360.17408213 -148.828125 374.1328125 C-147.2382892 379.58742856 -146.9374536 384.71752925 -147 390.375 C-147.00757324 391.34026611 -147.01514648 392.30553223 -147.02294922 393.30004883 C-147.19207702 400.6299489 -148.20324258 406.85180419 -151.4375 413.5 C-151.89640625 414.46164062 -152.3553125 415.42328125 -152.828125 416.4140625 C-160.55758326 431.50684678 -172.73193298 440.03970206 -188.59765625 445.609375 C-200.68165653 448.41217466 -215.23469896 447.95001132 -226.4375 442.5 C-227.39914063 442.04109375 -228.36078125 441.5821875 -229.3515625 441.109375 C-244.43330197 433.38557311 -253.01043942 421.20237876 -258.54296875 405.328125 C-261.96288579 390.69267215 -260.35951208 374.51983294 -252.6875 361.5390625 C-251.02590752 359.09680803 -249.29976776 356.79138091 -247.4375 354.5 C-246.81101563 353.66726563 -246.18453125 352.83453125 -245.5390625 351.9765625 C-236.79331937 341.67024066 -224.34087936 336.84492133 -211.4375 334.5 C-211.45844727 333.6028125 -211.47939453 332.705625 -211.50097656 331.78125 C-211.56957616 328.41900141 -211.61950294 325.05750765 -211.65722656 321.69482422 C-211.67721295 320.24581083 -211.70441197 318.79687675 -211.73925781 317.34814453 C-211.95970504 307.94023473 -212.01603743 300.7248121 -205.47265625 293.2578125 C-204.82167969 292.71898437 -204.17070312 292.18015625 -203.5 291.625 C-202.85160156 291.07070313 -202.20320313 290.51640625 -201.53515625 289.9453125 C-197.07431708 286.87173616 -193.27178021 286.25209988 -187.90307617 286.27294922 C-185.95161934 286.27317581 -185.95161934 286.27317581 -183.96073914 286.27340698 C-182.55064743 286.28361876 -181.14055731 286.29405073 -179.73046875 286.3046875 C-178.28030086 286.30842041 -176.83013043 286.31126607 -175.37995911 286.31326294 C-171.57411666 286.32087751 -167.7684283 286.34050711 -163.96264648 286.3626709 C-160.07472823 286.38317637 -156.18678494 286.39227469 -152.29882812 286.40234375 C-144.67831538 286.42375522 -137.05792933 286.45786466 -129.4375 286.5 C-129.69246246 285.97483795 -129.94742493 285.4496759 -130.21011353 284.90859985 C-131.38760977 282.4754678 -132.55710119 280.03856603 -133.7265625 277.6015625 C-134.1275415 276.77599854 -134.52852051 275.95043457 -134.94165039 275.09985352 C-142.85995609 258.54486372 -147.4375 240.86274513 -147.4375 222.5 C-168.8875 222.5 -190.3375 222.5 -212.4375 222.5 C-213.0975 224.15 -213.7575 225.8 -214.4375 227.5 C-217.91038383 232.81992715 -222.22876787 236.83975359 -228.4375 238.5 C-235.40388754 239.28941541 -242.51759918 239.633182 -248.69140625 235.90234375 C-253.57342264 231.98144021 -257.56426295 227.54384031 -259.4375 221.5 C-260.24264105 213.66391792 -260.56210392 205.88077423 -255.4375 199.5 C-250.63301361 194.45478778 -246.27572945 190.89437005 -239.16796875 190.1640625 C-230.61864273 190.06980312 -224.74440155 190.39498446 -218.4375 196.40625 C-215.25784459 199.84232923 -213.59568909 201.86724364 -212.4375 206.5 C-190.9875 206.5 -169.5375 206.5 -147.4375 206.5 C-147.1075 201.88 -146.7775 197.26 -146.4375 192.5 C-145.81880243 188.98978609 -145.16770845 185.63072325 -144.3125 182.1875 C-144.09585693 181.3001416 -143.87921387 180.4127832 -143.65600586 179.49853516 C-140.87169731 168.62776987 -136.70654171 158.57096145 -131.31616211 148.74658203 C-130.77680527 147.76223175 -130.23744843 146.77788147 -129.68174744 145.76370239 C-129.27114578 145.0166806 -128.86054413 144.26965881 -128.4375 143.5 C-129.6511322 143.49453156 -129.6511322 143.49453156 -130.88928223 143.48895264 C-138.53945143 143.45097954 -146.18913866 143.39402215 -153.83899689 143.31609726 C-157.77126152 143.27670143 -161.70330487 143.24447465 -165.63574219 143.22900391 C-169.43561155 143.21378471 -173.23487225 143.17924763 -177.0344696 143.13169098 C-178.47916859 143.11693103 -179.9239545 143.10896209 -181.36872864 143.10811615 C-190.48230566 143.09741985 -197.52370798 142.80598847 -204.6796875 136.53515625 C-205.48792969 135.55869141 -205.48792969 135.55869141 -206.3125 134.5625 C-206.86679688 133.91410156 -207.42109375 133.26570312 -207.9921875 132.59765625 C-211.20117237 127.94029172 -211.7133142 123.8295249 -211.8515625 118.23046875 C-211.87092865 117.54946609 -211.8902948 116.86846344 -211.9102478 116.16682434 C-211.96968132 114.00717407 -212.016282 111.84746943 -212.0625 109.6875 C-212.10071328 108.21677456 -212.13976694 106.74607071 -212.1796875 105.27539062 C-212.27535183 101.68379211 -212.35951575 98.09203087 -212.4375 94.5 C-213.17645508 94.24822998 -213.91541016 93.99645996 -214.67675781 93.73706055 C-215.65483398 93.39457275 -216.63291016 93.05208496 -217.640625 92.69921875 C-218.60645508 92.36494873 -219.57228516 92.03067871 -220.56738281 91.6862793 C-230.31269611 87.65833805 -237.70071644 79.09329429 -241.875 69.5625 C-245.17267538 59.41251215 -245.05254795 46.6925308 -240.7578125 36.88671875 C-235.16075877 26.76896778 -226.85537109 18.77711424 -215.72265625 15.16015625 C-203.74374065 12.7529782 -191.52628428 13.45594389 -181.01953125 20.0078125 C-172.21664371 26.34825076 -165.60088055 34.73430154 -163.4375 45.5 C-162.09945434 57.91718084 -163.16223626 68.88890709 -170.625 79.25 C-175.90479719 85.51625611 -181.44637073 90.00382088 -189.234375 92.69921875 C-190.21245117 93.04170654 -191.19052734 93.38419434 -192.19824219 93.73706055 C-193.3066748 94.11471558 -193.3066748 94.11471558 -194.4375 94.5 C-194.49571935 98.39577024 -194.5311703 102.29142802 -194.5625 106.1875 C-194.58763672 107.84168945 -194.58763672 107.84168945 -194.61328125 109.52929688 C-194.61972656 110.59599609 -194.62617188 111.66269531 -194.6328125 112.76171875 C-194.64328613 113.74100342 -194.65375977 114.72028809 -194.66455078 115.72924805 C-194.41339959 118.7941028 -193.9710968 120.82700355 -192.4375 123.5 C-188.43028122 125.59103193 -184.8785194 125.79297652 -180.40332031 125.88574219 C-179.71478973 125.90209717 -179.02625916 125.91845215 -178.31686401 125.93530273 C-176.0498185 125.98471735 -173.78302083 126.01796459 -171.515625 126.046875 C-170.34783634 126.06284603 -170.34783634 126.06284603 -169.15645599 126.07913971 C-165.03533377 126.13247615 -160.91433002 126.1712648 -156.79296875 126.20019531 C-153.39538703 126.22686214 -150.00021195 126.28253967 -146.60351562 126.36425781 C-142.48659989 126.46327364 -138.37186235 126.51247573 -134.25380707 126.52664948 C-132.69241237 126.54001282 -131.13106053 126.57029959 -129.57035065 126.61843109 C-120.52182324 127.00193047 -120.52182324 127.00193047 -112.51776123 123.29518127 C-110.26704443 120.79968073 -108.34765325 118.2593998 -106.4375 115.5 C-89.55555161 99.80724963 -69.50033218 88.78181523 -47.4375 82.5 C-46.28378906 82.17128906 -45.13007813 81.84257813 -43.94140625 81.50390625 C-35.57951071 79.36481669 -28.32284327 79.09235622 -19.4375 78.5 C-19.4375 67.61 -19.4375 56.72 -19.4375 45.5 C-21.0875 44.84 -22.7375 44.18 -24.4375 43.5 C-29.55888807 39.94504381 -34.27938305 35.86402132 -35.4375 29.5 C-36.18166864 21.60616048 -36.60867306 13.93875866 -31.4375 7.5 C-23.13577971 -1.21767287 -11.72105717 -5.1940371 0 0 Z M-16.8125 17.125 C-18.92456506 20.21186432 -19.04945145 21.8282913 -18.4375 25.5 C-16.9375 28 -16.9375 28 -14.4375 29.5 C-10.7657913 30.11195145 -9.14936432 29.98706506 -6.0625 27.875 C-3.95043494 24.78813568 -3.82554855 23.1717087 -4.4375 19.5 C-5.9375 17 -5.9375 17 -8.4375 15.5 C-12.1092087 14.88804855 -13.72563568 15.01293494 -16.8125 17.125 Z M-223.2109375 41.65625 C-227.14304427 47.56693278 -227.13613277 53.62115424 -226.4375 60.5 C-224.66407567 67.14472914 -219.9908353 71.67367959 -214.4375 75.5 C-208.43862996 78.44062257 -201.5546647 78.59883788 -195.125 76.8828125 C-188.99617139 74.17750925 -184.19797208 69.09136305 -181.265625 63.109375 C-179.35944143 57.10309848 -179.37311313 49.99708442 -181.9375 44.1875 C-185.41787258 38.25476525 -190.8731193 33.56836256 -197.4375 31.5 C-209.16144962 30.07391138 -215.74492361 32.81382015 -223.2109375 41.65625 Z M176.7890625 65.65625 C172.85695573 71.56693278 172.86386723 77.62115424 173.5625 84.5 C175.33592433 91.14472914 180.0091647 95.67367959 185.5625 99.5 C191.56137004 102.44062257 198.4453353 102.59883788 204.875 100.8828125 C211.00382861 98.17750925 215.80202792 93.09136305 218.734375 87.109375 C220.64055857 81.10309848 220.62688687 73.99708442 218.0625 68.1875 C214.58212742 62.25476525 209.1268807 57.56836256 202.5625 55.5 C190.83855038 54.07391138 184.25507639 56.81382015 176.7890625 65.65625 Z M-96.4375 130.5 C-97.40042969 131.37011719 -97.40042969 131.37011719 -98.3828125 132.2578125 C-108.81092025 141.90987502 -115.68448327 154.69479079 -121.4375 167.5 C-121.92089844 168.56734375 -122.40429688 169.6346875 -122.90234375 170.734375 C-134.51853285 198.55673674 -133.87079315 231.7686305 -122.92236328 259.70214844 C-113.5155873 282.47887361 -99.9798077 300.02265447 -81.73950195 316.51757812 C-75.47483585 322.22051502 -70.44852019 327.77320058 -66.75 335.4375 C-65.90888672 337.15259766 -65.90888672 337.15259766 -65.05078125 338.90234375 C-63.34842994 342.6986284 -61.89834979 346.60440055 -60.4375 350.5 C-52.1875 350.5 -43.9375 350.5 -35.4375 350.5 C-35.391539 344.75232193 -35.35172807 339.0052839 -35.32763672 333.25756836 C-35.31759147 331.30311927 -35.30395283 329.34868516 -35.28662109 327.39428711 C-35.26230797 324.58183083 -35.25100203 321.76957361 -35.2421875 318.95703125 C-35.23186493 318.08601273 -35.22154236 317.2149942 -35.21090698 316.31758118 C-35.21010843 311.98036934 -35.23721437 308.37728325 -37.4375 304.5 C-40.99188691 302.49718025 -44.48607011 302.16780683 -48.5 301.75 C-58.33411995 300.34353109 -67.84492795 295.9267331 -74.3515625 288.23828125 C-82.3176339 276.94391974 -83.46814452 267.10553486 -82.4375 253.5 C-82.18226563 252.57316406 -81.92703125 251.64632812 -81.6640625 250.69140625 C-81.58929688 249.96824219 -81.51453125 249.24507812 -81.4375 248.5 C-83.12346131 246.41976233 -83.12346131 246.41976233 -85.5625 244.6875 C-89.98349373 241.02164495 -92.9087536 237.64674268 -95.4375 232.5 C-95.75589844 231.88253906 -96.07429688 231.26507813 -96.40234375 230.62890625 C-100.25989158 221.50944986 -99.91842444 208.73831002 -96.875 199.4375 C-93.48761937 191.6453276 -88.16163756 185.58410401 -81.4375 180.5 C-81.59605469 179.85289062 -81.75460938 179.20578125 -81.91796875 178.5390625 C-83.95946653 166.59706796 -83.34537397 154.55828644 -76.96484375 144.08203125 C-71.7316064 136.69611471 -64.05722005 130.44711781 -55.2421875 127.9375 C-43.40306644 126.09072903 -31.03592459 126.21874204 -20.9140625 133.25390625 C-19.3850349 134.43902635 -17.87974187 135.65598733 -16.41015625 136.9140625 C-14.49537017 138.45347468 -12.66920249 139.49149015 -10.4375 140.5 C-9.97601563 140.05269531 -9.51453125 139.60539062 -9.0390625 139.14453125 C1.39049943 129.47760527 11.11066025 126.99110273 25 127.2265625 C34.77342362 127.63178245 42.64925687 131.66502 49.5625 138.5 C59.29128468 149.93226838 60.66587782 160.934313 59.5625 175.5 C59.30726563 176.42683594 59.05203125 177.35367188 58.7890625 178.30859375 C58.71429688 179.03175781 58.63953125 179.75492187 58.5625 180.5 C60.24846131 182.58023767 60.24846131 182.58023767 62.6875 184.3125 C67.10849373 187.97835505 70.0337536 191.35325732 72.5625 196.5 C72.88089844 197.11746094 73.19929687 197.73492187 73.52734375 198.37109375 C77.38489158 207.49055014 77.04342444 220.26168998 74 229.5625 C71.11749101 236.19328923 66.90561178 241.9070809 61.0625 246.1875 C60.2375 246.950625 59.4125 247.71375 58.5625 248.5 C58.87008543 251.2647655 58.87008543 251.2647655 59.5625 254.5 C60.34198186 267.43173192 59.18543482 276.72274733 51.5625 287.5 C51.2325 288.49 50.9025 289.48 50.5625 290.5 C48.76171875 291.50390625 48.76171875 291.50390625 46.5625 292.5 C45.15678059 293.46492021 43.76141325 294.44504024 42.375 295.4375 C34.76708956 300.52181088 27.29023512 301.86676937 18.28515625 302.97265625 C15.42652788 303.26280778 15.42652788 303.26280778 13.5625 305.5 C12.64103536 308.27583968 12.43998886 310.8063921 12.44897461 313.71777344 C12.44905014 314.53832214 12.44912567 315.35887085 12.44920349 316.20428467 C12.45436478 317.08046448 12.45952606 317.95664429 12.46484375 318.859375 C12.4662587 319.76375305 12.46767365 320.6681311 12.46913147 321.59991455 C12.47472089 324.48331027 12.48727147 327.36662782 12.5 330.25 C12.50501637 332.20703013 12.50957904 334.16406147 12.51367188 336.12109375 C12.5238352 340.91411671 12.54341272 345.70697104 12.5625 350.5 C20.8125 350.5 29.0625 350.5 37.5625 350.5 C38.408125 348.251875 39.25375 346.00375 40.125 343.6875 C45.89341595 329.1015355 54.85411417 318.99467782 66.6875 308.9375 C85.83522428 292.44039045 97.78458065 269.53330364 104.5625 245.5 C104.90410156 244.29859375 105.24570312 243.0971875 105.59765625 241.859375 C110.14976502 222.29589358 109.47572061 199.69870937 103.5625 180.5 C103.35351074 179.81341309 103.14452148 179.12682617 102.92919922 178.41943359 C93.28579069 147.88558501 71.61568788 123.08248279 43.50488281 108.14648438 C-3.97363851 83.9562587 -58.83079611 93.80774484 -96.4375 130.5 Z M-63.2109375 153.65625 C-67.14304427 159.56693278 -67.13613277 165.62115424 -66.4375 172.5 C-64.63929337 179.23758434 -59.95167891 183.5107844 -54.4375 187.5 C-50.24851199 189.79396962 -48.6186135 189.5 -43.4375 189.5 C-43.4375 195.11 -43.4375 200.72 -43.4375 206.5 C-54.38871495 205.21847485 -63.08546414 203.01683227 -71.4375 195.5 C-76.30982834 197.30456605 -79.35153773 201.24512001 -81.5625 205.8359375 C-83.53466067 211.84046241 -83.50864293 218.98760983 -80.9375 224.8125 C-75.98124144 233.11898212 -68.55991697 237.0274257 -59.4375 239.5 C-58.7775 239.5 -58.1175 239.5 -57.4375 239.5 C-57.75203125 240.056875 -58.0665625 240.61375 -58.390625 241.1875 C-59.28947434 242.79026749 -60.17812526 244.39878075 -61.05859375 246.01171875 C-61.89078007 247.51342608 -62.7504757 249.00096111 -63.66015625 250.45703125 C-67.06778382 256.25854773 -67.30101672 261.89454219 -66.4375 268.5 C-64.30112126 276.05949402 -58.99200882 280.4688521 -52.375 284.25 C-48.84358627 285.64019455 -45.25261817 285.93492751 -41.5 286.375 C-33.87280531 287.35575511 -29.26530434 289.44894795 -24.0625 295.0625 C-21.44193129 298.99335307 -20.19244275 301.68036907 -20.11865234 306.45214844 C-20.09878265 307.43286316 -20.07891296 308.41357788 -20.05844116 309.42401123 C-20.04688995 310.47518127 -20.03533875 311.52635132 -20.0234375 312.609375 C-20.00407135 313.69132141 -19.9847052 314.77326782 -19.9647522 315.88800049 C-19.90499763 319.34192026 -19.85858703 322.79587344 -19.8125 326.25 C-19.77431647 328.59246241 -19.73526452 330.93491084 -19.6953125 333.27734375 C-19.59929927 339.01811553 -19.51525256 344.75895303 -19.4375 350.5 C-14.1575 350.5 -8.8775 350.5 -3.4375 350.5 C-3.43339111 349.05753906 -3.42928223 347.61507812 -3.42504883 346.12890625 C-3.40320189 340.75371044 -3.34885333 335.37924082 -3.28491211 330.00439453 C-3.26178077 327.68252547 -3.24734788 325.36055221 -3.24194336 323.03857422 C-3.23261866 319.69172594 -3.19154804 316.3465057 -3.14453125 313 C-3.1484639 311.9694751 -3.15239655 310.9389502 -3.15644836 309.87719727 C-3.02206638 303.17001684 -1.78008198 298.69355746 2.5625 293.5 C7.30206071 289.10723642 11.15967243 287.43314352 17.5534668 286.51293945 C27.24674267 285.1165127 33.76131113 283.31912484 40 275.375 C44.23402562 269.44505676 44.18519963 263.59336098 43.5625 256.5 C41.78217678 249.76425482 37.06783944 245.48282072 31.5625 241.5 C27.37351199 239.20603038 25.7436135 239.5 20.5625 239.5 C20.5625 233.89 20.5625 228.28 20.5625 222.5 C31.51371495 223.78152515 40.21046414 225.98316773 48.5625 233.5 C53.43482834 231.69543395 56.47653773 227.75487999 58.6875 223.1640625 C60.65966067 217.15953759 60.63364293 210.01239017 58.0625 204.1875 C53.10624144 195.88101788 45.68491697 191.9725743 36.5625 189.5 C35.9025 189.5 35.2425 189.5 34.5625 189.5 C34.87703125 188.943125 35.1915625 188.38625 35.515625 187.8125 C36.41447434 186.20973251 37.30312526 184.60121925 38.18359375 182.98828125 C39.01578007 181.48657392 39.8754757 179.99903889 40.78515625 178.54296875 C44.19483354 172.7379626 44.41872342 167.10897455 43.5625 160.5 C41.75660375 153.85204444 37.13236418 149.33770903 31.5625 145.5 C25.79052154 142.64267954 19.86206809 142.76784681 13.5625 143.5 C6.71581553 145.98164615 1.57120785 151.756499 -1.8125 158.0625 C-2.68587535 161.04927174 -2.68587535 161.04927174 -2.4375 166.5 C-8.3775 166.5 -14.3175 166.5 -20.4375 166.5 C-20.52 165.13875 -20.6025 163.7775 -20.6875 162.375 C-21.51293059 155.24729527 -25.31712884 151.3208308 -30.55859375 146.796875 C-42.42101943 138.60908846 -54.86096943 143.76690234 -63.2109375 153.65625 Z M-240.8125 209.125 C-242.92456506 212.21186432 -243.04945145 213.8282913 -242.4375 217.5 C-240.9375 220 -240.9375 220 -238.4375 221.5 C-234.7657913 222.11195145 -233.14936432 221.98706506 -230.0625 219.875 C-227.95043494 216.78813568 -227.82554855 215.1717087 -228.4375 211.5 C-229.9375 209 -229.9375 209 -232.4375 207.5 C-236.1092087 206.88804855 -237.72563568 207.01293494 -240.8125 209.125 Z M207.1875 209.125 C205.07543494 212.21186432 204.95054855 213.8282913 205.5625 217.5 C207.0625 220 207.0625 220 209.5625 221.5 C213.2342087 222.11195145 214.85063568 221.98706506 217.9375 219.875 C220.04956506 216.78813568 220.17445145 215.1717087 219.5625 211.5 C218.0625 209 218.0625 209 215.5625 207.5 C211.8907913 206.88804855 210.27436432 207.01293494 207.1875 209.125 Z M-235.25 366.75 C-242.34428065 376.56650462 -243.59106528 386.71460626 -242.4375 398.5 C-240.17992091 409.28027414 -233.69293852 417.61109065 -224.86328125 423.9921875 C-214.88734101 430.19301348 -203.6654757 431.22308289 -192.28515625 428.83984375 C-181.10040895 425.21617387 -172.63494948 417.31122995 -167.1171875 407.04296875 C-163.06606149 397.59506299 -162.8373102 386.32439536 -166 376.5625 C-170.57658394 365.88913815 -178.82663815 357.63908394 -189.5 353.0625 C-206.91689389 347.41971951 -223.64359789 352.97509814 -235.25 366.75 Z M-89.4375 369.5 C-90.85791821 372.34083641 -90.75202272 374.35477278 -90.4375 377.5 C-88.20543569 380.34780619 -86.88757001 381.34997666 -83.4375 382.5 C-81.51032833 382.59736875 -79.57993645 382.63498226 -77.65031433 382.64044189 C-76.44322311 382.64615204 -75.2361319 382.65186218 -73.99246216 382.65774536 C-72.6527711 382.6589907 -71.31307992 382.6601158 -69.97338867 382.66113281 C-68.56397878 382.66576162 -67.15457014 382.67078637 -65.74516296 382.67617798 C-61.91448188 382.68929823 -58.08381832 382.69574624 -54.25311828 382.70018864 C-51.85950659 382.70312005 -49.4658997 382.707225 -47.07229042 382.71169281 C-39.58223467 382.72536695 -32.09218986 382.73503393 -24.60212249 382.7388947 C-15.95783624 382.74337496 -7.31370816 382.76092165 1.33052999 382.7898953 C8.01343478 382.8115169 14.69629509 382.82159924 21.37923449 382.82293582 C25.37008569 382.82398354 29.3607882 382.82988413 33.35160255 382.84775543 C37.10678944 382.8642444 40.86171599 382.86638774 44.61692619 382.85761642 C45.99315209 382.85684648 47.36939202 382.86118325 48.74558258 382.87107468 C50.62846682 382.88381144 52.51145585 382.87611938 54.3943634 382.86749268 C55.97308086 382.86969252 55.97308086 382.86969252 57.5836916 382.8719368 C61.11151036 382.43145005 63.52369602 381.31855654 66.5625 379.5 C67.98291821 376.65916359 67.87702272 374.64522722 67.5625 371.5 C65.33043569 368.65219381 64.01257001 367.65002334 60.5625 366.5 C58.63532833 366.40263125 56.70493645 366.36501774 54.77531433 366.35955811 C53.56822311 366.35384796 52.3611319 366.34813782 51.11746216 366.34225464 C49.7777711 366.3410093 48.43807992 366.3398842 47.09838867 366.33886719 C45.68897878 366.33423838 44.27957014 366.32921363 42.87016296 366.32382202 C39.03948188 366.31070177 35.20881832 366.30425376 31.37811828 366.29981136 C28.98450659 366.29687995 26.5908997 366.292775 24.19729042 366.28830719 C16.70723467 366.27463305 9.21718986 366.26496607 1.72712249 366.2611053 C-6.91716376 366.25662504 -15.56129184 366.23907835 -24.20552999 366.2101047 C-30.88843478 366.1884831 -37.57129509 366.17840076 -44.25423449 366.17706418 C-48.24508569 366.17601646 -52.2357882 366.17011587 -56.22660255 366.15224457 C-59.98178944 366.1357556 -63.73671599 366.13361226 -67.49192619 366.14238358 C-68.86815209 366.14315352 -70.24439202 366.13881675 -71.62058258 366.12892532 C-73.50346682 366.11618856 -75.38645585 366.12388062 -77.2693634 366.13250732 C-78.84808086 366.13030748 -78.84808086 366.13030748 -80.4586916 366.1280632 C-83.98651036 366.56854995 -86.39869602 367.68144346 -89.4375 369.5 Z M-89.4375 401.5 C-90.85791821 404.34083641 -90.75202272 406.35477278 -90.4375 409.5 C-88.20543569 412.34780619 -86.88757001 413.34997666 -83.4375 414.5 C-81.51032833 414.59736875 -79.57993645 414.63498226 -77.65031433 414.64044189 C-76.44322311 414.64615204 -75.2361319 414.65186218 -73.99246216 414.65774536 C-72.6527711 414.6589907 -71.31307992 414.6601158 -69.97338867 414.66113281 C-68.56397878 414.66576162 -67.15457014 414.67078637 -65.74516296 414.67617798 C-61.91448188 414.68929823 -58.08381832 414.69574624 -54.25311828 414.70018864 C-51.85950659 414.70312005 -49.4658997 414.707225 -47.07229042 414.71169281 C-39.58223467 414.72536695 -32.09218986 414.73503393 -24.60212249 414.7388947 C-15.95783624 414.74337496 -7.31370816 414.76092165 1.33052999 414.7898953 C8.01343478 414.8115169 14.69629509 414.82159924 21.37923449 414.82293582 C25.37008569 414.82398354 29.3607882 414.82988413 33.35160255 414.84775543 C37.10678944 414.8642444 40.86171599 414.86638774 44.61692619 414.85761642 C45.99315209 414.85684648 47.36939202 414.86118325 48.74558258 414.87107468 C50.62846682 414.88381144 52.51145585 414.87611938 54.3943634 414.86749268 C55.97308086 414.86969252 55.97308086 414.86969252 57.5836916 414.8719368 C61.11151036 414.43145005 63.52369602 413.31855654 66.5625 411.5 C67.98291821 408.65916359 67.87702272 406.64522722 67.5625 403.5 C65.33043569 400.65219381 64.01257001 399.65002334 60.5625 398.5 C58.63532833 398.40263125 56.70493645 398.36501774 54.77531433 398.35955811 C53.56822311 398.35384796 52.3611319 398.34813782 51.11746216 398.34225464 C49.7777711 398.3410093 48.43807992 398.3398842 47.09838867 398.33886719 C45.68897878 398.33423838 44.27957014 398.32921363 42.87016296 398.32382202 C39.03948188 398.31070177 35.20881832 398.30425376 31.37811828 398.29981136 C28.98450659 398.29687995 26.5908997 398.292775 24.19729042 398.28830719 C16.70723467 398.27463305 9.21718986 398.26496607 1.72712249 398.2611053 C-6.91716376 398.25662504 -15.56129184 398.23907835 -24.20552999 398.2101047 C-30.88843478 398.1884831 -37.57129509 398.17840076 -44.25423449 398.17706418 C-48.24508569 398.17601646 -52.2357882 398.17011587 -56.22660255 398.15224457 C-59.98178944 398.1357556 -63.73671599 398.13361226 -67.49192619 398.14238358 C-68.86815209 398.14315352 -70.24439202 398.13881675 -71.62058258 398.12892532 C-73.50346682 398.11618856 -75.38645585 398.12388062 -77.2693634 398.13250732 C-78.84808086 398.13030748 -78.84808086 398.13030748 -80.4586916 398.1280632 C-83.98651036 398.56854995 -86.39869602 399.68144346 -89.4375 401.5 Z M148.75 414.75 C141.65571935 424.56650462 140.40893472 434.71460626 141.5625 446.5 C143.82007909 457.28027414 150.30706148 465.61109065 159.13671875 471.9921875 C169.11265899 478.19301348 180.3345243 479.22308289 191.71484375 476.83984375 C202.89959105 473.21617387 211.36505052 465.31122995 216.8828125 455.04296875 C220.93393851 445.59506299 221.1626898 434.32439536 218 424.5625 C213.42341606 413.88913815 205.17336185 405.63908394 194.5 401.0625 C177.08310611 395.41971951 160.35640211 400.97509814 148.75 414.75 Z M-58.4375 430.5 C-58.4375 444.96575695 -53.88290766 454.73263255 -44.125 465.25 C-34.04016102 474.79457975 -22.74304429 478.02153828 -9.19140625 477.91967773 C4.56274948 477.47335653 15.58097138 471.35666232 24.96875 461.4375 C32.88912004 451.80881485 35.5625 442.85438587 35.5625 430.5 C4.5425 430.5 -26.4775 430.5 -58.4375 430.5 Z " fill="#EA5D3E" transform="translate(267.4375,9.5)"/>
<path d="M0 0 C5.82485779 3.51996782 10.54466582 8.98962934 12.5625 15.5 C13.36764105 23.33608208 13.68710392 31.11922577 8.5625 37.5 C3.75801361 42.54521222 -0.59927055 46.10562995 -7.70703125 46.8359375 C-16.22326573 46.92983204 -22.11345494 46.6177288 -28.40234375 40.62890625 C-34.7841668 33.72505269 -35.91792252 28.29832071 -35.7421875 18.9453125 C-35.04689797 11.08319245 -31.38995981 6.95041296 -25.53515625 1.9453125 C-18.47077988 -2.92213491 -7.84396301 -3.47595223 0 0 Z M-16.8125 17.125 C-18.92456506 20.21186432 -19.04945145 21.8282913 -18.4375 25.5 C-16.9375 28 -16.9375 28 -14.4375 29.5 C-10.7657913 30.11195145 -9.14936432 29.98706506 -6.0625 27.875 C-3.95043494 24.78813568 -3.82554855 23.1717087 -4.4375 19.5 C-5.9375 17 -5.9375 17 -8.4375 15.5 C-12.1092087 14.88804855 -13.72563568 15.01293494 -16.8125 17.125 Z " fill="#EA5D3E" transform="translate(459.4375,425.5)"/>
<path d="M0 0 C5.82485779 3.51996782 10.54466582 8.98962934 12.5625 15.5 C13.36764105 23.33608208 13.68710392 31.11922577 8.5625 37.5 C3.75801361 42.54521222 -0.59927055 46.10562995 -7.70703125 46.8359375 C-16.22326573 46.92983204 -22.11345494 46.6177288 -28.40234375 40.62890625 C-34.7841668 33.72505269 -35.91792252 28.29832071 -35.7421875 18.9453125 C-35.04689797 11.08319245 -31.38995981 6.95041296 -25.53515625 1.9453125 C-18.47077988 -2.92213491 -7.84396301 -3.47595223 0 0 Z M-16.8125 17.125 C-18.92456506 20.21186432 -19.04945145 21.8282913 -18.4375 25.5 C-16.9375 28 -16.9375 28 -14.4375 29.5 C-10.7657913 30.11195145 -9.14936432 29.98706506 -6.0625 27.875 C-3.95043494 24.78813568 -3.82554855 23.1717087 -4.4375 19.5 C-5.9375 17 -5.9375 17 -8.4375 15.5 C-12.1092087 14.88804855 -13.72563568 15.01293494 -16.8125 17.125 Z " fill="#EA5D3E" transform="translate(75.4375,377.5)"/>
</svg>
