<?xml version="1.0" encoding="UTF-8"?>
<svg version="1.1" xmlns="http://www.w3.org/2000/svg" width="512" height="512">
<path d="M0 0 C2.81005071 2.27841949 3.84898818 3.54696453 5 7 C5.09319655 9.42056852 5.13039116 11.81181315 5.12025452 14.23222351 C5.12153615 15.34475289 5.12153615 15.34475289 5.12284368 16.47975761 C5.12449438 18.97179961 5.11898379 21.46377471 5.11352539 23.95581055 C5.1132434 25.73948159 5.11340148 27.52315275 5.1139679 29.30682373 C5.11425542 34.15567512 5.10836585 39.00450189 5.10139394 43.85334754 C5.09515302 48.91824707 5.09455601 53.98314714 5.09336853 59.04804993 C5.0902574 68.64214102 5.08204693 78.23622075 5.07201904 87.83030683 C5.06085115 98.75156973 5.05534575 109.67283317 5.05032361 120.59410036 C5.03986415 143.06273988 5.02226891 165.5313693 5 188 C6.39094218 187.99585193 6.39094218 187.99585193 7.80998421 187.99162006 C30.36914638 187.92503263 52.9282958 187.87572805 75.48753548 187.84456348 C86.39699928 187.8290921 97.30639817 187.80799735 108.21582031 187.77368164 C117.7240487 187.74378765 127.23223007 187.72442697 136.74050415 187.71773452 C141.77544782 187.71382227 146.81025703 187.70462222 151.84515762 187.68280983 C156.58438605 187.66244474 161.32342462 187.65616627 166.06269264 187.66067696 C167.80174478 187.65985177 169.54080329 187.65388625 171.27981758 187.64238358 C173.65578212 187.62743895 176.03103155 187.63105332 178.40701294 187.63923645 C179.09379753 187.63049793 179.78058213 187.6217594 180.48817837 187.61275607 C185.03588333 187.65503872 188.1242436 188.64258863 192 191 C194.00227445 193.52460691 194.00998065 194.76046431 193.875 198 C192.87252339 201.43706266 191.77992173 202.7924151 189 205 C185.51137961 206.16287346 182.39539692 206.13544694 178.76777649 206.12025452 C178.02609024 206.12110894 177.28440399 206.12196337 176.52024239 206.12284368 C174.02820039 206.12449438 171.53622529 206.11898379 169.04418945 206.11352539 C167.26051841 206.1132434 165.47684725 206.11340148 163.69317627 206.1139679 C158.84432488 206.11425542 153.99549811 206.10836585 149.14665246 206.10139394 C144.08175293 206.09515302 139.01685286 206.09455601 133.95195007 206.09336853 C124.35785898 206.0902574 114.76377925 206.08204693 105.16969317 206.07201904 C94.24843027 206.06085115 83.32716683 206.05534575 72.40589964 206.05032361 C49.93726012 206.03986415 27.4686307 206.02226891 5 206 C5.00276538 206.92729479 5.00553076 207.85458958 5.00837994 208.80998421 C5.07496737 231.36914638 5.12427195 253.9282958 5.15543652 276.48753548 C5.1709079 287.39699928 5.19200265 298.30639817 5.22631836 309.21582031 C5.25621235 318.7240487 5.27557303 328.23223007 5.28226548 337.74050415 C5.28617773 342.77544782 5.29537778 347.81025703 5.31719017 352.84515762 C5.33755526 357.58438605 5.34383373 362.32342462 5.33932304 367.06269264 C5.34014823 368.80174478 5.34611375 370.54080329 5.35761642 372.27981758 C5.37256105 374.65578212 5.36894668 377.03103155 5.36076355 379.40701294 C5.36950207 380.09379753 5.3782406 380.78058213 5.38724393 381.48817837 C5.34496128 386.03588333 4.35741137 389.1242436 2 393 C-0.52460691 395.00227445 -1.76046431 395.00998065 -5 394.875 C-8.43706266 393.87252339 -9.7924151 392.77992173 -12 390 C-13.16287346 386.51137961 -13.13544694 383.39539692 -13.12025452 379.76777649 C-13.12153615 378.65524711 -13.12153615 378.65524711 -13.12284368 377.52024239 C-13.12449438 375.02820039 -13.11898379 372.53622529 -13.11352539 370.04418945 C-13.1132434 368.26051841 -13.11340148 366.47684725 -13.1139679 364.69317627 C-13.11425542 359.84432488 -13.10836585 354.99549811 -13.10139394 350.14665246 C-13.09515302 345.08175293 -13.09455601 340.01685286 -13.09336853 334.95195007 C-13.0902574 325.35785898 -13.08204693 315.76377925 -13.07201904 306.16969317 C-13.06085115 295.24843027 -13.05534575 284.32716683 -13.05032361 273.40589964 C-13.03986415 250.93726012 -13.02226891 228.4686307 -13 206 C-14.39094218 206.00414807 -14.39094218 206.00414807 -15.80998421 206.00837994 C-38.36914638 206.07496737 -60.9282958 206.12427195 -83.48753548 206.15543652 C-94.39699928 206.1709079 -105.30639817 206.19200265 -116.21582031 206.22631836 C-125.7240487 206.25621235 -135.23223007 206.27557303 -144.74050415 206.28226548 C-149.77544782 206.28617773 -154.81025703 206.29537778 -159.84515762 206.31719017 C-164.58438605 206.33755526 -169.32342462 206.34383373 -174.06269264 206.33932304 C-175.80174478 206.34014823 -177.54080329 206.34611375 -179.27981758 206.35761642 C-181.65578212 206.37256105 -184.03103155 206.36894668 -186.40701294 206.36076355 C-187.09379753 206.36950207 -187.78058213 206.3782406 -188.48817837 206.38724393 C-193.03588333 206.34496128 -196.1242436 205.35741137 -200 203 C-202.00227445 200.47539309 -202.00998065 199.23953569 -201.875 196 C-200.87252339 192.56293734 -199.77992173 191.2075849 -197 189 C-193.51137961 187.83712654 -190.39539692 187.86455306 -186.76777649 187.87974548 C-186.02609024 187.87889106 -185.28440399 187.87803663 -184.52024239 187.87715632 C-182.02820039 187.87550562 -179.53622529 187.88101621 -177.04418945 187.88647461 C-175.26051841 187.8867566 -173.47684725 187.88659852 -171.69317627 187.8860321 C-166.84432488 187.88574458 -161.99549811 187.89163415 -157.14665246 187.89860606 C-152.08175293 187.90484698 -147.01685286 187.90544399 -141.95195007 187.90663147 C-132.35785898 187.9097426 -122.76377925 187.91795307 -113.16969317 187.92798096 C-102.24843027 187.93914885 -91.32716683 187.94465425 -80.40589964 187.94967639 C-57.93726012 187.96013585 -35.4686307 187.97773109 -13 188 C-13.00276538 187.07270521 -13.00553076 186.14541042 -13.00837994 185.19001579 C-13.07496737 162.63085362 -13.12427195 140.0717042 -13.15543652 117.51246452 C-13.1709079 106.60300072 -13.19200265 95.69360183 -13.22631836 84.78417969 C-13.25621235 75.2759513 -13.27557303 65.76776993 -13.28226548 56.25949585 C-13.28617773 51.22455218 -13.29537778 46.18974297 -13.31719017 41.15484238 C-13.33755526 36.41561395 -13.34383373 31.67657538 -13.33932304 26.93730736 C-13.34014823 25.19825522 -13.34611375 23.45919671 -13.35761642 21.72018242 C-13.37256105 19.34421788 -13.36894668 16.96896845 -13.36076355 14.59298706 C-13.36950207 13.90620247 -13.3782406 13.21941787 -13.38724393 12.51182163 C-13.34496128 7.96411667 -12.35741137 4.8757564 -10 1 C-6.68343166 -1.63038179 -3.94300516 -1.15004317 0 0 Z " fill="#EFAFFA" transform="translate(260,59)"/>
<path d="M0 0 C0.99902344 0.40089844 1.99804688 0.80179687 3.02734375 1.21484375 C18.67879694 8.16433069 29.40466779 21.49415998 36 37 C41.52161417 51.66226384 40.56717039 69.21036202 34.5234375 83.48828125 C27.01946225 99.87401804 15.62355282 110.97287067 -1 118 C-17.2312439 123.92752987 -34.38990945 123.59871319 -50.17504883 116.38476562 C-57.85299873 112.64832595 -64.07223118 108.21370943 -70 102 C-70.64324219 101.36449219 -71.28648438 100.72898437 -71.94921875 100.07421875 C-83.73697696 87.7239211 -87.57115609 71.07197996 -87.2734375 54.51953125 C-86.55759405 37.86731158 -78.60099973 22.69212964 -66.58154297 11.37695312 C-48.62032431 -4.26078587 -22.16822017 -9.62130916 0 0 Z M-5.875 39.0625 C-6.93554469 40.08661439 -7.99674204 41.11005335 -9.05859375 42.1328125 C-9.82018799 42.87966309 -9.82018799 42.87966309 -10.59716797 43.64160156 C-12.32026219 45.31011814 -14.11335466 46.88058614 -15.9375 48.4375 C-18.45228938 50.59227742 -20.86354249 52.82234833 -23.23828125 55.12890625 C-23.81650635 55.68328369 -24.39473145 56.23766113 -24.99047852 56.80883789 C-26.14806384 57.92144973 -27.29605069 59.04415001 -28.43334961 60.17749023 C-30.046875 61.71875 -30.046875 61.71875 -33 64 C-37.08181996 63.5391966 -38.85783321 61.42449734 -41.625 58.5 C-45.5109774 54.2018392 -45.5109774 54.2018392 -50.875 52.6875 C-54.04524767 52.75215083 -54.04524767 52.75215083 -56.375 54.625 C-58.15045403 56.92460837 -58.15045403 56.92460837 -58.6875 59.75 C-57.61958834 64.79830967 -54.54991958 67.39051801 -51 71 C-50.0344436 72.05806075 -49.07103807 73.11808689 -48.109375 74.1796875 C-47.07444608 75.2878886 -46.03798452 76.39466037 -45 77.5 C-44.27151855 78.31138428 -44.27151855 78.31138428 -43.52832031 79.13916016 C-40.81936904 81.94286156 -39.25992692 82.9623092 -35.36328125 83.52734375 C-31.83920274 82.97478789 -30.66189754 82.52572645 -28.1875 80.0625 C-27.51589844 79.41925781 -26.84429687 78.77601563 -26.15234375 78.11328125 C-25.44207031 77.41589844 -24.73179687 76.71851563 -24 76 C-22.4222646 74.57710158 -20.83864046 73.16071272 -19.25 71.75 C-14.97270973 67.89256645 -10.72474397 64.0040441 -6.48388672 60.10668945 C-2.33724989 56.29922522 1.84387713 52.53128794 6.0390625 48.77734375 C9.42804215 45.90895662 9.42804215 45.90895662 10.375 41.625 C10.28667912 38.01971972 10.28667912 38.01971972 8.375 35.5625 C2.48540223 31.68776462 -1.49805035 34.62811949 -5.875 39.0625 Z " fill="#EFAFFA" transform="translate(193,283)"/>
<path d="M0 0 C0.74886475 0.00523682 1.49772949 0.01047363 2.26928711 0.01586914 C3.07817383 0.0190918 3.88706055 0.02231445 4.72045898 0.02563477 C5.5705957 0.03401367 6.42073242 0.04239258 7.29663086 0.05102539 C8.15063477 0.05553711 9.00463867 0.06004883 9.88452148 0.06469727 C12.00108749 0.07652166 14.11761771 0.0944577 16.23413086 0.11352539 C16.38366211 0.77739258 16.53319336 1.44125977 16.68725586 2.12524414 C18.01514687 6.58409385 18.99593359 9.35182059 23.06616211 11.85571289 C26.09504654 13.09363664 29.10300541 14.16670124 32.23413086 15.11352539 C33.22413086 15.44352539 34.21413086 15.77352539 35.23413086 16.11352539 C37.78479028 15.36005264 37.78479028 15.36005264 40.42163086 14.17602539 C41.32268555 13.79575195 42.22374023 13.41547852 43.15209961 13.02368164 C44.18270508 12.5731543 44.18270508 12.5731543 45.23413086 12.11352539 C47.27417016 13.99179946 49.28952633 15.88810901 51.29663086 17.80102539 C51.87735352 18.33147461 52.45807617 18.86192383 53.05639648 19.40844727 C54.61771409 20.91433348 56.00551018 22.32498346 57.23413086 24.11352539 C57.18192327 27.39311147 56.18640064 29.22200317 54.85913086 32.23852539 C53.91340133 38.1020485 56.59645583 41.9851665 59.23413086 47.11352539 C59.56413086 48.10352539 59.89413086 49.09352539 60.23413086 50.11352539 C63.46262683 51.76364555 66.82287423 52.86129195 70.23413086 54.11352539 C70.23413086 60.05352539 70.23413086 65.99352539 70.23413086 72.11352539 C61.48413086 76.11352539 61.48413086 76.11352539 59.23413086 76.11352539 C59.15163086 76.93852539 59.06913086 77.76352539 58.98413086 78.61352539 C58.30271412 81.79347015 57.61609765 83.24723779 55.98413086 85.92602539 C54.61713936 88.46541885 54.13408004 89.58405293 54.67553711 92.44946289 C55.50747103 94.78961751 55.50747103 94.78961751 56.53491211 96.93774414 C57.4667151 99.83726517 57.26680303 101.24304682 56.23413086 104.11352539 C53.94897461 106.78930664 53.94897461 106.78930664 51.17163086 109.42602539 C49.79297852 110.75053711 49.79297852 110.75053711 48.38647461 112.10180664 C47.67620117 112.76567383 46.96592773 113.42954102 46.23413086 114.11352539 C45.65405273 113.88536133 45.07397461 113.65719727 44.47631836 113.42211914 C36.17845096 110.36861348 31.38075655 111.87837112 23.40600586 115.27368164 C21.23413086 116.11352539 21.23413086 116.11352539 19.23413086 116.11352539 C19.04850586 117.19633789 19.04850586 117.19633789 18.85913086 118.30102539 C18.23413086 121.11352539 18.23413086 121.11352539 16.23413086 126.11352539 C9.96413086 126.11352539 3.69413086 126.11352539 -2.76586914 126.11352539 C-3.15774414 124.56665039 -3.54961914 123.01977539 -3.95336914 121.42602539 C-5.3889796 117.77739807 -6.33652716 116.37738589 -9.71508789 114.30102539 C-18.4556193 110.79285315 -22.82882723 111.13451142 -31.76586914 114.11352539 C-35.72586914 110.15352539 -39.68586914 106.19352539 -43.76586914 102.11352539 C-42.95206706 99.93253581 -42.13826497 97.75154622 -41.32446289 95.57055664 C-39.87069187 89.17599741 -43.49938423 81.5016991 -46.76586914 76.11352539 C-49.62580476 74.08044191 -52.42192862 73.08768988 -55.76586914 72.11352539 C-56.76586914 71.11352539 -56.76586914 71.11352539 -56.86352539 67.51586914 C-56.85685134 66.02755672 -56.84489097 64.53926107 -56.82836914 63.05102539 C-56.82385742 62.29241211 -56.8193457 61.53379883 -56.81469727 60.75219727 C-56.80287594 58.87260668 -56.78493992 56.9930564 -56.76586914 55.11352539 C-55.7874707 54.81575195 -55.7874707 54.81575195 -54.78930664 54.51196289 C-49.39805804 52.42861904 -46.38128927 50.36262526 -43.86791992 44.9987793 C-40.92983238 38.22195229 -40.92983238 38.22195229 -41.76586914 31.11352539 C-42.13711914 30.43290039 -42.50836914 29.75227539 -42.89086914 29.05102539 C-43.76586914 27.11352539 -43.76586914 27.11352539 -43.66821289 25.35180664 C-42.31142416 21.98626576 -39.78449153 19.81897516 -37.20336914 17.36352539 C-36.42316406 16.60362305 -36.42316406 16.60362305 -35.62719727 15.82836914 C-34.3467683 14.58318134 -33.0571936 13.34741037 -31.76586914 12.11352539 C-31.09942383 12.4602832 -30.43297852 12.80704102 -29.74633789 13.16430664 C-23.92465656 15.83159335 -23.92465656 15.83159335 -17.72680664 15.26586914 C-15.84513515 14.35546474 -13.99094927 13.38499975 -12.17602539 12.34790039 C-9.76586914 11.11352539 -9.76586914 11.11352539 -5.76586914 11.11352539 C-5.5609082 10.40325195 -5.35594727 9.69297852 -5.14477539 8.96118164 C-4.87536133 8.04208008 -4.60594727 7.12297852 -4.32836914 6.17602539 C-4.0615332 5.25950195 -3.79469727 4.34297852 -3.51977539 3.39868164 C-2.45047494 0.15753779 -2.45047494 0.15753779 0 0 Z M-16.76586914 46.11352539 C-22.01591575 53.21978901 -22.51903553 60.51045576 -21.76586914 69.11352539 C-19.87534257 76.75125274 -16.1126221 83.2030908 -9.51977539 87.61743164 C-1.70073506 92.12397213 5.94360208 93.64689951 14.89428711 91.46508789 C22.85541422 88.58579308 28.89600441 83.92879745 33.23413086 76.61352539 C36.49883458 69.36477645 36.536128 60.98908914 34.49975586 53.36352539 C31.23157888 45.43417797 25.89271953 39.87190687 18.23413086 36.11352539 C4.21667212 30.95060643 -7.13595152 35.53293949 -16.76586914 46.11352539 Z " fill="#EFAFFA" transform="translate(335.765869140625,104.886474609375)"/>
<path d="M0 0 C1.01760406 -0.0030011 2.03520813 -0.0060022 3.08364868 -0.00909424 C4.72906143 0.00942596 4.72906143 0.00942596 6.40771484 0.02832031 C7.53309662 0.03019348 8.65847839 0.03206665 9.81796265 0.03399658 C12.19686851 0.04072126 14.57576325 0.05464389 16.95458984 0.07519531 C20.61094342 0.10637956 24.26686642 0.11616801 27.92333984 0.12207031 C30.23063681 0.13123872 32.53792936 0.14161398 34.84521484 0.15332031 C35.94620514 0.15757019 37.04719543 0.16182007 38.18154907 0.16619873 C39.69849869 0.18061005 39.69849869 0.18061005 41.24609375 0.1953125 C42.58820419 0.2055545 42.58820419 0.2055545 43.95742798 0.21600342 C45.99365234 0.35644531 45.99365234 0.35644531 46.99365234 1.35644531 C47.11669486 3.88967364 47.17973978 6.39986405 47.20458984 8.93457031 C47.23267089 10.50359094 47.26133543 12.07260121 47.29052734 13.64160156 C47.33171592 16.12125219 47.36859124 18.60071212 47.39501953 21.08056641 C47.42270708 23.46981106 47.46859204 25.85816937 47.51708984 28.24707031 C47.52034271 28.98370911 47.52359558 29.7203479 47.52694702 30.47930908 C47.63255419 34.92328442 48.24980547 37.82060346 50.99365234 41.35644531 C54.1504738 42.93485604 57.55882013 42.57683377 61.02880859 42.63769531 C61.82266464 42.65610474 62.61652069 42.67451416 63.43443298 42.69348145 C66.83855486 42.7723041 70.24287687 42.84004647 73.6472168 42.90869141 C76.12868412 42.96029494 78.60997469 43.01758405 81.09130859 43.07519531 C81.86732925 43.08877075 82.64334991 43.10234619 83.44288635 43.11633301 C88.88082489 43.24361786 88.88082489 43.24361786 89.99365234 44.35644531 C90.09932584 46.87108375 90.14043457 49.35839747 90.13891602 51.8737793 C90.14227463 52.66075195 90.14563324 53.44772461 90.14909363 54.25854492 C90.15863214 56.87322547 90.16054818 59.48784218 90.16162109 62.10253906 C90.16483165 63.91235888 90.16819557 65.72217843 90.17170715 67.53199768 C90.17770568 71.3309896 90.17954631 75.12995875 90.17895508 78.92895508 C90.17885341 83.80627304 90.19250694 88.68344556 90.20972729 93.56072903 C90.2208246 97.30012182 90.22287499 101.03947921 90.22234535 104.7788868 C90.22352885 106.57748987 90.22797119 108.37609376 90.23567772 110.17468071 C90.24543207 112.68646416 90.24261777 115.19792864 90.23657227 117.7097168 C90.24219177 118.45836502 90.24781128 119.20701324 90.25360107 119.97834778 C90.22196795 125.12812971 90.22196795 125.12812971 87.99365234 127.35644531 C85.05733923 127.56052268 82.21495645 127.6395892 79.27709961 127.63110352 C77.92326675 127.63876991 77.92326675 127.63876991 76.54208374 127.64659119 C73.54800857 127.66053167 70.55416243 127.65952706 67.56005859 127.65722656 C65.48502008 127.66111108 63.40998236 127.66544524 61.33494568 127.67021179 C56.98116481 127.67768362 52.62746501 127.67737579 48.27368164 127.67211914 C42.68682734 127.66632365 37.10030446 127.68325288 31.51350498 127.70646381 C27.22676138 127.72117637 22.94009804 127.72207623 18.65333366 127.71895409 C16.59319337 127.71946856 14.53304873 127.72472981 12.47293282 127.73476601 C9.59493434 127.74706493 6.7175872 127.74037812 3.83959961 127.72875977 C2.98390884 127.7364035 2.12821808 127.74404724 1.24659729 127.75192261 C-4.51996188 127.70031374 -4.51996188 127.70031374 -6.72490978 126.14144421 C-8.41831215 123.78259293 -8.38360422 122.31492647 -8.38729858 119.42224121 C-8.39575806 118.40434006 -8.40421753 117.3864389 -8.41293335 116.33769226 C-8.40686066 115.22175186 -8.40078796 114.10581146 -8.39453125 112.95605469 C-8.39978821 111.78025345 -8.40504517 110.60445221 -8.41046143 109.39302063 C-8.42141269 106.16776842 -8.41883198 102.94288478 -8.40932417 99.71763802 C-8.40173336 96.34377385 -8.40877156 92.96993446 -8.41348267 89.59606934 C-8.41894193 83.93004937 -8.41174421 78.26414669 -8.39746094 72.59814453 C-8.38113398 66.04573655 -8.38642238 59.4936086 -8.40294015 52.94120741 C-8.41655024 47.317343 -8.41847706 41.69356293 -8.41062415 36.06968737 C-8.40594496 32.70996033 -8.40532939 29.35036496 -8.41523361 25.99064636 C-8.42282616 22.24584845 -8.4112739 18.50159328 -8.39453125 14.75683594 C-8.40060394 13.64089554 -8.40667664 12.52495514 -8.41293335 11.37519836 C-8.40447388 10.35729721 -8.3960144 9.33939606 -8.38729858 8.29064941 C-8.38616751 7.40501564 -8.38503643 6.51938187 -8.38387108 5.60691071 C-7.55455797 0.6632692 -4.54121064 -0.01847037 0 0 Z M9.99365234 52.35644531 C9.24365234 55.85644531 9.24365234 55.85644531 9.99365234 59.35644531 C12.18747279 62.02183464 13.99070872 63.20920233 17.42947388 63.71405029 C20.53257946 63.8540781 23.6102756 63.85799571 26.71630859 63.81738281 C27.8539415 63.81646637 28.9915744 63.81554993 30.16368103 63.81460571 C32.56513652 63.80857141 34.96658454 63.79283073 37.36791992 63.76806641 C41.04618006 63.73154433 44.72343288 63.72704726 48.40185547 63.72753906 C50.73584856 63.71770827 53.06983482 63.70605143 55.40380859 63.69238281 C57.05546776 63.68904434 57.05546776 63.68904434 58.74049377 63.68563843 C59.76513229 63.67287872 60.78977081 63.66011902 61.84545898 63.64697266 C63.1951754 63.63553726 63.1951754 63.63553726 64.57215881 63.62387085 C67.16710604 63.33728939 68.78450437 62.72592901 70.99365234 61.35644531 C72.9006701 58.81375498 72.99952994 57.50044639 72.86865234 54.29394531 C71.83217441 50.81434082 71.06738926 50.16554129 67.99365234 48.35644531 C65.44347915 47.89868995 65.44347915 47.89868995 62.64599609 47.95239258 C61.57808838 47.9397084 60.51018066 47.92702423 59.40991211 47.91395569 C58.26192139 47.91689133 57.11393066 47.91982697 55.93115234 47.92285156 C54.7477124 47.91760971 53.56427246 47.91236786 52.3449707 47.90696716 C49.84343246 47.90054509 47.34186403 47.90188631 44.84033203 47.91040039 C41.00808105 47.91891326 37.17731865 47.89014397 33.34521484 47.85839844 C30.91552779 47.85678647 28.48583809 47.85736387 26.05615234 47.86035156 C24.90816162 47.84911758 23.7601709 47.83788361 22.57739258 47.8263092 C20.97553101 47.84038063 20.97553101 47.84038063 19.34130859 47.85473633 C17.93377319 47.85498558 17.93377319 47.85498558 16.49780273 47.85523987 C13.21498378 48.51229575 12.02676571 49.74186138 9.99365234 52.35644531 Z M9.99365234 76.35644531 C9.24365234 79.85644531 9.24365234 79.85644531 9.99365234 83.35644531 C12.02377232 85.96329213 13.22072452 87.19716186 16.49107361 87.87110901 C17.8940847 87.88040688 17.8940847 87.88040688 19.32543945 87.88989258 C20.39011948 87.90572891 21.4547995 87.92156525 22.55174255 87.93788147 C23.69659622 87.9329216 24.84144989 87.92796173 26.02099609 87.92285156 C27.20206436 87.92905014 28.38313263 87.93524872 29.59999084 87.94163513 C32.09733251 87.94873808 34.59472149 87.94555112 37.09204102 87.93286133 C40.91364745 87.91900876 44.73280012 87.95304865 48.55419922 87.99121094 C50.98063211 87.99216223 53.40706807 87.99030276 55.83349609 87.98535156 C57.54774025 88.00523888 57.54774025 88.00523888 59.2966156 88.02552795 C65.81175027 88.11628594 65.81175027 88.11628594 71.25366211 85.01245117 C73.27906529 82.44997808 73.27906529 82.44997808 72.99365234 79.23144531 C71.71763176 75.56288613 70.4248679 74.07205309 66.99365234 72.35644531 C65.35593516 72.24593352 63.71385408 72.19731198 62.07250977 72.17944336 C61.04772018 72.16660812 60.0229306 72.15377289 58.96708679 72.14054871 C57.85565811 72.13316177 56.74422943 72.12577484 55.59912109 72.11816406 C54.45961502 72.11009232 53.32010895 72.10202057 52.14607239 72.09370422 C49.73094203 72.07985544 47.31579204 72.06913686 44.90063477 72.0612793 C41.2066541 72.04406416 37.51356763 72.00018337 33.81982422 71.95605469 C31.47542977 71.94592825 29.1310277 71.937412 26.78662109 71.93066406 C25.12858711 71.90440193 25.12858711 71.90440193 23.4370575 71.87760925 C15.82115865 71.80186094 15.82115865 71.80186094 9.99365234 76.35644531 Z M11.18139648 98.66586304 C9.1607449 101.54196878 9.57802032 103.97201313 9.99365234 107.35644531 C12.03158757 110.00059735 13.230665 111.20197472 16.5357666 111.87110901 C17.49188843 111.87730759 18.44801025 111.88350616 19.43310547 111.88989258 C21.06499817 111.91364708 21.06499817 111.91364708 22.7298584 111.93788147 C23.8997229 111.9329216 25.0695874 111.92796173 26.27490234 111.92285156 C27.48053833 111.92905014 28.68617432 111.93524872 29.92834473 111.94163513 C32.47696118 111.94873799 35.02562399 111.94555129 37.57421875 111.93286133 C41.47921883 111.91899656 45.3818235 111.95306373 49.28662109 111.99121094 C51.7618821 111.9921621 54.23714611 111.99030348 56.71240234 111.98535156 C58.4671991 112.00523888 58.4671991 112.00523888 60.25744629 112.02552795 C66.54629084 112.09955631 66.54629084 112.09955631 71.76513672 109.01245117 C73.34378415 105.59947315 73.15104455 103.90578142 71.99365234 100.35644531 C70.27954755 98.02864603 69.41679599 97.42179845 66.52709961 96.97549438 C65.54797607 96.9731076 64.56885254 96.97072083 63.56005859 96.96826172 C61.89317993 96.954077 61.89317993 96.954077 60.19262695 96.93960571 C58.99259033 96.94567841 57.79255371 96.9517511 56.55615234 96.95800781 C55.32453369 96.95513763 54.09291504 96.95226746 52.82397461 96.9493103 C49.55017277 96.94674373 46.27679698 96.95882921 43.00305176 96.97558594 C40.9955485 96.98143978 38.98843865 96.97560736 36.98095703 96.96533203 C33.13083539 96.94683551 29.28129801 96.94903539 25.43115234 96.95800781 C23.63109741 96.94889877 23.63109741 96.94889877 21.79467773 96.93960571 C20.68342529 96.94906219 19.57217285 96.95851868 18.42724609 96.96826172 C16.95856079 96.97184189 16.95856079 96.97184189 15.46020508 96.97549438 C12.96254898 97.16970962 12.96254898 97.16970962 11.18139648 98.66586304 Z " fill="#EFAFFA" transform="translate(136.00634765625,102.6435546875)"/>
<path d="M0 0 C0.8559375 0.32742188 1.711875 0.65484375 2.59375 0.9921875 C16.1230689 6.85774664 25.66339538 18.8341975 31.3125 32.125 C36.38693275 46.01979869 37.18117335 61.72015385 30.875 75.44921875 C30.50375 76.14660156 30.1325 76.84398437 29.75 77.5625 C27.79301429 80.65338461 27.79301429 80.65338461 28.17675781 82.96948242 C29.88577412 87.1847519 33.58669371 90.14083991 36.75 93.3125 C37.46671875 94.06595703 38.1834375 94.81941406 38.921875 95.59570312 C39.623125 96.30275391 40.324375 97.00980469 41.046875 97.73828125 C41.68463867 98.38837158 42.32240234 99.03846191 42.97949219 99.70825195 C45.70184507 101.44870254 46.91539737 100.62085407 50 100 C53.98577684 101.82034313 56.75754578 104.5335497 59.80078125 107.640625 C60.69603516 108.54683594 61.59128906 109.45304687 62.51367188 110.38671875 C63.44699797 111.34077092 64.37993878 112.29520016 65.3125 113.25 C70.83338751 118.87623307 76.31473833 124.45500698 82.33276367 129.55371094 C86.75139336 133.38677028 86.75139336 133.38677028 87.9375 136.3125 C88.05220598 141.24485718 84.17855376 144.9148848 80.9765625 148.39453125 C79.86476062 149.5391103 78.7474752 150.67838623 77.625 151.8125 C77.07328125 152.39708984 76.5215625 152.98167969 75.953125 153.58398438 C73.43954884 156.13001281 71.36494175 157.83416186 68.0859375 159.32421875 C63.04199821 158.79428589 60.46264708 155.50014867 57 152 C56.24460937 151.2575 55.48921875 150.515 54.7109375 149.75 C51.4667034 146.53788703 48.26877124 143.28111107 45.06640625 140.02734375 C40.69679023 135.61523552 36.27423017 131.38269641 31.51367188 127.39257812 C30 126 30 126 29 124 C29.2165625 122.22109375 29.2165625 122.22109375 29.4375 120.40625 C29.4887399 116.35829794 28.24447899 114.63442456 25.5 111.71875 C24.01992957 110.29153923 22.51906501 108.88563363 21 107.5 C20.236875 106.77296875 19.47375 106.0459375 18.6875 105.296875 C16.80846494 103.51179169 14.91343186 101.74804214 13 100 C12.4016333 100.30035156 11.8032666 100.60070312 11.18676758 100.91015625 C8.37163673 102.31316441 5.53412101 103.66198777 2.6875 105 C1.59824219 105.515625 0.50898438 106.03125 -0.61328125 106.5625 C-14.21659646 112.33645617 -29.1894079 112.42677622 -42.96972656 107.26171875 C-56.98424273 101.59413291 -68.62358021 92.00270259 -75 78 C-81.17380143 62.07598789 -82.44716255 45.65099811 -75.55859375 29.65234375 C-67.53595338 13.73736111 -54.95469262 2.78336567 -38.0625 -2.8125 C-25.44003714 -5.92783126 -11.95409152 -4.95897752 0 0 Z M-54.13671875 27.42578125 C-57.98349674 32.61127024 -60.43733782 37.74935129 -62 44 C-62.3403125 45.2684375 -62.3403125 45.2684375 -62.6875 46.5625 C-64.19436795 58.31607002 -61.26615655 69.59207242 -54 79 C-46.88128531 86.75967176 -37.93842351 92.55588265 -27.27734375 93.23828125 C-15.12336101 93.55110883 -5.67420493 92.05467588 3.93359375 83.9765625 C12.96525926 75.3375781 17.50414683 65.88542102 18.09375 53.37109375 C17.81952062 43.51026217 15.13260467 35.67700145 9 28 C8.38253906 27.16726563 7.76507813 26.33453125 7.12890625 25.4765625 C0.5535786 17.82746575 -9.22365363 13.68447943 -19.09375 12.6875 C-32.86896907 12.16272975 -44.94277145 16.98804583 -54.13671875 27.42578125 Z " fill="#EFAFFA" transform="translate(360,286)"/>
<path d="M0 0 C3.79334708 0.89045364 7.44437179 2.10218956 11.125 3.375 C12.17179932 3.73223145 13.21859863 4.08946289 14.29711914 4.45751953 C46.54470758 15.74599464 74.2880873 33.52215939 99 57 C99.53560547 57.50692383 100.07121094 58.01384766 100.62304688 58.53613281 C108.3788253 65.92763864 115.31428664 73.6673326 121.70898438 82.26464844 C122.55007113 83.39521664 123.39744514 84.52114296 124.25195312 85.64160156 C145.62275948 113.66750054 157.76678687 146.01102497 166 180 C166.34514648 179.26177002 166.69029297 178.52354004 167.04589844 177.76293945 C170.97060834 169.36842105 170.97060834 169.36842105 175 167 C178.92596294 166.50925463 181.0688869 166.36292261 184.375 168.625 C186.36175034 171.52871204 186.69838408 173.50453489 187 177 C186.24658203 179.58276367 186.24658203 179.58276367 185.0078125 182.16796875 C184.5540625 183.13524902 184.1003125 184.1025293 183.6328125 185.09912109 C183.13523437 186.11828613 182.63765625 187.13745117 182.125 188.1875 C181.37476563 189.766521 181.37476563 189.766521 180.609375 191.37744141 C179.58182187 193.53784577 178.54826775 195.69540591 177.50878906 197.85009766 C176.09720997 200.79705453 174.72403961 203.75799419 173.3671875 206.73046875 C172.57827397 208.44538104 171.78921973 210.16022861 171 211.875 C170.63922363 212.67059326 170.27844727 213.46618652 169.90673828 214.28588867 C168.24662767 217.83591697 167.32592545 219.78271637 164 222 C160.66906178 222.58781263 158.24290172 222.74128219 155.2578125 220.9609375 C148.47370012 215.28324688 142.62947464 208.31889542 136.67138672 201.79785156 C135.17792821 200.19139108 133.65359902 198.63150368 132.09765625 197.0859375 C125.47204187 190.32425205 125.47204187 190.32425205 125.1875 185.625 C126.08198489 181.63422127 126.60274562 180.23503578 130 178 C133.36429194 176.92628981 135.15090345 176.6516527 138.4375 178 C140.70426861 179.76918525 142.64227196 181.58587482 144.66015625 183.625 C145.28672119 184.25664062 145.91328613 184.88828125 146.55883789 185.5390625 C147.03442139 186.02117187 147.51000488 186.50328125 148 187 C138.55917566 130.85193946 107.23307231 81.48429134 61.00390625 48.4296875 C40.69792277 34.28074711 17.67964181 23.27615229 -6.328125 17.15234375 C-9.6714229 15.71042434 -11.02584087 14.02336259 -13 11 C-13.5625 8 -13.5625 8 -13 5 C-9.37613436 -0.20930686 -5.97781252 -0.70988067 0 0 Z " fill="#EFAFFA" transform="translate(318,33)"/>
<path d="M0 0 C0.82547333 0.38862717 1.65094666 0.77725433 2.50143433 1.17765808 C4.239542 1.99857332 5.97585238 2.82330348 7.71044922 3.65161133 C10.36004272 4.91456313 13.0173376 6.160102 15.67578125 7.40429688 C17.36767951 8.20599374 19.05910248 9.00869458 20.75 9.8125 C21.54173615 10.18244583 22.33347229 10.55239166 23.14920044 10.93354797 C27.12638444 12.84853145 30.46452835 14.55155386 33.2421875 18.10546875 C33.96503675 21.52257431 34.04052938 23.77986376 32.1953125 26.84375 C24.88669529 35.64046195 8.37098615 55.35280221 -3.1328125 56.41796875 C-6.7578125 56.10546875 -6.7578125 56.10546875 -9.1328125 54.54296875 C-11.41134307 51.12517289 -11.9647636 49.24449075 -11.7578125 45.10546875 C-9.76190904 42.08103564 -7.35658736 39.61688983 -4.7578125 37.10546875 C-3.75660331 36.1066794 -2.75640206 35.1068772 -1.7578125 34.10546875 C-56.52521963 43.31414783 -106.06922864 73.66369073 -138.7109375 118.7109375 C-153.55054863 139.77191714 -165.22619855 163.42431554 -171.60546875 188.43359375 C-173.04738816 191.77689165 -174.73444991 193.13130962 -177.7578125 195.10546875 C-180.7578125 195.66796875 -180.7578125 195.66796875 -183.7578125 195.10546875 C-186.6328125 193.10546875 -186.6328125 193.10546875 -188.7578125 190.10546875 C-189.44134061 183.16144454 -187.63935465 177.50578661 -185.3828125 170.98046875 C-185.02558105 169.93366943 -184.66834961 168.88687012 -184.30029297 167.80834961 C-173.01181786 135.56076117 -155.23565311 107.81738145 -131.7578125 83.10546875 C-131.25088867 82.56986328 -130.74396484 82.03425781 -130.22167969 81.48242188 C-122.83017386 73.72664345 -115.0904799 66.79118211 -106.49316406 60.39648438 C-105.36259586 59.55539762 -104.23666954 58.70802361 -103.11621094 57.85351562 C-75.09031196 36.48270927 -42.74678753 24.33868188 -8.7578125 16.10546875 C-9.49604248 15.76032227 -10.23427246 15.41517578 -10.99487305 15.05957031 C-19.38939145 11.13486041 -19.38939145 11.13486041 -21.7578125 7.10546875 C-22.26257636 3.06735784 -22.45149881 1.01443701 -19.9453125 -2.26953125 C-13.27331157 -7.2258748 -6.58705946 -3.14446503 0 0 Z " fill="#EFAFFA" transform="translate(221.7578125,11.89453125)"/>
<path d="M0 0 C10.15833013 6.02227625 25.76312603 22.52625207 31 33 C31.57089084 39.16562108 31.57089084 39.16562108 29.375 42.375 C26.43721938 44.38506043 24.5603504 44.92733979 21 45 C17.38871647 43.51844778 15.04481886 41.10844853 12.33984375 38.375 C11.71327881 37.74335938 11.08671387 37.11171875 10.44116211 36.4609375 C9.96557861 35.97882813 9.48999512 35.49671875 9 35 C18.20867908 89.76740713 48.55822198 139.31141614 93.60546875 171.953125 C114.66644839 186.79273613 138.31884679 198.46838605 163.328125 204.84765625 C166.6714229 206.28957566 168.02584087 207.97663741 170 211 C170.5625 214 170.5625 214 170 217 C168 219.875 168 219.875 165 222 C158.01008344 222.69742441 152.31429144 220.8405117 145.75 218.5625 C144.69659424 218.20196533 143.64318848 217.84143066 142.55786133 217.4699707 C100.563784 202.77821133 61.87849296 175.62058887 35.27490234 139.71923828 C34.0372902 138.05028678 32.77946181 136.39822447 31.51953125 134.74609375 C10.8067554 107.14414008 -0.94086575 75.2703294 -9 42 C-9.34514648 42.73822998 -9.69029297 43.47645996 -10.04589844 44.23706055 C-13.94374628 52.57412399 -13.94374628 52.57412399 -18 55 C-21.77762603 55.56262515 -23.48999479 55.29466967 -26.8125 53.375 C-29.53766186 50.41625284 -29.78609919 48.99526706 -30 45 C-29.12754064 42.35928342 -28.2182086 40.06778784 -27.02734375 37.58203125 C-26.70721817 36.88413986 -26.38709259 36.18624847 -26.05726624 35.46720886 C-25.03164541 33.24201717 -23.98459717 31.02765253 -22.9375 28.8125 C-22.25973541 27.34371301 -21.58329046 25.87431631 -20.90820312 24.40429688 C-9.08901952 -1.17277671 -9.08901952 -1.17277671 0 0 Z " fill="#EFAFFA" transform="translate(37,257)"/>
<path d="M0 0 C3.68069887 1.53643852 5.98775204 3.78150945 8.75 6.625 C9.94882812 7.85089844 9.94882812 7.85089844 11.171875 9.1015625 C11.77515625 9.72804688 12.3784375 10.35453125 13 11 C-10.78168015 37.24185396 -51.88444067 48.97835599 -85 57 C-84.26177002 57.34514648 -83.52354004 57.69029297 -82.76293945 58.04589844 C-74.42587601 61.94374628 -74.42587601 61.94374628 -72 66 C-71.43186498 69.81462086 -71.69217775 71.48696292 -73.6875 74.8125 C-76.31630696 77.29920929 -77.46568172 77.63714376 -81 78 C-83.13745117 77.47094727 -83.13745117 77.47094727 -85.35546875 76.50390625 C-86.22478027 76.1289502 -87.0940918 75.75399414 -87.98974609 75.36767578 C-88.98312988 74.91634277 -89.97651367 74.46500977 -91 74 C-92.16740723 73.4726123 -93.33481445 72.94522461 -94.53759766 72.40185547 C-97.80044873 70.91554809 -101.05071917 69.40345333 -104.29711914 67.8815918 C-106.32443612 66.93190861 -108.35444835 65.9881709 -110.38476562 65.04492188 C-111.6902683 64.43524717 -112.99561261 63.82523322 -114.30078125 63.21484375 C-115.46778564 62.66948975 -116.63479004 62.12413574 -117.8371582 61.56225586 C-125.64789093 57.70421813 -125.64789093 57.70421813 -127 55 C-127.525949 51.71281873 -127.71146418 49.2000924 -125.96484375 46.25390625 C-120.26927287 39.48040124 -113.32163078 33.63197386 -106.79785156 27.67138672 C-105.19139108 26.17792821 -103.63150368 24.65359902 -102.0859375 23.09765625 C-95.32425205 16.47204187 -95.32425205 16.47204187 -90.625 16.1875 C-86.63422127 17.08198489 -85.23503578 17.60274562 -83 21 C-81.92628981 24.36429194 -81.6516527 26.15090345 -83 29.4375 C-85.71985777 32.92231777 -88.79986784 35.95768258 -92 39 C-59.5287832 33.83000179 -29.91031902 20.68183565 -3 2 C-2.01 1.34 -1.02 0.68 0 0 Z " fill="#EFAFFA" transform="translate(384,427)"/>
<path d="M0 0 C2.875 2 2.875 2 5 5 C5.69742441 11.98991656 3.8405117 17.68570856 1.5625 24.25 C1.20196533 25.30340576 0.84143066 26.35681152 0.4699707 27.44213867 C-7.29562628 49.63887304 -18.17774425 69.99013221 -32 89 C-35.68069887 87.46356148 -37.98775204 85.21849055 -40.75 82.375 C-41.54921875 81.55773437 -42.3484375 80.74046875 -43.171875 79.8984375 C-43.77515625 79.27195312 -44.3784375 78.64546875 -45 78 C-43.54151361 73.88903317 -41.5051584 70.6043567 -39.0625 67 C-26.895336 48.45729218 -17.43615333 28.05574042 -12.08203125 6.49609375 C-9.764995 1.15101735 -5.6549866 -1.06030999 0 0 Z " fill="#EFAFFA" transform="translate(474,305)"/>
<path d="M0 0 C4.85450942 4.16100808 9.43770611 8.25537235 13.9375 12.75 C14.52595703 13.32621094 15.11441406 13.90242188 15.72070312 14.49609375 C17.18760223 15.95788171 18.59911788 17.47482909 20 19 C20 19.66 20 20.32 20 21 C13.4 21 6.8 21 0 21 C0 14.07 0 7.14 0 0 Z " fill="#EFAFFA" transform="translate(198,111)"/>
</svg>
