<?xml version="1.0" encoding="UTF-8"?>
<svg version="1.1" xmlns="http://www.w3.org/2000/svg" width="512" height="512">
<path d="M0 0 C1.34405262 -0.00302577 2.68810351 -0.00691738 4.0321514 -0.01159257 C7.70140305 -0.0218266 11.37055649 -0.01970255 15.03981602 -0.01541197 C19.00653506 -0.01293634 22.97323095 -0.0219693 26.93994141 -0.02944946 C34.70207334 -0.04217551 42.46417064 -0.04399275 50.22631124 -0.0416492 C56.53841762 -0.03986345 62.85051351 -0.04162118 69.16261864 -0.04587364 C70.0622781 -0.04646883 70.96193757 -0.04706402 71.88885945 -0.04767724 C73.7167516 -0.04888905 75.54464376 -0.05010318 77.37253591 -0.05131962 C94.50106933 -0.0621872 111.62958305 -0.06003644 128.75811758 -0.05393478 C144.41065142 -0.04876692 160.06312299 -0.06001898 175.71564452 -0.07903299 C191.80627633 -0.09842863 207.89687872 -0.10666433 223.9875223 -0.10290974 C233.01370365 -0.10100024 242.03983202 -0.10346074 251.0660038 -0.11762428 C258.75059024 -0.12956109 266.4350911 -0.13091728 274.11967877 -0.11883412 C278.03625477 -0.1129614 281.9526744 -0.11180119 285.86923981 -0.12383652 C289.46252523 -0.1347496 293.05552476 -0.1315283 296.64879712 -0.11757483 C298.54748437 -0.11370669 300.44618458 -0.12443056 302.3448413 -0.13587171 C316.27364429 -0.04898674 328.09895407 2.58360608 338.57121277 12.14350891 C349.95073036 24.25877117 350.86730164 38.29269775 350.8243866 54.06636047 C350.82120121 56.51960197 350.84484456 58.97166355 350.87004089 61.42475891 C350.8723121 63.00027824 350.87301821 64.57580078 350.87199402 66.15132141 C350.88580864 67.23899811 350.88580864 67.23899811 350.89990234 68.34864807 C350.85739402 73.04401348 350.17235057 76.36424957 347.50871277 80.26069641 C328.61954216 87.81636465 306.85297213 82.26069641 286.50871277 82.26069641 C286.50871277 123.84069641 286.50871277 165.42069641 286.50871277 208.26069641 C290.46871277 208.59069641 294.42871277 208.92069641 298.50871277 209.26069641 C307.73184562 211.4597304 314.11973948 216.83162095 320.65080261 223.40571594 C322.83215652 225.58363014 325.05495531 227.7154668 327.27824402 229.85054016 C328.98147072 231.50664975 330.68329013 233.16420786 332.38371277 234.82319641 C333.5971637 235.99132874 333.5971637 235.99132874 334.83512878 237.18305969 C344.00632558 246.26957587 350.0734301 256.10410076 350.63761902 269.26850891 C350.08917796 281.99898919 344.64057655 291.8578185 335.55857849 300.56013489 C332.4109211 303.17142058 328.93388529 305.14340107 325.42352295 307.22731018 C309.32581076 317.03670213 293.41188933 329.65390582 287.50871277 348.26069641 C280.01255982 382.34724777 283.8930688 420.94596844 285.82693481 455.54624939 C285.89108393 456.76456011 285.95523304 457.98287083 286.02132607 459.23810005 C286.14394216 461.50268687 286.28055224 463.76657889 286.43408775 466.02927971 C286.95754524 475.73065325 286.95754524 475.73065325 283.50871277 480.26069641 C279.87714382 482.08137213 276.91617002 482.51157778 272.88144016 482.515172 C271.75353174 482.5210042 270.62562331 482.52683639 269.46353585 482.53284532 C268.22930742 482.52906599 266.99507899 482.52528667 265.72344971 482.52139282 C263.75103582 482.52713114 263.75103582 482.52713114 261.73877519 482.53298539 C258.09031888 482.54328114 254.44196067 482.54107958 250.79349625 482.5368048 C246.85817979 482.53434044 242.92288713 482.54334809 238.98757935 482.55084229 C231.27858012 482.56359923 223.5696157 482.56538175 215.86060769 482.56304202 C209.59551834 482.56125988 203.33043957 482.56300627 197.06535149 482.56726646 C196.17409495 482.56786165 195.28283842 482.56845684 194.36457412 482.56907007 C192.55406217 482.5702818 190.74355023 482.57149594 188.93303829 482.57271244 C171.94971449 482.58359173 154.96641054 482.5814236 137.98308562 482.5753276 C122.44190227 482.5701576 106.90078158 482.58141537 91.35961062 482.60042582 C75.40590235 482.61979146 59.45222374 482.62806249 43.49850363 482.62430257 C34.54009943 482.62238865 25.58174858 482.62489666 16.62335396 482.63901711 C8.99736839 482.65091563 1.371469 482.65235298 -6.25451773 482.64022694 C-10.14588887 482.63432759 -14.03710224 482.63326786 -17.92846298 482.64522934 C-22.14544792 482.6580412 -26.36205546 482.64764892 -30.57904053 482.63491821 C-32.42703708 482.64597964 -32.42703708 482.64597964 -34.3123669 482.65726453 C-45.18042892 482.58798542 -45.18042892 482.58798542 -49.49128723 479.26069641 C-51.6659233 475.11921535 -51.74271253 471.50206792 -51.74576283 466.87259674 C-51.7489693 466.13459135 -51.75217578 465.39658595 -51.75547943 464.63621676 C-51.76380114 462.15561797 -51.75784754 459.67525925 -51.75198364 457.19465637 C-51.75500337 455.40119152 -51.75889194 453.60772796 -51.76357621 451.81426668 C-51.77388866 446.87955313 -51.7716661 441.94491197 -51.76739562 437.01019239 C-51.76493416 431.69027383 -51.77393551 426.37037295 -51.78143311 421.05046082 C-51.79419996 410.62395355 -51.79597119 400.19747201 -51.79363284 389.77095824 C-51.79185114 381.29435458 -51.79359617 372.81775874 -51.79785728 364.34115601 C-51.79845247 363.13552935 -51.79904766 361.9299027 -51.79966089 360.68774191 C-51.80087263 358.23857208 -51.80208676 355.78940226 -51.80330326 353.34023243 C-51.81418721 330.3554766 -51.81201273 307.37073542 -51.80591842 284.38597876 C-51.80075289 263.36591642 -51.81199358 242.34590048 -51.83101664 221.32584733 C-51.85039873 199.74351503 -51.8586501 178.16120468 -51.85489339 156.57886362 C-51.85298134 144.4618213 -51.85546889 132.34481843 -51.86960793 120.2277832 C-51.88152767 109.90804098 -51.8829202 99.58836247 -51.87081776 89.26861936 C-51.86493225 84.00529013 -51.86382051 78.7420774 -51.87582016 73.47875595 C-51.88669004 68.65476494 -51.88356234 63.83098753 -51.86955848 59.00700647 C-51.86691452 57.26736692 -51.86926856 55.52771058 -51.87729434 53.78808755 C-51.94454445 38.11594193 -50.65403098 24.29789288 -39.60847473 12.19819641 C-28.17412152 1.45823712 -15.07471731 -0.04630183 0 0 Z M-28.36628723 26.19819641 C-28.92058411 26.84659485 -29.47488098 27.49499329 -30.04597473 28.16304016 C-33.29744522 32.88206625 -33.74069612 36.89855752 -33.73738289 42.57578754 C-33.73969058 43.30586908 -33.74199827 44.03595061 -33.74437588 44.78815582 C-33.74968193 47.24168466 -33.74068681 49.69495254 -33.73179626 52.14846802 C-33.73266821 53.92232328 -33.73441898 55.69617829 -33.7369746 57.47003192 C-33.74145434 62.3500432 -33.73343582 67.22996698 -33.72341847 72.10996711 C-33.71479531 77.37032374 -33.71770333 82.63067528 -33.71922302 87.89103699 C-33.72027259 97.00683579 -33.71398846 106.12260599 -33.70274734 115.2383976 C-33.68650507 128.4183588 -33.68128564 141.59830616 -33.67877136 154.77827629 C-33.67439226 176.16101466 -33.66107732 197.5437378 -33.64216614 218.9264679 C-33.62381291 239.69990463 -33.6096766 260.47333721 -33.60115051 281.2467804 C-33.60061452 282.53994921 -33.60007852 283.83311802 -33.59952629 285.16547376 C-33.59536753 295.27864624 -33.59145365 305.39181881 -33.58761716 315.50499141 C-33.56874397 365.0902404 -33.52850873 414.67545124 -33.49128723 464.26069641 C66.16871277 464.26069641 165.82871277 464.26069641 268.50871277 464.26069641 C268.50871277 432.25069641 268.50871277 400.24069641 268.50871277 367.26069641 C262.69806024 372.22400997 262.69806024 372.22400997 257.24845886 377.47090149 C256.49011749 378.24222916 255.73177612 379.01355682 254.95045471 379.80825806 C253.75339401 381.03188301 253.75339401 381.03188301 252.53215027 382.28022766 C250.79172454 384.04305142 249.05082389 385.8054064 247.30949402 387.56733704 C244.59972611 390.31404076 241.89311842 393.06358324 239.19474792 395.82148743 C219.54956853 415.87856447 219.54956853 415.87856447 208.50871277 422.26069641 C207.28511047 422.98917786 207.28511047 422.98917786 206.03678894 423.7323761 C197.56458661 428.3732998 188.06743143 430.50467422 178.8034668 433.01727295 C171.18013148 435.09052385 163.58702907 437.20608068 156.05584526 439.59535408 C127.09768197 448.74082327 100.35786195 450.92108768 70.10905457 450.25953674 C65.64692877 450.17628813 61.18525382 450.15184984 56.72247028 450.12883663 C51.33455334 450.09894998 45.94709702 450.03968745 40.55949402 449.97554016 C39.55810205 449.96535292 38.55671009 449.95516567 37.52497292 449.94466972 C34.68867326 449.90970682 31.85355793 449.8541802 29.01774597 449.79170227 C27.78913597 449.7796022 27.78913597 449.7796022 26.53570557 449.76725769 C17.78592141 449.52698863 9.61820534 447.58145498 3.20793152 441.40522766 C-1.03863606 436.04576651 -2.89958132 429.87809782 -2.49128723 423.07319641 C-1.30026023 415.70517641 1.6208849 410.13909142 7.53215027 405.51069641 C14.07546527 401.37263159 20.80725256 401.03084243 28.50871277 400.26069641 C28.50871277 390.36069641 28.50871277 380.46069641 28.50871277 370.26069641 C20.83579734 370.0116452 20.83579734 370.0116452 13.16227722 369.78266907 C12.20023376 369.74705872 11.23819031 369.71144836 10.24699402 369.67475891 C9.26770935 369.64333801 8.28842468 369.61191711 7.27946472 369.57954407 C4.26527643 369.23268268 2.15339032 368.76209151 -0.49128723 367.26069641 C-2.51021508 363.3658318 -2.74404336 360.05997698 -2.75007629 355.71382141 C-2.75638062 354.4089679 -2.76268494 353.10411438 -2.7691803 351.75971985 C-2.76560029 350.34337732 -2.76149828 348.92703604 -2.75691223 347.51069641 C-2.75826051 346.05008378 -2.7602024 344.58947158 -2.76271057 343.12886047 C-2.76565417 340.07250177 -2.76138886 337.01626022 -2.75202942 333.95991516 C-2.74063526 330.04927748 -2.74719884 326.13891436 -2.75917435 322.22828674 C-2.76641364 319.21363774 -2.76409553 316.19905345 -2.75891876 313.18440247 C-2.75758799 311.74275174 -2.75920989 310.30109507 -2.76387787 308.85945129 C-2.76897686 306.8421592 -2.75982264 304.82484641 -2.75007629 302.80757141 C-2.74768951 301.08812317 -2.74768951 301.08812317 -2.74525452 299.3339386 C-2.48733078 296.21281965 -1.92868331 294.03368462 -0.49128723 291.26069641 C3.0253722 289.26427336 6.25221026 288.97480879 10.24699402 288.84663391 C11.20903748 288.81102356 12.17108093 288.77541321 13.16227722 288.73872375 C14.36972595 288.70472473 15.57717468 288.67072571 16.82121277 288.63569641 C20.67808777 288.51194641 24.53496277 288.38819641 28.50871277 288.26069641 C28.50871277 278.36069641 28.50871277 268.46069641 28.50871277 258.26069641 C20.83579734 258.0116452 20.83579734 258.0116452 13.16227722 257.78266907 C12.20023376 257.74705872 11.23819031 257.71144836 10.24699402 257.67475891 C9.26770935 257.64333801 8.28842468 257.61191711 7.27946472 257.57954407 C4.26527643 257.23268268 2.15339032 256.76209151 -0.49128723 255.26069641 C-2.51021508 251.3658318 -2.74404336 248.05997698 -2.75007629 243.71382141 C-2.75638062 242.4089679 -2.76268494 241.10411438 -2.7691803 239.75971985 C-2.76560029 238.34337732 -2.76149828 236.92703604 -2.75691223 235.51069641 C-2.75826051 234.05008378 -2.7602024 232.58947158 -2.76271057 231.12886047 C-2.76565417 228.07250177 -2.76138886 225.01626022 -2.75202942 221.95991516 C-2.74063526 218.04927748 -2.74719884 214.13891436 -2.75917435 210.22828674 C-2.76641364 207.21363774 -2.76409553 204.19905345 -2.75891876 201.18440247 C-2.75758799 199.74275174 -2.75920989 198.30109507 -2.76387787 196.85945129 C-2.76897686 194.8421592 -2.75982264 192.82484641 -2.75007629 190.80757141 C-2.74768951 189.08812317 -2.74768951 189.08812317 -2.74525452 187.3339386 C-2.48733078 184.21281965 -1.92868331 182.03368462 -0.49128723 179.26069641 C3.0253722 177.26427336 6.25221026 176.97480879 10.24699402 176.84663391 C11.6900592 176.79321838 11.6900592 176.79321838 13.16227722 176.73872375 C14.36972595 176.70472473 15.57717468 176.67072571 16.82121277 176.63569641 C20.67808777 176.51194641 24.53496277 176.38819641 28.50871277 176.26069641 C28.50871277 166.36069641 28.50871277 156.46069641 28.50871277 146.26069641 C20.83579734 146.0116452 20.83579734 146.0116452 13.16227722 145.78266907 C12.20023376 145.74705872 11.23819031 145.71144836 10.24699402 145.67475891 C8.77806702 145.62762756 8.77806702 145.62762756 7.27946472 145.57954407 C4.26527643 145.23268268 2.15339032 144.76209151 -0.49128723 143.26069641 C-2.51021508 139.3658318 -2.74404336 136.05997698 -2.75007629 131.71382141 C-2.75638062 130.4089679 -2.76268494 129.10411438 -2.7691803 127.75971985 C-2.76560029 126.34337732 -2.76149828 124.92703604 -2.75691223 123.51069641 C-2.75826051 122.05008378 -2.7602024 120.58947158 -2.76271057 119.12886047 C-2.76565417 116.07250177 -2.76138886 113.01626022 -2.75202942 109.95991516 C-2.74063526 106.04927748 -2.74719884 102.13891436 -2.75917435 98.22828674 C-2.76641364 95.21363774 -2.76409553 92.19905345 -2.75891876 89.18440247 C-2.75758799 87.74275174 -2.75920989 86.30109507 -2.76387787 84.85945129 C-2.76897686 82.8421592 -2.75982264 80.82484641 -2.75007629 78.80757141 C-2.74768951 77.08812317 -2.74768951 77.08812317 -2.74525452 75.3339386 C-2.48132904 72.14019296 -2.110763 70.02887986 -0.49128723 67.26069641 C3.27514056 65.05721581 6.7580311 65.00787282 11.05558777 65.00190735 C13.01286804 64.99245087 13.01286804 64.99245087 15.00968933 64.98280334 C16.42603186 64.98638335 17.84237314 64.99048537 19.25871277 64.99507141 C20.7193254 64.99372313 22.1799376 64.99178124 23.64054871 64.98927307 C26.69690741 64.98632947 29.75314896 64.99059478 32.80949402 64.99995422 C36.7201317 65.01134838 40.63049482 65.00478481 44.54112244 64.9928093 C47.55577144 64.98557001 50.57035573 64.98788811 53.58500671 64.99306488 C55.02665744 64.99439566 56.4683141 64.99277375 57.90995789 64.98810577 C59.92724998 64.98300678 61.94456277 64.99216101 63.96183777 65.00190735 C65.68128601 65.00429413 65.68128601 65.00429413 67.43547058 65.00672913 C70.62921622 65.2706546 72.74052932 65.64122064 75.50871277 67.26069641 C77.71219337 71.0271242 77.76153636 74.51001474 77.76750183 78.80757141 C77.77380615 80.11242493 77.78011047 81.41727844 77.78660583 82.76167297 C77.78302583 84.1780155 77.77892381 85.59435679 77.77433777 87.01069641 C77.77568605 88.47130905 77.77762794 89.93192124 77.78013611 91.39253235 C77.78307971 94.44889106 77.7788144 97.50513261 77.76945496 100.56147766 C77.7580608 104.47211534 77.76462437 108.38247846 77.77659988 112.29310608 C77.78383917 115.30775508 77.78152107 118.32233937 77.7763443 121.33699036 C77.77501352 122.77864108 77.77663543 124.22029775 77.78130341 125.66194153 C77.78640239 127.67923362 77.77724817 129.69654642 77.76750183 131.71382141 C77.76591064 132.86012024 77.76431946 134.00641907 77.76268005 135.18745422 C77.50475632 138.30857317 76.94610885 140.4877082 75.50871277 143.26069641 C71.99205333 145.25711947 68.76521528 145.54658403 64.77043152 145.67475891 C63.80838806 145.71036926 62.8463446 145.74597961 61.85514832 145.78266907 C60.04397522 145.8336676 60.04397522 145.8336676 58.19621277 145.88569641 C54.33933777 146.00944641 50.48246277 146.13319641 46.50871277 146.26069641 C46.50871277 156.16069641 46.50871277 166.06069641 46.50871277 176.26069641 C54.1816282 176.50974762 54.1816282 176.50974762 61.85514832 176.73872375 C62.81719177 176.77433411 63.77923523 176.80994446 64.77043152 176.84663391 C65.74971619 176.87805481 66.72900085 176.90947571 67.73796082 176.94184875 C70.75214911 177.28871014 72.86403521 177.75930131 75.50871277 179.26069641 C77.50513582 182.77735585 77.79460039 186.0041939 77.92277527 189.99897766 C77.9761908 191.44204285 77.9761908 191.44204285 78.03068542 192.91426086 C78.06468445 194.12170959 78.09868347 195.32915833 78.13371277 196.57319641 C78.25746277 200.43007141 78.38121277 204.28694641 78.50871277 208.26069641 C88.40871277 208.26069641 98.30871277 208.26069641 108.50871277 208.26069641 C108.75776398 200.58778098 108.75776398 200.58778098 108.98674011 192.91426086 C109.02235046 191.95221741 109.05796082 190.99017395 109.09465027 189.99897766 C109.12607117 189.01969299 109.15749207 188.04040833 109.18986511 187.03144836 C109.5367265 184.01726007 110.00731767 181.90537397 111.50871277 179.26069641 C115.40357738 177.24176856 118.7094322 177.00794028 123.05558777 177.00190735 C125.01286804 176.99245087 125.01286804 176.99245087 127.00968933 176.98280334 C128.42603186 176.98638335 129.84237314 176.99048537 131.25871277 176.99507141 C132.7193254 176.99372313 134.1799376 176.99178124 135.64054871 176.98927307 C138.69690741 176.98632947 141.75314896 176.99059478 144.80949402 176.99995422 C148.7201317 177.01134838 152.63049482 177.00478481 156.54112244 176.9928093 C159.55577144 176.98557001 162.57035573 176.98788811 165.58500671 176.99306488 C167.02665744 176.99439566 168.4683141 176.99277375 169.90995789 176.98810577 C171.92724998 176.98300678 173.94456277 176.99216101 175.96183777 177.00190735 C177.68128601 177.00429413 177.68128601 177.00429413 179.43547058 177.00672913 C182.62921622 177.2706546 184.74052932 177.64122064 187.50871277 179.26069641 C189.71219337 183.0271242 189.76153636 186.51001474 189.76750183 190.80757141 C189.77380615 192.11242493 189.78011047 193.41727844 189.78660583 194.76167297 C189.78302583 196.1780155 189.77892381 197.59435679 189.77433777 199.01069641 C189.77568605 200.47130905 189.77762794 201.93192124 189.78013611 203.39253235 C189.78307971 206.44889106 189.7788144 209.50513261 189.76945496 212.56147766 C189.7580608 216.47211534 189.76462437 220.38247846 189.77659988 224.29310608 C189.78383917 227.30775508 189.78152107 230.32233937 189.7763443 233.33699036 C189.77501352 234.77864108 189.77663543 236.22029775 189.78130341 237.66194153 C189.78640239 239.67923362 189.77724817 241.69654642 189.76750183 243.71382141 C189.76591064 244.86012024 189.76431946 246.00641907 189.76268005 247.18745422 C189.49875458 250.38119986 189.12818854 252.49251296 187.50871277 255.26069641 C183.74228498 257.46417701 180.25939444 257.51352 175.96183777 257.51948547 C174.0045575 257.52894196 174.0045575 257.52894196 172.00773621 257.53858948 C170.59139368 257.53500947 169.17505239 257.53090746 167.75871277 257.52632141 C166.29810013 257.52766969 164.83748794 257.52961158 163.37687683 257.53211975 C160.32051812 257.53506335 157.26427657 257.53079804 154.20793152 257.5214386 C150.29729384 257.51004444 146.38693072 257.51660802 142.4763031 257.52858353 C139.4616541 257.53582282 136.44706981 257.53350471 133.43241882 257.52832794 C131.9907681 257.52699717 130.54911143 257.52861907 129.10746765 257.53328705 C127.09017556 257.53838604 125.07286276 257.52923182 123.05558777 257.51948547 C121.90928894 257.51789429 120.76299011 257.5163031 119.58195496 257.5146637 C116.46083601 257.25673996 114.28170098 256.69809249 111.50871277 255.26069641 C109.51228971 251.74403698 109.22282515 248.51719892 109.09465027 244.52241516 C109.04123474 243.07934998 109.04123474 243.07934998 108.98674011 241.60713196 C108.95274109 240.39968323 108.91874207 239.1922345 108.88371277 237.94819641 C108.75996277 234.09132141 108.63621277 230.23444641 108.50871277 226.26069641 C98.60871277 226.26069641 88.70871277 226.26069641 78.50871277 226.26069641 C78.25966156 233.93361184 78.25966156 233.93361184 78.03068542 241.60713196 C77.99507507 242.56917542 77.95946472 243.53121887 77.92277527 244.52241516 C77.87564392 245.99134216 77.87564392 245.99134216 77.82756042 247.48994446 C77.48069904 250.50413275 77.01010787 252.61601886 75.50871277 255.26069641 C71.99205333 257.25711947 68.76521528 257.54658403 64.77043152 257.67475891 C63.80838806 257.71036926 62.8463446 257.74597961 61.85514832 257.78266907 C60.04397522 257.8336676 60.04397522 257.8336676 58.19621277 257.88569641 C54.33933777 258.00944641 50.48246277 258.13319641 46.50871277 258.26069641 C46.50871277 268.16069641 46.50871277 278.06069641 46.50871277 288.26069641 C54.1816282 288.50974762 54.1816282 288.50974762 61.85514832 288.73872375 C62.81719177 288.77433411 63.77923523 288.80994446 64.77043152 288.84663391 C65.74971619 288.87805481 66.72900085 288.90947571 67.73796082 288.94184875 C70.75214911 289.28871014 72.86403521 289.75930131 75.50871277 291.26069641 C77.52764062 295.15556103 77.7614689 298.46141584 77.76750183 302.80757141 C77.77380615 304.11242493 77.78011047 305.41727844 77.78660583 306.76167297 C77.78302583 308.1780155 77.77892381 309.59435679 77.77433777 311.01069641 C77.77568605 312.47130905 77.77762794 313.93192124 77.78013611 315.39253235 C77.78307971 318.44889106 77.7788144 321.50513261 77.76945496 324.56147766 C77.7580608 328.47211534 77.76462437 332.38247846 77.77659988 336.29310608 C77.78383917 339.30775508 77.78152107 342.32233937 77.7763443 345.33699036 C77.77501352 346.77864108 77.77663543 348.22029775 77.78130341 349.66194153 C77.78640239 351.67923362 77.77724817 353.69654642 77.76750183 355.71382141 C77.76591064 356.86012024 77.76431946 358.00641907 77.76268005 359.18745422 C77.50475632 362.30857317 76.94610885 364.4877082 75.50871277 367.26069641 C71.99205333 369.25711947 68.76521528 369.54658403 64.77043152 369.67475891 C63.7037323 369.71343079 62.63703308 369.75210266 61.53800964 369.79194641 C59.88382019 369.83835266 59.88382019 369.83835266 58.19621277 369.88569641 C57.07408386 369.92436829 55.95195496 369.96304016 54.79582214 370.00288391 C52.03361425 370.09691652 49.27140877 370.18256982 46.50871277 370.26069641 C46.48889343 371.44623108 46.4690741 372.63176575 46.44865417 373.85322571 C46.37245488 378.26099008 46.28375954 382.66843051 46.19132996 387.07588196 C46.15309937 388.98174127 46.11823622 390.88767128 46.08683777 392.7936554 C46.04105855 395.53683194 45.98308547 398.27952429 45.92277527 401.02241516 C45.91122406 401.87155991 45.89967285 402.72070465 45.88777161 403.59558105 C45.78171027 407.86827248 45.61366483 411.42351987 43.50871277 415.26069641 C38.46980266 418.51478709 31.51839932 417.61805284 25.72550964 417.65132141 C20.47615037 417.73650265 20.47615037 417.73650265 15.91886902 420.11225891 C13.97854095 423.06843741 13.93079059 424.79316331 14.50871277 428.26069641 C16.14570805 430.66624238 17.43654614 432.05396459 20.36148834 432.61794281 C22.75020382 432.75489114 25.10753671 432.75502675 27.49992371 432.71479797 C28.40758987 432.71538208 29.31525604 432.71596619 30.25042725 432.71656799 C33.24837077 432.7137829 36.24531809 432.68267061 39.24308777 432.65132141 C41.32244829 432.64386054 43.40181585 432.63816688 45.48118591 432.63417053 C50.9525343 432.61890216 56.42345757 432.57960967 61.89463806 432.53535461 C67.47817738 432.49442804 73.06178542 432.47616508 78.64543152 432.45600891 C89.60004533 432.41311684 100.55434369 432.3448507 111.50871277 432.26069641 C111.83031624 431.0637188 111.83031624 431.0637188 112.15841675 429.84255981 C114.19544626 422.26590348 116.23924529 414.69111154 118.29037762 407.11826038 C119.34426306 403.22636279 120.39565831 399.33383033 121.44108582 395.43965149 C122.4529706 391.6708031 123.47175741 387.90387925 124.49505043 384.13811302 C124.88130632 382.71210332 125.26520822 381.28545352 125.64653587 379.85811806 C132.69698137 353.49041052 145.00236523 337.59745309 163.9752655 318.66474915 C165.07403748 317.56461743 166.17259765 316.46427413 167.27096558 315.36373901 C170.21445856 312.41574412 173.16103645 309.47085192 176.10837817 306.5267055 C179.20696059 303.43067943 182.30307472 300.33218646 185.39959717 297.23410034 C190.58806527 292.0438222 195.7786179 286.85563575 200.97038269 281.6686554 C206.96806852 275.67643295 212.96211264 269.68058574 218.95432323 263.68288845 C224.11705508 258.51561953 229.28173172 253.35030051 234.4480415 248.18660885 C237.52641912 245.10978777 240.60412277 242.0323007 243.68006706 238.9530468 C246.56463818 236.06558756 249.4516436 233.18058458 252.34054756 230.29746056 C253.3991979 229.24013176 254.4569995 228.18195236 255.5138855 227.12285995 C256.95686331 225.67714749 258.40322952 224.23481938 259.84976196 222.79266357 C261.06169047 221.58130061 261.06169047 221.58130061 262.29810238 220.34546566 C264.50871277 218.26069641 264.50871277 218.26069641 266.76830196 216.91576576 C268.82474623 215.29454222 268.82474623 215.29454222 269.01093483 212.15521145 C269.01202436 210.86570615 269.0131139 209.57620085 269.01423645 208.24761963 C269.02337163 207.17017505 269.02337163 207.17017505 269.03269136 206.07096392 C269.04834232 203.65723771 269.03548306 201.24449665 269.02287292 198.83076477 C269.02833165 197.10272089 269.03557184 195.37468185 269.04446411 193.64665222 C269.05982754 189.92084474 269.06259218 186.19531274 269.05569839 182.46948051 C269.04492586 176.57291759 269.06227978 170.676643 269.08351135 164.78012085 C269.1138075 155.44584675 269.12546873 146.11165774 269.12908781 136.77733856 C269.13572283 120.08431609 269.16484106 103.39135352 269.21418417 86.69840342 C269.23064157 80.84294419 269.23610644 74.9876087 269.23259377 69.1321286 C269.23215494 65.47804862 269.23974849 61.82401482 269.24926949 58.16994858 C269.25193945 56.48257573 269.25122251 54.79519338 269.24675941 53.10782433 C269.21712534 41.06517903 269.73576679 31.03686224 275.50871277 20.26069641 C275.50871277 19.60069641 275.50871277 18.94069641 275.50871277 18.26069641 C238.44583707 18.16913528 201.3829784 18.09865484 164.32001248 18.05643509 C159.94411031 18.05143228 155.56820836 18.04625499 151.19230652 18.04096985 C150.32114549 18.03992061 149.44998446 18.03887137 148.55242461 18.03779033 C134.44783376 18.02038644 120.34330815 17.98884884 106.238756 17.95208523 C91.76552262 17.91467535 77.29232339 17.89246046 62.81904364 17.88434243 C53.88867397 17.87885475 44.95848868 17.86152419 36.02817577 17.82903054 C29.90381162 17.80788208 23.77954276 17.80149711 17.65514475 17.8066909 C14.1219623 17.80925218 10.589102 17.80533388 7.05597687 17.78387451 C3.22259851 17.7607619 -0.61036149 17.7687534 -4.44380188 17.77967834 C-6.11308314 17.7622013 -6.11308314 17.7622013 -7.81608725 17.74437118 C-16.19921082 17.80899814 -22.77181834 19.43932849 -28.36628723 26.19819641 Z M289.95402527 28.16304016 C286.80607345 32.73182429 286.2649525 36.59390617 286.31340027 42.09272766 C286.31839539 43.25779846 286.3233905 44.42286926 286.32853699 45.62324524 C286.346745 47.09172913 286.364953 48.56021301 286.38371277 50.07319641 C286.42496277 54.75507141 286.46621277 59.43694641 286.50871277 64.26069641 C301.68871277 64.26069641 316.86871277 64.26069641 332.50871277 64.26069641 C332.59121277 59.64069641 332.67371277 55.02069641 332.75871277 50.26069641 C332.81333679 48.0989386 332.81333679 48.0989386 332.86906433 45.89350891 C332.9436274 37.25381429 332.38281304 31.68163787 326.54386902 25.01850891 C325.56740417 24.21026672 325.56740417 24.21026672 324.57121277 23.38569641 C323.92281433 22.83139954 323.27441589 22.27710266 322.60636902 21.70600891 C310.91464481 13.65025852 298.34840158 18.34357206 289.95402527 28.16304016 Z M14.50871277 82.26069641 C14.50871277 97.44069641 14.50871277 112.62069641 14.50871277 128.26069641 C29.68871277 128.26069641 44.86871277 128.26069641 60.50871277 128.26069641 C60.50871277 113.08069641 60.50871277 97.90069641 60.50871277 82.26069641 C45.32871277 82.26069641 30.14871277 82.26069641 14.50871277 82.26069641 Z M14.50871277 194.26069641 C14.50871277 209.44069641 14.50871277 224.62069641 14.50871277 240.26069641 C29.68871277 240.26069641 44.86871277 240.26069641 60.50871277 240.26069641 C60.50871277 225.08069641 60.50871277 209.90069641 60.50871277 194.26069641 C45.32871277 194.26069641 30.14871277 194.26069641 14.50871277 194.26069641 Z M126.50871277 194.26069641 C126.50871277 209.44069641 126.50871277 224.62069641 126.50871277 240.26069641 C141.68871277 240.26069641 156.86871277 240.26069641 172.50871277 240.26069641 C172.50871277 225.08069641 172.50871277 209.90069641 172.50871277 194.26069641 C157.32871277 194.26069641 142.14871277 194.26069641 126.50871277 194.26069641 Z M275.50871277 231.26069641 C275.09398749 235.23711481 275.09398749 235.23711481 277.36894226 237.60194397 C278.239422 238.46354126 279.10990173 239.32513855 280.00675964 240.21284485 C280.4846846 240.69135391 280.96260956 241.16986298 281.45501709 241.66287231 C283.03653568 243.24160495 284.63174765 244.80570015 286.22746277 246.37007141 C287.32692407 247.46207216 288.42550533 248.55495961 289.52323914 249.6486969 C292.41450302 252.52468996 295.31757731 255.38846952 298.22325134 258.24989319 C301.18629082 261.17201146 304.13803586 264.10548931 307.09074402 267.03804016 C312.88572223 272.79012191 318.69322296 278.52935356 324.50871277 284.26069641 C328.06547159 282.69153811 329.8947069 281.03453629 331.73918152 277.51460266 C333.82968581 271.39165355 333.59575927 265.49381456 330.78215027 259.71382141 C326.77567547 253.72514338 321.4535707 248.75947941 316.35270691 243.71357727 C314.56840245 241.94541151 312.80076946 240.16170124 311.03410339 238.37593079 C309.89248638 237.23629531 308.74993958 236.09759033 307.60636902 234.95991516 C307.08430374 234.43177719 306.56223846 233.90363922 306.02435303 233.35949707 C301.10493665 228.53239256 296.58480452 225.83444805 289.63371277 225.76069641 C284.12349991 225.8981082 279.30872652 227.01362221 275.50871277 231.26069641 Z M260.50871277 246.26069641 C259.84871277 247.58069641 259.18871277 248.90069641 258.50871277 250.26069641 C275.00871277 266.76069641 291.50871277 283.26069641 308.50871277 300.26069641 C309.82871277 299.60069641 311.14871277 298.94069641 312.50871277 298.26069641 C310.959977 294.5731608 308.71833801 292.21684357 305.90715027 289.40034485 C305.44189941 288.93158936 304.97664856 288.46283386 304.49729919 287.97987366 C302.96441639 286.43821709 301.42436835 284.90395737 299.88371277 283.37007141 C298.81489774 282.29990894 297.74637974 281.22944974 296.67814636 280.15870667 C294.44196359 277.91957892 292.20221184 275.68410011 289.95988464 273.4511261 C287.08119581 270.58385902 284.21161493 267.70767026 281.34461975 264.82871628 C279.14183006 262.61871462 276.93431776 260.41348008 274.72532654 258.20967865 C273.6648715 257.15056051 272.60590768 256.08994715 271.54844666 255.02783966 C270.07383025 253.54816592 268.59299339 252.07501896 267.11027527 250.60346985 C266.26803406 249.76281982 265.42579285 248.9221698 264.55802917 248.05604553 C262.7120728 246.04104266 262.7120728 246.04104266 260.50871277 246.26069641 Z M243.0444622 263.47885132 C242.47110697 264.05405014 241.89775173 264.62924896 241.30702209 265.22187805 C240.64796875 265.87818207 239.98891541 266.53448608 239.30989075 267.2106781 C238.58772369 267.94003571 237.86555664 268.66939331 237.12150574 269.42085266 C236.36043518 270.18163116 235.59936462 270.94240967 234.81523132 271.72624207 C232.28902117 274.25385078 229.7699776 276.78848048 227.25090027 279.32319641 C225.50541475 281.07241019 223.75948851 282.82118428 222.01313782 284.5695343 C217.4088505 289.18147283 212.81059953 293.79938507 208.21354675 298.41853333 C203.52571452 303.1278652 198.83116703 307.83049994 194.13761902 312.53413391 C184.92243224 321.77079683 175.71341494 331.01358573 166.50871277 340.26069641 C168.06066031 343.58829564 169.81493225 345.74650126 172.50871277 348.26069641 C175.48964286 346.92041684 177.57216592 345.44537753 179.87498474 343.13493347 C180.51995911 342.49270844 181.16493347 341.8504834 181.82945251 341.188797 C182.52572754 340.48533142 183.22200256 339.78186584 183.93937683 339.05708313 C184.6812323 338.31551971 185.42308777 337.5739563 186.18742371 336.80992126 C188.63783216 334.35811971 191.08108076 331.89931036 193.52433777 329.44038391 C195.22212333 327.73886816 196.92035106 326.03779349 198.6190033 324.33714294 C203.08846193 319.86004835 207.5518819 315.37698003 212.01408386 310.89265442 C216.56856744 306.31771172 221.12871844 301.74842593 225.68840027 297.17866516 C234.63406969 288.21154646 243.57356567 279.23829933 252.50871277 270.26069641 C250.94493778 266.93767455 249.29518126 264.69885634 246.50871277 262.26069641 C244.44751107 262.04751381 244.44751107 262.04751381 243.0444622 263.47885132 Z M263.0444622 283.47885132 C262.47110697 284.05405014 261.89775173 284.62924896 261.30702209 285.22187805 C260.64796875 285.87818207 259.98891541 286.53448608 259.30989075 287.2106781 C258.58772369 287.94003571 257.86555664 288.66939331 257.12150574 289.42085266 C256.36043518 290.18163116 255.59936462 290.94240967 254.81523132 291.72624207 C252.28902117 294.25385078 249.7699776 296.78848048 247.25090027 299.32319641 C245.50541475 301.07241019 243.75948851 302.82118428 242.01313782 304.5695343 C237.4088505 309.18147283 232.81059953 313.79938507 228.21354675 318.41853333 C223.52571452 323.1278652 218.83116703 327.83049994 214.13761902 332.53413391 C204.92243224 341.77079683 195.71341494 351.01358573 186.50871277 360.26069641 C188.11406564 363.67129044 189.91390177 365.87862126 192.63371277 368.51069641 C193.72039246 369.57030579 193.72039246 369.57030579 194.82902527 370.65132141 C195.38332214 371.18241516 195.93761902 371.71350891 196.50871277 372.26069641 C199.48964286 370.92041684 201.57216592 369.44537753 203.87498474 367.13493347 C204.51995911 366.49270844 205.16493347 365.8504834 205.82945251 365.188797 C206.52572754 364.48533142 207.22200256 363.78186584 207.93937683 363.05708313 C208.6812323 362.31551971 209.42308777 361.5739563 210.18742371 360.80992126 C212.63783216 358.35811971 215.08108076 355.89931036 217.52433777 353.44038391 C219.22212333 351.73886816 220.92035106 350.03779349 222.6190033 348.33714294 C227.08846193 343.86004835 231.5518819 339.37698003 236.01408386 334.89265442 C240.56856744 330.31771172 245.12871844 325.74842593 249.68840027 321.17866516 C258.63406969 312.21154646 267.57356567 303.23829933 276.50871277 294.26069641 C274.91963 290.90147389 273.15739847 288.63990648 270.50871277 286.01069641 C269.80746277 285.30429016 269.10621277 284.59788391 268.38371277 283.87007141 C266.14172376 281.94569752 265.36728734 281.54642192 263.0444622 283.47885132 Z M14.50871277 306.26069641 C14.50871277 321.44069641 14.50871277 336.62069641 14.50871277 352.26069641 C29.68871277 352.26069641 44.86871277 352.26069641 60.50871277 352.26069641 C60.50871277 337.08069641 60.50871277 321.90069641 60.50871277 306.26069641 C45.32871277 306.26069641 30.14871277 306.26069641 14.50871277 306.26069641 Z M287.0444622 307.47885132 C286.47110697 308.05405014 285.89775173 308.62924896 285.30702209 309.22187805 C284.64796875 309.87818207 283.98891541 310.53448608 283.30989075 311.2106781 C282.58772369 311.94003571 281.86555664 312.66939331 281.12150574 313.42085266 C280.36043518 314.18163116 279.59936462 314.94240967 278.81523132 315.72624207 C276.28902117 318.25385078 273.7699776 320.78848048 271.25090027 323.32319641 C269.50541475 325.07241019 267.75948851 326.82118428 266.01313782 328.5695343 C261.4088505 333.18147283 256.81059953 337.79938507 252.21354675 342.41853333 C247.52571452 347.1278652 242.83116703 351.83049994 238.13761902 356.53413391 C228.92243224 365.77079683 219.71341494 375.01358573 210.50871277 384.26069641 C212.06066031 387.58829564 213.81493225 389.74650126 216.50871277 392.26069641 C219.48964286 390.92041684 221.57216592 389.44537753 223.87498474 387.13493347 C224.51995911 386.49270844 225.16493347 385.8504834 225.82945251 385.188797 C226.52572754 384.48533142 227.22200256 383.78186584 227.93937683 383.05708313 C228.6812323 382.31551971 229.42308777 381.5739563 230.18742371 380.80992126 C232.63783216 378.35811971 235.08108076 375.89931036 237.52433777 373.44038391 C239.22212333 371.73886816 240.92035106 370.03779349 242.6190033 368.33714294 C247.08846193 363.86004835 251.5518819 359.37698003 256.01408386 354.89265442 C260.56856744 350.31771172 265.12871844 345.74842593 269.68840027 341.17866516 C278.63406969 332.21154646 287.57356567 323.23829933 296.50871277 314.26069641 C294.94493778 310.93767455 293.29518126 308.69885634 290.50871277 306.26069641 C288.44751107 306.04751381 288.44751107 306.04751381 287.0444622 307.47885132 Z M153.50871277 354.26069641 C148.64231494 360.28425072 146.32279176 367.2696629 144.13371277 374.57319641 C143.87114685 375.44492493 143.60858093 376.31665344 143.33805847 377.21479797 C141.49457276 383.15373032 141.49457276 383.15373032 141.50871277 389.26069641 C143.37309091 391.68290669 145.1809279 393.75240882 147.31730652 395.90913391 C147.91745071 396.5259201 148.51759491 397.1427063 149.13592529 397.77818298 C150.40970136 399.07725304 151.69033166 400.36963258 152.97721863 401.65571594 C154.93501377 403.62443493 156.84936852 405.62953818 158.76457214 407.63960266 C160.00885081 408.89855525 161.2555225 410.15514809 162.50480652 411.40913391 C163.07082077 412.01107574 163.63683502 412.61301758 164.22000122 413.23320007 C166.66396421 415.61001578 168.30952581 417.16657518 171.78875732 417.43965149 C174.09808824 417.21002297 176.2572599 416.81709235 178.50871277 416.26069641 C179.34926208 416.0676593 180.1898114 415.87462219 181.05583191 415.67573547 C183.23171515 414.96495942 185.40509105 414.25080357 187.57121277 413.51069641 C188.32209167 413.27093079 189.07297058 413.03116516 189.84660339 412.78413391 C195.25854228 410.96923997 199.78153523 408.43372964 204.50871277 405.26069641 C199.44729333 399.14653519 193.94920502 393.55612999 188.33293152 387.95210266 C187.35726585 386.97576218 186.38174857 385.9992734 185.40637207 385.02264404 C183.37659275 382.99140029 181.34504023 380.96195192 179.31217957 378.93379211 C176.70152228 376.32887727 174.09544184 373.71943652 171.49063396 371.10867405 C169.48423141 369.09867071 167.47546923 367.09103925 165.46596718 365.08413506 C164.50312132 364.12195746 163.54102099 363.15903323 162.57967186 362.19536018 C161.2442218 360.85738668 159.90524597 359.52293504 158.56608582 358.18867493 C157.80474838 357.42813309 157.04341095 356.66759125 156.25900269 355.88400269 C154.78437588 354.14736151 154.78437588 354.14736151 153.50871277 354.26069641 Z M135.50871277 408.26069641 C134.66831391 410.84192149 133.8362072 413.42533542 133.00871277 416.01069641 C132.77023621 416.74030579 132.53175964 417.46991516 132.28605652 418.22163391 C132.06047058 418.93061829 131.83488464 419.63960266 131.60246277 420.37007141 C131.39299011 421.01943665 131.18351746 421.66880188 130.96769714 422.33784485 C130.35392808 424.5796667 130.35392808 424.5796667 130.50871277 428.26069641 C137.4589454 427.61416314 143.8904858 425.40042393 150.50871277 423.26069641 C146.1170277 417.99067433 141.56607487 412.9076759 136.50871277 408.26069641 C136.17871277 408.26069641 135.84871277 408.26069641 135.50871277 408.26069641 Z " fill="#efaffa" transform="translate(106.49128723144531,14.739303588867188)"/>
<path d="M0 0 C0.95741592 -0.00708481 1.91483185 -0.01416962 2.90126038 -0.02146912 C4.45913269 -0.01775299 4.45913269 -0.01775299 6.04847717 -0.01396179 C7.7029763 -0.02162819 7.7029763 -0.02162819 9.39089966 -0.02944946 C13.03601003 -0.04334651 16.68093136 -0.04238863 20.32606506 -0.04008484 C22.860454 -0.04397157 25.39484229 -0.04830619 27.92922974 -0.05307007 C33.24113851 -0.06053244 38.55297793 -0.06037912 43.86488342 -0.05497742 C49.99691981 -0.04893742 56.12872676 -0.0612517 62.26072401 -0.08254749 C68.16979519 -0.10231124 74.07879549 -0.10533446 79.98790169 -0.10181236 C82.4977173 -0.10232585 85.00753656 -0.1075688 87.51733208 -0.11762428 C91.0265916 -0.12995891 94.53531992 -0.1232144 98.04457092 -0.11161804 C99.08112823 -0.11926178 100.11768555 -0.12690552 101.18565369 -0.13478088 C106.5291131 -0.09574808 110.57666468 0.08732063 115.11122131 3.26069641 C117.02271801 7.31306941 117.42390274 9.28586609 116.04872131 13.57319641 C113.82286056 16.66068068 112.66936204 17.13627487 109.11122131 18.26069641 C106.73236179 18.515172 106.73236179 18.515172 104.22244263 18.52139282 C103.2650267 18.52847763 102.30761078 18.53556244 101.32118225 18.54286194 C100.28260071 18.54038452 99.24401917 18.5379071 98.17396545 18.53535461 C97.07096603 18.54046555 95.96796661 18.54557648 94.83154297 18.55084229 C91.1864326 18.56473933 87.54151127 18.56378145 83.89637756 18.56147766 C81.36198862 18.56536439 78.82760033 18.56969901 76.29321289 18.57446289 C70.98130412 18.58192526 65.6694647 18.58177195 60.3575592 18.57637024 C54.22552282 18.57033024 48.09371587 18.58264453 41.96171862 18.60394031 C36.05264743 18.62370406 30.14364713 18.62672729 24.23454094 18.62320518 C21.72472533 18.62371868 19.21490607 18.62896163 16.70511055 18.63901711 C13.19585103 18.65135173 9.68712271 18.64460723 6.1778717 18.63301086 C5.14131439 18.6406546 4.10475708 18.64829834 3.03678894 18.65617371 C-2.30667047 18.6171409 -6.35422206 18.4340722 -10.88877869 15.26069641 C-12.80027538 11.20832341 -13.20146011 9.23552673 -11.82627869 4.94819641 C-8.74444956 0.67340118 -5.0960817 0.0126306 0 0 Z " fill="#efaffa" transform="translate(227.88877868652344,142.7393035888672)"/>
<path d="M0 0 C0.95741592 -0.00708481 1.91483185 -0.01416962 2.90126038 -0.02146912 C4.45913269 -0.01775299 4.45913269 -0.01775299 6.04847717 -0.01396179 C7.7029763 -0.02162819 7.7029763 -0.02162819 9.39089966 -0.02944946 C13.03601003 -0.04334651 16.68093136 -0.04238863 20.32606506 -0.04008484 C22.860454 -0.04397157 25.39484229 -0.04830619 27.92922974 -0.05307007 C33.24113851 -0.06053244 38.55297793 -0.06037912 43.86488342 -0.05497742 C49.99691981 -0.04893742 56.12872676 -0.0612517 62.26072401 -0.08254749 C68.16979519 -0.10231124 74.07879549 -0.10533446 79.98790169 -0.10181236 C82.4977173 -0.10232585 85.00753656 -0.1075688 87.51733208 -0.11762428 C91.0265916 -0.12995891 94.53531992 -0.1232144 98.04457092 -0.11161804 C99.08112823 -0.11926178 100.11768555 -0.12690552 101.18565369 -0.13478088 C106.5291131 -0.09574808 110.57666468 0.08732063 115.11122131 3.26069641 C117.02271801 7.31306941 117.42390274 9.28586609 116.04872131 13.57319641 C113.82286056 16.66068068 112.66936204 17.13627487 109.11122131 18.26069641 C106.73236179 18.515172 106.73236179 18.515172 104.22244263 18.52139282 C103.2650267 18.52847763 102.30761078 18.53556244 101.32118225 18.54286194 C100.28260071 18.54038452 99.24401917 18.5379071 98.17396545 18.53535461 C97.07096603 18.54046555 95.96796661 18.54557648 94.83154297 18.55084229 C91.1864326 18.56473933 87.54151127 18.56378145 83.89637756 18.56147766 C81.36198862 18.56536439 78.82760033 18.56969901 76.29321289 18.57446289 C70.98130412 18.58192526 65.6694647 18.58177195 60.3575592 18.57637024 C54.22552282 18.57033024 48.09371587 18.58264453 41.96171862 18.60394031 C36.05264743 18.62370406 30.14364713 18.62672729 24.23454094 18.62320518 C21.72472533 18.62371868 19.21490607 18.62896163 16.70511055 18.63901711 C13.19585103 18.65135173 9.68712271 18.64460723 6.1778717 18.63301086 C5.14131439 18.6406546 4.10475708 18.64829834 3.03678894 18.65617371 C-2.30667047 18.6171409 -6.35422206 18.4340722 -10.88877869 15.26069641 C-12.80027538 11.20832341 -13.20146011 9.23552673 -11.82627869 4.94819641 C-8.74444956 0.67340118 -5.0960817 0.0126306 0 0 Z " fill="#efaffa" transform="translate(227.88877868652344,110.73930358886719)"/>
<path d="M0 0 C0.73336075 -0.00428513 1.4667215 -0.00857025 2.2223053 -0.01298523 C3.76790335 -0.01870841 5.31352833 -0.01924366 6.85913086 -0.01489258 C9.21189737 -0.0117332 11.56340436 -0.03521295 13.91601562 -0.06054688 C15.42317551 -0.0628203 16.93033875 -0.06352316 18.4375 -0.0625 C19.13455551 -0.07170975 19.83161102 -0.08091949 20.54978943 -0.09040833 C25.17874974 -0.04699285 28.39100596 0.7850267 32.28515625 3.30078125 C34.19665295 7.35315425 34.59783767 9.32595093 33.22265625 13.61328125 C30.95585849 16.75754911 29.94643939 17.21198769 26.28515625 18.30078125 C23.67632144 18.50017925 21.17760459 18.60496169 18.5703125 18.6015625 C17.47027138 18.60799019 17.47027138 18.60799019 16.3480072 18.61454773 C14.80240915 18.62027091 13.25678417 18.62080616 11.71118164 18.61645508 C9.35841513 18.6132957 7.00690814 18.63677545 4.65429688 18.66210938 C3.14713699 18.6643828 1.63997375 18.66508566 0.1328125 18.6640625 C-0.56424301 18.67327225 -1.26129852 18.68248199 -1.97947693 18.69197083 C-6.60843724 18.64855535 -9.82069346 17.8165358 -13.71484375 15.30078125 C-15.62634045 11.24840825 -16.02752517 9.27561157 -14.65234375 4.98828125 C-10.93641265 -0.16607479 -5.9513932 -0.00775898 0 0 Z " fill="#efaffa" transform="translate(310.71484375,78.69921875)"/>
<path d="M0 0 C0.73336075 -0.00428513 1.4667215 -0.00857025 2.2223053 -0.01298523 C3.76790335 -0.01870841 5.31352833 -0.01924366 6.85913086 -0.01489258 C9.21189737 -0.0117332 11.56340436 -0.03521295 13.91601562 -0.06054688 C15.42317551 -0.0628203 16.93033875 -0.06352316 18.4375 -0.0625 C19.13455551 -0.07170975 19.83161102 -0.08091949 20.54978943 -0.09040833 C25.17874974 -0.04699285 28.39100596 0.7850267 32.28515625 3.30078125 C34.19665295 7.35315425 34.59783767 9.32595093 33.22265625 13.61328125 C30.95585849 16.75754911 29.94643939 17.21198769 26.28515625 18.30078125 C23.67632144 18.50017925 21.17760459 18.60496169 18.5703125 18.6015625 C17.47027138 18.60799019 17.47027138 18.60799019 16.3480072 18.61454773 C14.80240915 18.62027091 13.25678417 18.62080616 11.71118164 18.61645508 C9.35841513 18.6132957 7.00690814 18.63677545 4.65429688 18.66210938 C3.14713699 18.6643828 1.63997375 18.66508566 0.1328125 18.6640625 C-0.56424301 18.67327225 -1.26129852 18.68248199 -1.97947693 18.69197083 C-6.60843724 18.64855535 -9.82069346 17.8165358 -13.71484375 15.30078125 C-15.62634045 11.24840825 -16.02752517 9.27561157 -14.65234375 4.98828125 C-10.93641265 -0.16607479 -5.9513932 -0.00775898 0 0 Z " fill="#efaffa" transform="translate(246.71484375,78.69921875)"/>
</svg>
