<svg width="322" height="276" viewBox="0 0 322 276" fill="none" xmlns="http://www.w3.org/2000/svg">
<path d="M248.555 80.4786H234.665V131.8H248.555V80.4786Z" fill="#FC866C"/>
<path d="M242.591 107.998H240.629C239.875 107.998 239.265 107.352 239.265 106.557V85.666C239.265 84.8698 239.876 84.225 240.629 84.225H242.591C243.345 84.225 243.955 84.8705 243.955 85.666V106.557C243.955 107.352 243.345 107.998 242.591 107.998Z" fill="#FCFCFC"/>
<g opacity="0.24">
<path d="M241.61 126.897C243.045 126.897 244.207 125.669 244.207 124.154C244.207 122.639 243.045 121.411 241.61 121.411C240.176 121.411 239.013 122.639 239.013 124.154C239.013 125.669 240.176 126.897 241.61 126.897Z" fill="#0C0C0C"/>
<path d="M241.611 127.252C239.994 127.252 238.679 125.863 238.679 124.155C238.679 122.447 239.994 121.058 241.611 121.058C243.227 121.058 244.543 122.447 244.543 124.155C244.543 125.863 243.227 127.252 241.611 127.252ZM241.611 121.766C240.364 121.766 239.349 122.838 239.349 124.155C239.349 125.472 240.364 126.544 241.611 126.544C242.858 126.544 243.873 125.472 243.873 124.155C243.873 122.838 242.858 121.766 241.611 121.766Z" fill="white"/>
</g>
<path d="M262.352 80.4787H248.462V131.8H262.352V80.4787Z" fill="#BD79C6"/>
<path d="M256.359 107.998H254.456C253.685 107.998 253.062 107.339 253.062 106.526V85.6972C253.062 84.8839 253.685 84.225 254.456 84.225H256.359C257.129 84.225 257.753 84.8839 257.753 85.6972V106.526C257.753 107.338 257.128 107.998 256.359 107.998Z" fill="#FCFCFC"/>
<g opacity="0.24">
<path d="M255.407 126.897C256.842 126.897 258.004 125.669 258.004 124.154C258.004 122.639 256.842 121.411 255.407 121.411C253.973 121.411 252.811 122.639 252.811 124.154C252.811 125.669 253.973 126.897 255.407 126.897Z" fill="#0C0C0C"/>
<path d="M255.407 127.252C253.791 127.252 252.475 125.863 252.475 124.155C252.475 122.447 253.791 121.058 255.407 121.058C257.024 121.058 258.339 122.447 258.339 124.155C258.339 125.863 257.024 127.252 255.407 127.252ZM255.407 121.766C254.16 121.766 253.146 122.838 253.146 124.155C253.146 125.472 254.16 126.544 255.407 126.544C256.655 126.544 257.669 125.472 257.669 124.155C257.669 122.838 256.655 121.766 255.407 121.766Z" fill="white"/>
</g>
<g opacity="0.24">
<path d="M322 269.936C321.987 273.155 228.043 276.331 150.905 275.972C73.7676 275.613 -0.0134017 272.634 1.82595e-06 269.416C0.0134053 266.198 72.5123 261.725 149.65 262.083C226.788 262.443 322.013 266.718 322 269.936Z" fill="#565684"/>
</g>
<path d="M139.03 170.839L178.798 263.986H168.968L130.829 173.592L139.03 170.839Z" fill="#B79C7E"/>
<path d="M91.0792 178.185L54.1023 264.795H63.9318L100.356 178.465L91.0792 178.185Z" fill="#B79C7E"/>
<path d="M90.4133 71.6725C79.2147 75.4548 76.9676 81.5 74.0637 91.2433C71.7911 98.866 66.669 170.057 82.837 182.056C89.203 186.78 123.139 185.82 140.297 184.929C146.295 184.618 156.378 185.706 158.081 175.598L159.434 142.96C159.434 142.96 124.1 121.194 121.772 115.88C119.444 110.567 122.07 79.6435 122.07 79.6435C122.07 79.6435 113.037 64.032 90.4133 71.6725Z" fill="#C4B9FF"/>
<path d="M145.458 252.491C152.584 232.668 183.044 177.231 177.389 167.235C175.835 164.489 166.421 162.304 165.382 162.914C164.343 163.523 136.122 253.79 136.122 253.79C136.122 253.79 144.622 254.815 145.458 252.491Z" fill="#F4BEAB"/>
<path d="M163.302 267.867C157.927 270.04 146.567 268.27 143.652 265.581C143.109 265.078 142.633 264.731 142.225 264.512C141.97 264.37 141.742 264.278 141.534 264.222C140.944 264.059 140.529 264.2 140.247 264.427C139.812 264.788 139.685 265.354 139.685 265.354L132.366 265.05L132.4 264.115L132.42 263.408L132.701 255.282C135.818 243.788 151.734 258.411 151.734 258.411L155.387 258.927C155.387 258.927 169.005 265.559 163.302 267.867Z" fill="#925D9B"/>
<path d="M133.651 251.482C133.651 251.482 143.662 262.667 149.367 262.383C156.697 262.017 157.303 260.189 155.109 258.726C152.916 257.263 145.572 254.518 145.435 252.838C145.331 251.555 146.174 248.179 146.174 248.179C146.174 248.179 134.931 249.206 133.651 251.482Z" fill="#F4BEAB"/>
<path d="M140.569 85.6138C139.765 90.5046 138.378 100.286 126.945 96.3296C119.566 93.7674 114.801 92.2032 112.308 90.1082C110.941 88.9687 110.257 87.6664 110.197 85.9535C110.023 81.1265 102.751 39.1481 102.926 37.1876C102.986 36.4869 103.348 34.1441 103.777 31.4333C104.554 26.578 105.573 20.5406 105.573 20.5406C105.573 20.5406 106.384 8.72069 114.694 8.90471C116.209 8.93303 117.656 9.2586 119.037 9.81067C119.137 9.85314 119.238 9.8956 119.338 9.93807C119.419 9.96638 119.492 10.0018 119.566 10.0442C125.517 12.7196 129.825 19.0238 131.614 25.5637C133.866 33.7952 131.274 60.4664 134.437 66.9284C138.344 74.9193 141.782 78.2387 140.569 85.6138Z" fill="#9760A0"/>
<g opacity="0.24">
<path d="M132.121 94.9145L131.499 94.6491C131.881 93.6519 132.415 92.5194 132.98 91.3204C135.508 85.9548 138.655 79.2776 133.998 74.1773C129.501 69.2505 129.342 55.5684 129.201 43.4958C129.15 39.0305 129.101 34.8121 128.832 31.4098C127.657 16.504 117.624 13.9978 117.523 13.9744L117.668 13.2829C117.773 13.3077 128.284 15.9314 129.499 31.3511C129.77 34.7781 129.819 39.0085 129.871 43.4866C130.01 55.4276 130.168 68.961 134.482 73.6854C139.466 79.1452 136.064 86.3639 133.58 91.6347C133.021 92.8223 132.492 93.9428 132.121 94.9145Z" fill="#0C0C0C"/>
</g>
<path d="M133.488 76.024C133.488 76.024 157.69 116.022 158.728 120.959C159.767 125.895 143.538 126.354 143.538 126.354L128.215 111.464L133.488 76.024Z" fill="#EFEAEA"/>
<path d="M141.612 122.371C141.612 122.371 142.021 115.762 151.891 114.364C156.886 113.656 158.943 118.848 158.357 120.971C157.77 123.095 152.284 126.754 151.891 126.754C151.497 126.754 141.612 125.335 141.612 125.335V122.371Z" fill="#D6D4D4"/>
<g opacity="0.24">
<path d="M127.015 70.3044C132.256 35.6593 118.687 17.4489 109.108 24.24C99.529 31.0305 102.263 67.5688 102.598 68.4245C102.933 69.2803 117.057 87.323 118.539 86.6428C120.02 85.9619 126.276 75.1853 127.015 70.3044Z" fill="#0C0C0C"/>
</g>
<path d="M128.504 249.949C128.504 249.949 115.01 260.473 113.51 266.324C112.009 272.175 115.403 273.598 119.328 272.501C123.253 271.404 134.42 265.289 136.835 255.285C137.438 252.789 133.871 250.315 133.871 250.315L128.504 249.949Z" fill="#BD79C6"/>
<path d="M165.382 162.913C164.902 161.765 157.66 157.724 154.849 158.916C151.194 160.466 138.923 177.227 136.123 199.483C132.834 225.63 128.505 250.315 128.505 250.315C128.505 250.315 116.749 261.857 117.959 265.166C119.149 268.419 127.413 264.096 131.586 261.037C133.498 259.637 135.086 256.447 136.006 254.19C144.715 232.836 165.835 163.994 165.382 162.913Z" fill="#FFCCB6"/>
<path d="M115.806 81.0061C115.739 82.7826 114.553 86.4418 112.308 90.1081C108.461 96.4002 101.109 105.184 91.2978 101.978C85.7152 100.151 81.9958 97.8866 79.677 95.105C79.4625 94.8502 79.2614 94.5883 79.0738 94.3194C77.2911 91.8351 76.5338 88.9615 76.5003 85.6703C76.4936 85.2244 76.5003 84.7714 76.5204 84.3114C76.5405 83.8018 76.5807 83.278 76.6343 82.7472C77.4319 74.6856 86.124 70.3044 89.4615 62.4764C92.3768 55.6393 88.6975 35.9984 92.9397 21.6446C95.3725 13.4273 101.974 4.14834 110.927 3.95016H110.947C111.483 3.936 111.993 3.97139 112.469 4.04217C114.754 4.37483 116.423 5.56389 117.636 7.05731C117.79 7.26256 117.944 7.46782 118.098 7.68015C118.52 8.29592 118.882 8.95416 119.19 9.61239C119.244 9.71856 119.291 9.82472 119.338 9.93797C119.371 10.0087 119.398 10.0866 119.432 10.1574C117.716 11.9056 116.376 14.0785 115.625 16.4778C115.505 16.8671 115.424 17.2493 115.384 17.6244C115.062 20.2078 116.436 22.4869 118.433 24.0935C119.693 25.1057 121.147 25.7922 122.682 26.1886C123.171 29.0268 119.624 31.877 119.691 32.5989C119.879 34.5595 115.994 76.1719 115.806 81.0061Z" fill="#BD79C6"/>
<g opacity="0.24">
<path d="M104.387 49.3377C107.347 60.9028 103.16 71.0708 100.592 72.7326C100.377 72.8714 114.658 71.7318 115.725 67.4144C118.539 56.0305 103.17 44.5821 104.387 49.3377Z" fill="#0C0C0C"/>
</g>
<path d="M134.437 150.467C134.437 158.359 130.838 165.366 125.283 169.747C121.476 172.748 116.758 174.532 111.645 174.532H111.497C108.964 174.518 106.524 174.058 104.246 173.23C95.2923 169.995 88.8586 161.027 88.8586 150.467C88.8586 146.023 90.0046 141.854 91.9951 138.279C95.9491 131.166 103.267 126.396 111.645 126.396C119.606 126.396 126.616 130.706 130.691 137.246C133.057 141.04 134.437 145.584 134.437 150.467Z" fill="#FC866C"/>
<path d="M108.732 54.981C108.732 54.981 110.388 70.8707 102.077 72.3336H125.97C125.97 72.3336 116.66 69.7736 120.083 53.8663C120.083 53.8663 112.616 50.4279 108.732 54.981Z" fill="#FFCCB6"/>
<path d="M133.501 133.806L97.3766 134.564C97.3766 134.564 97.1755 133.431 96.8404 131.478C95.0042 120.755 89.2675 85.366 92.042 78.2599C92.0487 78.2457 92.0554 78.2386 92.0554 78.2386C92.2229 77.8069 92.4307 77.4742 92.6719 77.269C92.6988 77.2477 92.7256 77.2265 92.7524 77.2053C92.9467 77.0354 93.1344 76.8797 93.3287 76.724C97.9194 73.0577 102.075 72.3358 102.075 72.3358H125.973C125.973 72.3358 130.296 73.8575 133.07 75.3226C134.203 75.9171 136.331 86.434 140.231 98.8555C142.831 107.144 133.501 133.806 133.501 133.806Z" fill="white"/>
<path d="M106.139 71.4043L118.098 87.9047L125.97 72.3343C125.97 72.3343 132.728 74.028 133.494 75.881C133.95 76.983 118.449 91.7741 118.449 91.7741L95.147 75.2298C95.147 75.2298 98.9817 70.235 106.139 71.4043Z" fill="#F4E6E6"/>
<path d="M147.77 120.98C145.211 122.998 142.549 125.457 142.856 126.753L161.549 126.971C161.549 126.971 162.059 123.969 158.356 120.971C155.244 118.452 150.912 118.503 147.77 120.98Z" fill="#DDA794"/>
<path d="M177.389 167.235C177.389 167.235 164.307 163.788 151.272 172.508C151.272 172.508 151.272 172.508 151.265 172.515C148.417 174.419 143.826 176.91 141.119 180.152L137.158 179.401L136.609 179.295L111.497 174.532L104.246 173.23L108.83 166.994L130.691 137.246C130.691 137.246 158.892 149.016 172.912 162.266C173.113 162.457 173.314 162.648 173.509 162.839C174.996 164.29 176.31 165.763 177.389 167.235Z" fill="#FC866C"/>
<g opacity="0.24">
<path d="M151.272 172.508C151.272 172.508 151.272 172.508 151.265 172.515C148.417 174.419 143.824 176.91 141.116 180.152L111.497 174.532C108.964 174.518 106.524 174.058 104.246 173.23C95.2923 169.995 88.8586 161.027 88.8586 150.467C88.8586 146.023 90.0046 141.854 91.9951 138.279C93.6638 138.244 94.9505 138.187 94.9505 138.187C94.9505 138.187 93.4373 161.163 108.83 166.994C124.271 172.844 151.272 172.508 151.272 172.508Z" fill="#0C0C0C"/>
</g>
<path d="M199.524 141.675V268.192L191.956 268.185L186.062 148.047L185.812 142.924L199.524 141.675Z" fill="#D1B48F"/>
<g opacity="0.24">
<path d="M199.524 142.924V148.047H186.062L185.812 142.924H199.524Z" fill="black"/>
</g>
<path d="M22.1343 142.924L21.8844 148.047L15.9211 269.442H8.42188V142.924H22.1343Z" fill="#D1B48F"/>
<path d="M265.403 142.924V269.442H257.904L251.948 148.047L251.699 142.924H265.403Z" fill="#D1B48F"/>
<path d="M35.984 42.5715C47.1152 42.5715 56.1388 33.0415 56.1388 21.2857C56.1388 9.52995 47.1152 0 35.984 0C24.8527 0 15.8291 9.52995 15.8291 21.2857C15.8291 33.0415 24.8527 42.5715 35.984 42.5715Z" fill="#C4B9FF"/>
<path d="M35.9838 39.9868C26.2207 39.9868 18.2771 31.5982 18.2771 21.2865C18.2771 10.9749 26.22 2.5863 35.9838 2.5863C45.7476 2.5863 53.6905 10.9749 53.6905 21.2865C53.6905 31.5975 45.7476 39.9868 35.9838 39.9868ZM35.9838 3.35849C26.6235 3.35849 19.0089 11.401 19.0089 21.2865C19.0089 31.1721 26.6241 39.2146 35.9838 39.2146C45.3435 39.2146 52.9594 31.1721 52.9594 21.2865C52.9594 11.401 45.3442 3.35849 35.9838 3.35849Z" fill="#8C85C9"/>
<path d="M37.569 21.3834C37.569 22.2299 36.919 22.9157 36.1174 22.9157C35.3159 22.9157 34.6665 22.2299 34.6665 21.3834C34.6665 20.5369 35.3159 19.851 36.1174 19.851C36.9196 19.851 37.569 20.5369 37.569 21.3834Z" fill="#8C85C9"/>
<path d="M36.5047 21.9404C36.2976 21.9404 36.0912 21.8477 35.9471 21.6679C35.6857 21.3423 35.7233 20.8554 36.0309 20.5793L41.7522 15.4493C42.0611 15.1733 42.5222 15.2129 42.7829 15.5378C43.0443 15.8634 43.0067 16.3503 42.6991 16.6264L36.9778 21.7564C36.8398 21.8802 36.6716 21.9404 36.5047 21.9404Z" fill="#8C85C9"/>
<path d="M35.8038 22.3856C35.7555 22.3856 35.7059 22.3806 35.657 22.37L27.4554 20.6077C27.0593 20.5227 26.804 20.115 26.8844 19.6967C26.9649 19.2784 27.3529 19.0102 27.7469 19.0937L35.9486 20.8561C36.3446 20.941 36.6 21.3487 36.5195 21.767C36.4492 22.1336 36.1449 22.3856 35.8038 22.3856Z" fill="#8C85C9"/>
<path d="M206.761 51.2594H182.473C181.267 51.2594 180.29 50.2275 180.29 48.9542V36.9885C180.29 35.7152 181.267 34.6832 182.473 34.6832H206.761C207.967 34.6832 208.944 35.7152 208.944 36.9885V48.9542C208.944 50.2275 207.967 51.2594 206.761 51.2594Z" fill="#BD79C6"/>
<path d="M205.725 39.8376H184.377C184.168 39.8376 183.998 39.6593 183.998 39.4379C183.998 39.2165 184.168 39.0383 184.377 39.0383H205.725C205.934 39.0383 206.103 39.2165 206.103 39.4379C206.103 39.6593 205.934 39.8376 205.725 39.8376Z" fill="#7E4C87"/>
<path d="M200.62 43.3709H184.718C184.509 43.3709 184.339 43.1919 184.339 42.9712C184.339 42.7505 184.509 42.5715 184.718 42.5715H200.62C200.829 42.5715 200.998 42.7505 200.998 42.9712C200.998 43.1919 200.829 43.3709 200.62 43.3709Z" fill="#7E4C87"/>
<path d="M200.96 46.9041H184.378C184.169 46.9041 183.999 46.7251 183.999 46.5044C183.999 46.2837 184.169 46.1047 184.378 46.1047H200.96C201.17 46.1047 201.339 46.283 201.339 46.5044C201.339 46.7251 201.17 46.9041 200.96 46.9041Z" fill="#7E4C87"/>
<path d="M238.04 57.3669H224.93C222.686 57.3669 220.867 55.4453 220.867 53.0756V46.3779C220.867 44.0076 222.687 42.0867 224.93 42.0867H238.04C240.284 42.0867 242.103 44.0083 242.103 46.3779V53.0756C242.103 55.4453 240.284 57.3669 238.04 57.3669Z" fill="#FC866C"/>
<path d="M238.957 46.592H224.279C224.07 46.592 223.9 46.413 223.9 46.1923C223.9 45.9716 224.07 45.7927 224.279 45.7927H238.957C239.166 45.7927 239.335 45.9709 239.335 46.1923C239.335 46.4137 239.166 46.592 238.957 46.592Z" fill="#F33B12"/>
<path d="M235.446 50.1258H224.512C224.303 50.1258 224.134 49.9468 224.134 49.7261C224.134 49.5054 224.303 49.3265 224.512 49.3265H235.446C235.655 49.3265 235.824 49.5047 235.824 49.7261C235.824 49.9468 235.655 50.1258 235.446 50.1258Z" fill="#F33B12"/>
<path d="M235.681 53.6591H224.279C224.07 53.6591 223.9 53.4802 223.9 53.2595C223.9 53.0388 224.07 52.8598 224.279 52.8598H235.681C235.89 52.8598 236.059 53.0388 236.059 53.2595C236.059 53.4802 235.89 53.6591 235.681 53.6591Z" fill="#F33B12"/>
<path d="M208.238 78.6456H192.852C191.237 78.6456 189.927 77.2626 189.927 75.5562V66.4541C189.927 64.7477 191.237 63.3647 192.852 63.3647H208.238C209.854 63.3647 211.164 64.7477 211.164 66.4541V75.5562C211.164 77.2626 209.854 78.6456 208.238 78.6456Z" fill="#C4B9FF"/>
<path d="M208.299 67.7249H193.62C193.411 67.7249 193.241 67.5466 193.241 67.3252C193.241 67.1045 193.411 66.9255 193.62 66.9255H208.299C208.508 66.9255 208.678 67.1045 208.678 67.3252C208.678 67.5466 208.508 67.7249 208.299 67.7249Z" fill="#9B95D1"/>
<path d="M204.789 71.258H193.855C193.646 71.258 193.477 71.079 193.477 70.8583C193.477 70.6376 193.646 70.4587 193.855 70.4587H204.789C204.998 70.4587 205.168 70.6376 205.168 70.8583C205.168 71.0797 204.998 71.258 204.789 71.258Z" fill="#9B95D1"/>
<path d="M205.023 74.792H193.621C193.412 74.792 193.242 74.613 193.242 74.3923C193.242 74.1716 193.412 73.9926 193.621 73.9926H205.023C205.233 73.9926 205.402 74.1716 205.402 74.3923C205.401 74.613 205.233 74.792 205.023 74.792Z" fill="#9B95D1"/>
<g opacity="0.24">
<path d="M22.1343 142.924L21.8844 148.047H8.42188V142.924H22.1343Z" fill="black"/>
</g>
<g opacity="0.24">
<path d="M265.403 142.924V148.047H251.948L251.699 142.924H265.403Z" fill="black"/>
</g>
<path d="M93.3231 142.924L93.0731 148.047L87.1172 271.083H79.6106V142.924H93.3231Z" fill="#D1B48F"/>
<g opacity="0.24">
<path d="M93.3231 142.924L93.0731 148.047H79.6106V142.924H93.3231Z" fill="black"/>
</g>
<path d="M320.75 226.094L316.308 258.015L315.749 262.019C315.19 266.06 311.907 269.057 308.038 269.057H287.963C284.016 269.057 280.692 265.934 280.225 261.788L279.85 258.404L276.235 225.974C275.959 223.486 277.798 221.305 280.168 221.305H316.83C319.25 221.305 321.104 223.568 320.75 226.094Z" fill="#9E63A8"/>
<path d="M284.097 181.728C290.471 181.718 294.163 193.673 293.267 199.574C292.37 205.475 294.59 218.338 294.59 218.338C294.59 218.338 284.843 221.153 285.217 201.218C285.31 196.274 279.126 181.736 284.097 181.728Z" fill="#8380C1"/>
<path d="M306.981 191.096C306.981 191.096 312.097 180.483 314.927 181.416C317.756 182.35 320.055 193.93 318.287 197.852C316.518 201.774 311.946 220.264 306.982 219.703C302.018 219.143 292.645 213.704 294.59 209.7C296.535 205.696 306.981 191.096 306.981 191.096Z" fill="#A099E0"/>
<path d="M295.651 227.112C294.874 223.188 290.165 213.735 289.756 209.701C288.03 207.945 281.332 198.968 276.412 199.471C270.943 200.03 281.321 216.321 287.952 223.713C288.055 221.717 296.047 229.111 295.651 227.112Z" fill="#A099E0"/>
<path d="M312.297 223.614C310.72 224.48 308.499 224.996 306.08 225.287C305.62 225.346 305.16 225.399 304.686 225.436C300.145 225.825 295.207 225.541 292.612 225.324C291.438 225.227 290.334 224.682 289.506 223.793C289.259 223.524 288.975 223.217 288.664 222.881C287.815 221.955 287.087 216.905 286.86 215.657C286.295 212.422 285.269 181.441 298.553 161.204C299.989 159.015 301.538 158.073 302.932 158.007C303.222 157.992 303.497 158.014 303.774 158.074C305.803 158.492 307.374 160.771 307.579 163.557C308.463 175.839 308.754 194.934 302.868 201.657C293.92 211.869 300.208 215.955 303.109 212.893C305.421 210.457 310.791 197.832 314.717 198.437C314.957 198.475 315.198 198.564 315.425 198.706C316.153 199.154 316.818 200.171 317.377 201.911C321.005 213.147 318.345 220.296 312.297 223.614Z" fill="#C4B9FF"/>
<path d="M293.633 223.449C293.661 223.65 293.527 223.837 293.336 223.867C293.314 223.875 293.3 223.875 293.279 223.875C293.11 223.875 292.961 223.74 292.933 223.553C292.869 223.105 287.061 180.538 302.935 158.007C303.225 157.992 303.501 158.014 303.777 158.074C287.74 180.239 293.569 223.001 293.633 223.449Z" fill="#A099E0"/>
<path d="M315.424 198.706C315.049 203.786 313.344 218.989 306.08 225.287C304.657 226.527 303.024 227.416 301.142 227.827L301.001 227.095C302.359 226.803 303.583 226.229 304.686 225.437C312.531 219.841 314.349 203.361 314.717 198.438C314.957 198.475 315.197 198.565 315.424 198.706Z" fill="#A099E0"/>
<path d="M294.195 181.732C294.11 181.732 294.025 181.7 293.957 181.635C293.813 181.496 293.802 181.259 293.934 181.107L302.935 170.675C303.067 170.523 303.291 170.511 303.434 170.651C303.579 170.79 303.589 171.026 303.457 171.179L294.456 181.61C294.387 181.692 294.291 181.732 294.195 181.732Z" fill="#A099E0"/>
<path d="M292.742 196.703C292.657 196.703 292.572 196.671 292.504 196.606C292.36 196.468 292.348 196.232 292.48 196.079L300.812 186.365C300.944 186.213 301.168 186.201 301.311 186.339C301.455 186.477 301.467 186.714 301.336 186.866L293.004 196.581C292.934 196.662 292.838 196.703 292.742 196.703Z" fill="#A099E0"/>
<path d="M292.241 210.246C292.122 210.246 292.004 210.182 291.938 210.065C290.829 208.117 287.924 203.014 287.782 202.79C287.674 202.619 287.718 202.387 287.88 202.272C288.041 202.158 288.261 202.203 288.371 202.375C288.55 202.66 292.382 209.394 292.544 209.68C292.645 209.857 292.591 210.086 292.423 210.193C292.366 210.229 292.303 210.246 292.241 210.246Z" fill="#A099E0"/>
<path d="M310.972 217.715C310.829 217.715 310.694 217.623 310.641 217.474L308.171 210.559C308.102 210.366 308.194 210.151 308.376 210.078C308.561 210.007 308.764 210.102 308.832 210.295L311.302 217.209C311.371 217.402 311.279 217.617 311.097 217.69C311.056 217.707 311.013 217.715 310.972 217.715Z" fill="#A099E0"/>
<path d="M293.694 221.678C293.624 221.678 293.554 221.656 293.492 221.611C293.332 221.493 293.292 221.26 293.403 221.091C293.524 220.906 296.389 216.558 297.923 215.141C298.07 215.007 298.293 215.02 298.423 215.178C298.551 215.333 298.536 215.568 298.388 215.705C296.92 217.06 294.013 221.473 293.984 221.517C293.916 221.622 293.806 221.678 293.694 221.678Z" fill="#A099E0"/>
<path d="M320.75 226.094L320.05 231.106L319.951 231.854L316.711 255.125C316.251 258.397 313.995 261.153 310.932 261.856C310.296 262.005 309.631 262.08 308.952 262.08H286.874C283.054 262.042 279.907 258.882 279.454 254.878L276.893 231.854L276.808 231.107L276.235 225.975C275.959 223.487 277.798 221.305 280.168 221.305H316.83C319.25 221.305 321.104 223.568 320.75 226.094Z" fill="#BD79C6"/>
<path d="M320.051 231.106L319.951 231.853H276.894L276.81 231.106H320.051Z" fill="#9E63A8"/>
<path d="M103.37 71.2351L118.099 87.904L125.971 72.3336L116.787 70.3044L103.37 71.2351Z" fill="#FFCCB6"/>
<g opacity="0.24">
<path d="M108.731 54.9809C108.731 54.9809 118.696 55.9718 120.389 54.0254C120.389 54.0254 119.639 56.0383 119.244 56.6208C118.546 57.6528 115.619 58.1043 114.024 58.0357C110.616 57.8884 108.731 54.9809 108.731 54.9809Z" fill="#333232"/>
</g>
<path d="M127.286 37.2165C127.286 48.1304 122.121 56.9776 114.603 56.9776C107.086 56.9776 100.991 48.1304 100.991 37.2165C100.991 26.3025 107.085 17.4553 114.603 17.4553C122.121 17.4553 127.286 26.3025 127.286 37.2165Z" fill="#FFCCB6"/>
<path d="M115.343 44.3791C115.306 44.3791 115.27 44.3706 115.235 44.3529C115.109 44.2899 115.056 44.1314 115.116 43.999C115.349 43.4838 116.755 42.3159 117.506 41.7157C116.993 41.4567 116.437 40.9074 115.937 40.1522C115.084 38.8605 114.34 36.8328 114.814 35.0152C114.851 34.8736 114.99 34.7908 115.123 34.8297C115.256 34.8687 115.335 35.0145 115.299 35.156C114.871 36.7967 115.561 38.6553 116.349 39.8486C116.924 40.7185 117.602 41.308 118.076 41.3498C118.18 41.359 118.268 41.4354 118.297 41.5416C118.325 41.6485 118.288 41.7624 118.203 41.8276C117.28 42.5431 115.75 43.827 115.569 44.2269C115.526 44.3239 115.436 44.3791 115.343 44.3791Z" fill="#DDA794"/>
<path d="M115.076 48.9436C113.388 48.9436 112.136 48.2932 111.852 48.061C111.726 47.9577 111.68 47.8416 111.714 47.7164C111.752 47.5748 111.893 47.4934 112.024 47.5337C112.087 47.5529 112.138 47.5953 112.17 47.6505C112.51 47.9266 115.368 49.3152 118.412 47.4339C118.531 47.3603 118.685 47.4028 118.755 47.5288C118.826 47.6555 118.785 47.8183 118.666 47.8919C117.385 48.6832 116.144 48.9436 115.076 48.9436Z" fill="#DDA794"/>
<path d="M103.14 32.4014C102.658 32.5303 104.135 30.5973 108.047 30.3708C109.217 30.3029 111.14 30.4444 111.537 30.9052C111.887 31.3108 111.733 32.4078 109.645 32.1735C108.2 32.0108 105.499 31.7715 103.14 32.4014Z" fill="#76497F"/>
<path d="M107.736 36.074C107.626 36.9063 107.936 37.6403 108.428 37.7132C108.921 37.7861 109.409 37.1696 109.519 36.3373C109.629 35.5049 109.32 34.771 108.827 34.6981C108.334 34.6252 107.846 35.2409 107.736 36.074Z" fill="#2B2B2B"/>
<path d="M105.872 34.7963L109.909 34.4702L109.852 35.7831L105.91 35.2101L105.872 34.7963Z" fill="#2B2B2B"/>
<path d="M125.885 32.5931C126.367 32.7219 125.078 30.5809 121.167 30.3544C119.997 30.2864 118.991 30.1944 118.428 30.5695C117.481 31.1995 118.489 32.4345 119.775 32.2116C121.208 31.9617 123.526 31.9639 125.885 32.5931Z" fill="#76497F"/>
<path d="M123.077 36.2487C123.152 37.0853 122.811 37.8044 122.317 37.854C121.821 37.9035 121.359 37.2658 121.284 36.4285C121.209 35.5919 121.549 34.8728 122.044 34.8232C122.538 34.7744 123.001 35.4121 123.077 36.2487Z" fill="#2B2B2B"/>
<path d="M124.42 35.1124L120.436 34.347L120.364 35.6591L124.342 35.5198L124.42 35.1124Z" fill="#2B2B2B"/>
<path d="M115.248 50.9574C114.481 50.9574 114.005 50.5358 113.976 50.5096C113.871 50.4142 113.859 50.2465 113.949 50.1355C114.039 50.0244 114.197 50.0117 114.303 50.1065C114.335 50.1355 115.137 50.823 116.347 50.0796C116.465 50.006 116.62 50.0484 116.691 50.1751C116.761 50.3017 116.721 50.4644 116.6 50.5379C116.09 50.8513 115.632 50.9574 115.248 50.9574Z" fill="#DDA794"/>
<path d="M96.9595 93.3072C96.9595 93.3072 100.815 111.621 97.7181 116.232C96.2303 118.448 98.2972 121.78 104.752 119.539C111.206 117.297 126.329 115.955 127.566 118.669C127.566 118.669 130.275 110.314 113.38 114.894C106.479 116.765 101.586 116.34 101.416 112.284C101.247 108.229 96.9595 93.3072 96.9595 93.3072Z" fill="#EFEAEA"/>
<path d="M92.0546 78.2357C92.0546 78.2357 73.7099 112.704 76.018 131.476H124.996C124.996 131.476 130.641 116.779 125.332 115.072C120.022 113.366 98.4414 122.618 97.7491 117.742C97.0568 112.866 103.08 101.407 100.992 94.0935C98.9032 86.7786 92.0546 78.2357 92.0546 78.2357Z" fill="white"/>
<path d="M127.413 118.229C127.413 118.229 131.974 117.048 137.883 119.102C142.831 120.822 148.397 126.971 148.397 126.971L138.942 126.754C138.942 126.754 138.956 127.128 136.07 127.128C133.184 127.128 127.413 127.615 127.413 127.615V118.229H127.413Z" fill="#FFCCB6"/>
<path d="M76.0179 122.032H32.5503V131.476H76.0179V122.032Z" fill="#9BB2BA"/>
<path d="M108.984 122.032H71.1765V131.459H108.984V122.032Z" fill="#BFD4DD"/>
<g opacity="0.65">
<path d="M108.983 123.855H32.5503V124.654H108.983V123.855Z" fill="#52767F"/>
</g>
<g opacity="0.65">
<path d="M108.983 126.354H32.5503V127.153H108.983V126.354Z" fill="#52767F"/>
</g>
<g opacity="0.65">
<path d="M108.983 128.965H32.5503V129.764H108.983V128.965Z" fill="#52767F"/>
</g>
<path d="M161.136 126.754H121.558V131.448H161.136V126.754Z" fill="#8988E5"/>
<path d="M173.483 87.5834L150.775 131.476H215.521L236.256 89.1674L173.483 87.5834Z" fill="#8988E5"/>
<path d="M175.964 87.6456L153.288 131.476H218.034L238.768 89.1673L175.964 87.6456Z" fill="#C5C3F4"/>
<path d="M147.524 130.303H142.806C142.488 130.303 142.231 130.032 142.231 129.697V128.778C142.231 128.442 142.489 128.17 142.806 128.17H147.524C147.842 128.17 148.099 128.442 148.099 128.778V129.697C148.099 130.032 147.841 130.303 147.524 130.303Z" fill="#6867A5"/>
<path d="M137.506 130.303H132.871C132.53 130.303 132.255 130.013 132.255 129.653V128.821C132.255 128.461 132.53 128.17 132.871 128.17H137.506C137.847 128.17 138.122 128.461 138.122 128.821V129.653C138.122 130.013 137.847 130.303 137.506 130.303Z" fill="#6867A5"/>
<path d="M119.566 10.0442L116.49 17.6457H116.322L115.384 17.6245L113.099 17.5749L113.836 16.6053L119.037 9.8106L119.191 9.61243C119.244 9.71859 119.291 9.82476 119.338 9.938C119.419 9.96632 119.492 10.0017 119.566 10.0442Z" fill="#794E82"/>
<path d="M126.84 36.7146C126.999 36.377 128.593 35.7988 128.906 37.2165C129.743 41.0201 126.309 44.2935 126.309 44.2935C126.309 44.2935 126.22 38.0297 126.84 36.7146Z" fill="#FFCCB6"/>
<path d="M205.307 110.634H195.785C195.05 110.634 194.454 110.004 194.454 109.227V108.585C194.454 107.808 195.05 107.178 195.785 107.178H205.307C206.042 107.178 206.638 107.807 206.638 108.585V109.227C206.638 110.004 206.042 110.634 205.307 110.634Z" fill="#F0F0FF"/>
<path d="M101.163 94.8076C101.15 96.1099 101.076 97.4972 100.922 98.9835C100.902 99.1675 100.761 99.302 100.593 99.302H100.553C100.372 99.2808 100.238 99.1039 100.258 98.9128C100.499 96.5275 100.553 94.3971 100.459 92.4861C99.9432 82.1525 95.0777 78.4084 92.7522 77.2052C92.9465 77.0353 93.1342 76.8796 93.3285 76.7239C96.083 78.2739 101.31 82.8037 101.163 94.8076Z" fill="#EFEAEA"/>
<path d="M128.016 39.87C127.993 39.87 127.97 39.865 127.947 39.8544C127.862 39.814 127.824 39.7093 127.863 39.6201C128.336 38.5139 128.265 38.012 128.121 37.7856C127.97 37.547 127.696 37.5492 127.679 37.5548C127.604 37.5506 127.509 37.4826 127.505 37.3857C127.501 37.2887 127.571 37.2066 127.663 37.2016C127.681 37.1974 128.135 37.1811 128.396 37.5838C128.678 38.0205 128.602 38.7552 128.168 39.7666C128.141 39.8317 128.079 39.87 128.016 39.87Z" fill="#DDA794"/>
<path d="M126.868 42.8192C126.839 42.8192 126.811 42.8114 126.784 42.7958C126.704 42.7477 126.677 42.6394 126.722 42.5545L127.602 40.9322C127.647 40.8466 127.75 40.8169 127.831 40.8664C127.911 40.9145 127.939 41.0228 127.893 41.1077L127.013 42.73C126.982 42.7873 126.926 42.8192 126.868 42.8192Z" fill="#DDA794"/>
<g opacity="0.24">
<path d="M173.508 162.839C152.492 161.304 141.414 173.258 137.158 179.401L136.608 179.295C140.797 173.18 151.848 160.985 172.912 162.266C173.113 162.457 173.314 162.648 173.508 162.839Z" fill="#0C0C0C"/>
</g>
<g opacity="0.24">
<path d="M116.66 17.6845C103.579 28.8108 104.681 50.4653 104.775 51.0669L100.988 42.9699C100.988 42.9699 108.072 14.5667 108.327 14.5667C108.441 14.7295 110.674 16.6731 113.013 17.5366L113.098 17.5748L115.384 17.6243L116.322 17.6455C116.5 17.6187 116.66 17.6845 116.66 17.6845Z" fill="#0C0C0C"/>
</g>
<path d="M115.12 14.0358C115.12 14.0358 104.011 31.3934 103.499 41.8954C103.074 50.6209 106.622 54.7473 103.322 54.4175C100.452 54.1308 92.9402 36.4491 92.9402 36.4491C92.9402 36.4491 99.3069 15.7267 99.6419 15.5887C99.977 15.4514 115.439 12.0661 115.12 14.0358Z" fill="#BD79C6"/>
<g opacity="0.24">
<path d="M112.469 4.04217C105.619 6.85205 98.7434 12.5072 96.0828 23.7397C94.394 30.8387 94.9033 37.8315 95.3926 44.605C96.1298 54.6696 96.82 64.1821 89.5151 71.3873C88.3423 72.5481 87.2432 73.6168 86.2179 74.6148C81.4663 79.2366 78.3031 82.3084 76.5003 85.6703C76.4936 85.2244 76.5003 84.7714 76.5204 84.3114C78.4505 81.2113 81.4931 78.2457 85.7621 74.0981C86.7875 73.1002 87.8866 72.0314 89.0594 70.8707C96.1231 63.899 95.4797 54.981 94.7291 44.6545C94.2332 37.8315 93.7171 30.775 95.4261 23.5627C97.9929 12.7549 104.36 6.98653 110.927 3.95016H110.947C111.483 3.936 111.993 3.97139 112.469 4.04217Z" fill="#0C0C0C"/>
</g>
<g opacity="0.24">
<path d="M100.164 28.0713C98.4421 35.319 99.1658 42.1066 99.8628 48.6677C100.848 57.9396 101.78 66.6948 94.5751 73.8009C93.3956 74.9617 92.2965 76.0304 91.2712 77.0284C83.5709 84.5167 80.0591 87.9424 79.6771 95.1051C79.4627 94.8503 79.2616 94.5884 79.074 94.3195C79.6905 87.3337 83.4167 83.7098 90.8155 76.5117C91.8408 75.5138 92.9399 74.445 94.1127 73.2843C101.076 66.4188 100.205 58.2298 99.1993 48.7456C98.4957 42.1207 97.7652 35.2694 99.5143 27.8944C102.892 13.6893 110.076 8.81267 117.636 7.05737C117.79 7.26263 117.944 7.46789 118.098 7.68022C110.633 9.3435 103.495 14.0361 100.164 28.0713Z" fill="#0C0C0C"/>
</g>
<path d="M50.0715 128.613C46.7481 128.528 43.1654 123.422 43.2444 120.027C43.3242 116.574 46.6 113.267 49.8577 113.351C52.6973 113.425 54.6153 116.289 54.5222 120.319C54.4002 125.581 52.7362 128.682 50.0715 128.613ZM49.8021 115.748C47.9746 115.701 45.5673 117.796 45.5143 120.085C45.4607 122.388 48.3063 126.169 50.1272 126.216C51.4306 126.25 52.1833 123.245 52.2523 120.259C52.2905 118.608 51.8173 115.8 49.8021 115.748Z" fill="#D58AE2"/>
<path d="M62.3635 131.825C61.1853 133.673 58.1856 132.745 55.1444 133.002C48.8843 133.532 48.9091 130.618 48.5512 125.805C48.1116 119.957 48.6229 113.239 48.6229 113.239L49.0391 113.234L63.929 112.907C63.929 112.907 64.5242 128.419 62.3635 131.825Z" fill="#D58AE2"/>
<path d="M63.9266 112.91C63.9347 113.319 60.5141 113.725 56.2873 113.817C52.0605 113.909 48.6272 113.652 48.6192 113.243C48.6111 112.834 52.0317 112.428 56.2585 112.336C60.4853 112.244 63.9186 112.501 63.9266 112.91Z" fill="#754A7C"/>
<path d="M56.9821 108.348C56.9432 108.347 56.903 108.34 56.8641 108.326C56.6671 108.251 56.5645 108.023 56.6349 107.815C57.6241 104.884 56.7113 103.651 55.8293 102.457C55.2791 101.713 54.7095 100.944 54.735 99.8463C54.8147 96.3995 58.0021 95.364 58.0349 95.3541C58.2326 95.2911 58.4444 95.4121 58.5047 95.6237C58.5643 95.8347 58.4504 96.0569 58.2507 96.1206C58.1401 96.1553 55.5579 97.0089 55.4916 99.8662C55.4728 100.678 55.9145 101.275 56.4258 101.965C57.3399 103.201 58.4772 104.739 57.3486 108.083C57.2917 108.249 57.1409 108.352 56.9821 108.348Z" fill="#C4B9FF"/>
<path d="M272.886 131.448H23.3103V142.922H272.886V131.448Z" fill="#FFE8C7"/>
<path d="M96.565 131.448H3.92456V142.922H96.565V131.448Z" fill="#D1B48F"/>
</svg>
