<svg width="481" height="390" viewBox="0 0 481 390" fill="none" xmlns="http://www.w3.org/2000/svg">
<path d="M370.88 113.706H350.155V186.217H370.88V113.706Z" fill="#4183C4"/>
<path d="M361.981 152.587H359.054C357.929 152.587 357.018 151.675 357.018 150.551V121.035C357.018 119.91 357.93 118.999 359.054 118.999H361.981C363.106 118.999 364.017 119.911 364.017 121.035V150.551C364.017 151.675 363.106 152.587 361.981 152.587Z" fill="#FCFCFC"/>
<g opacity="0.24">
<path d="M360.517 179.289C362.657 179.289 364.392 177.554 364.392 175.414C364.392 173.274 362.657 171.539 360.517 171.539C358.377 171.539 356.642 173.274 356.642 175.414C356.642 177.554 358.377 179.289 360.517 179.289Z" fill="#0C0C0C"/>
<path d="M360.518 179.79C358.106 179.79 356.143 177.828 356.143 175.415C356.143 173.002 358.106 171.04 360.518 171.04C362.93 171.04 364.893 173.002 364.893 175.415C364.893 177.828 362.93 179.79 360.518 179.79ZM360.518 172.04C358.657 172.04 357.143 173.554 357.143 175.415C357.143 177.276 358.657 178.79 360.518 178.79C362.379 178.79 363.893 177.276 363.893 175.415C363.893 173.554 362.379 172.04 360.518 172.04Z" fill="white"/>
</g>
<path d="M391.467 113.706H370.742V186.217H391.467V113.706Z" fill="#BD79C6"/>
<path d="M382.525 152.587H379.685C378.536 152.587 377.605 151.656 377.605 150.507V121.079C377.605 119.93 378.536 118.999 379.685 118.999H382.525C383.674 118.999 384.605 119.93 384.605 121.079V150.507C384.605 151.655 383.673 152.587 382.525 152.587Z" fill="#FCFCFC"/>
<g opacity="0.24">
<path d="M381.105 179.289C383.245 179.289 384.98 177.554 384.98 175.414C384.98 173.274 383.245 171.539 381.105 171.539C378.965 171.539 377.23 173.274 377.23 175.414C377.23 177.554 378.965 179.289 381.105 179.289Z" fill="#0C0C0C"/>
<path d="M381.105 179.79C378.693 179.79 376.73 177.828 376.73 175.415C376.73 173.002 378.693 171.04 381.105 171.04C383.517 171.04 385.48 173.002 385.48 175.415C385.48 177.828 383.517 179.79 381.105 179.79ZM381.105 172.04C379.244 172.04 377.73 173.554 377.73 175.415C377.73 177.276 379.244 178.79 381.105 178.79C382.966 178.79 384.48 177.276 384.48 175.415C384.48 173.554 382.966 172.04 381.105 172.04Z" fill="white"/>
</g>
<g opacity="0.24">
<path d="M480.471 381.385C480.451 385.932 340.274 390.42 225.173 389.913C110.072 389.406 -0.0199973 385.197 2.72458e-06 380.65C0.0200027 376.103 108.199 369.783 223.3 370.29C338.401 370.798 480.491 376.838 480.471 381.385Z" fill="#565684"/>
</g>
<path d="M207.453 241.373L266.793 372.978H252.125L195.215 245.263L207.453 241.373Z" fill="#B79C7E"/>
<path d="M135.904 251.753L80.729 374.121H95.396L149.747 252.148L135.904 251.753Z" fill="#B79C7E"/>
<path d="M134.91 101.264C118.2 106.608 114.847 115.149 110.514 128.915C107.123 139.685 99.48 240.268 123.605 257.221C133.104 263.896 183.742 262.54 209.344 261.281C218.293 260.841 233.339 262.379 235.88 248.097L237.899 201.984C237.899 201.984 185.176 171.231 181.702 163.724C178.228 156.217 182.146 112.526 182.146 112.526C182.146 112.526 168.668 90.469 134.91 101.264Z" fill="#C4B9FF"/>
<path d="M217.044 356.737C227.677 328.729 273.129 250.404 264.69 236.282C262.371 232.401 248.324 229.315 246.774 230.176C245.224 231.037 203.114 358.572 203.114 358.572C203.114 358.572 215.797 360.021 217.044 356.737Z" fill="#F4BEAB"/>
<path d="M243.67 378.461C235.65 381.531 218.7 379.031 214.35 375.231C213.54 374.521 212.83 374.031 212.22 373.721C211.84 373.521 211.5 373.391 211.19 373.311C210.31 373.081 209.69 373.281 209.27 373.601C208.62 374.111 208.43 374.911 208.43 374.911L197.51 374.481L197.56 373.161L197.59 372.161L198.01 360.681C202.66 344.441 226.41 365.101 226.41 365.101L231.86 365.831C231.86 365.831 252.18 375.201 243.67 378.461Z" fill="#925D9B"/>
<path d="M199.427 355.312C199.427 355.312 214.365 371.115 222.877 370.713C233.814 370.196 234.718 367.613 231.445 365.546C228.173 363.479 217.215 359.601 217.01 357.228C216.854 355.415 218.112 350.645 218.112 350.645C218.112 350.645 201.337 352.096 199.427 355.312Z" fill="#F4BEAB"/>
<path d="M209.75 120.961C208.55 127.871 206.48 141.691 189.42 136.101C178.41 132.481 171.3 130.271 167.58 127.311C165.54 125.701 164.52 123.861 164.43 121.441C164.17 114.621 153.32 55.311 153.58 52.541C153.67 51.551 154.21 48.241 154.85 44.411C156.01 37.551 157.53 29.021 157.53 29.021C157.53 29.021 158.74 12.321 171.14 12.581C173.4 12.621 175.56 13.081 177.62 13.861C177.77 13.921 177.92 13.981 178.07 14.041C178.19 14.081 178.3 14.131 178.41 14.191C187.29 17.971 193.717 26.878 196.387 36.118C199.747 47.748 195.88 85.431 200.6 94.561C206.43 105.851 211.56 110.541 209.75 120.961Z" fill="#9760A0"/>
<g opacity="0.24">
<path d="M197.144 134.102L196.216 133.727C196.785 132.318 197.582 130.718 198.425 129.024C202.198 121.443 206.893 112.009 199.945 104.803C193.234 97.842 192.997 78.511 192.787 61.454C192.71 55.145 192.637 49.185 192.236 44.378C190.483 23.318 175.512 19.777 175.362 19.744L175.577 18.767C175.735 18.802 191.419 22.509 193.232 44.295C193.635 49.137 193.709 55.114 193.787 61.441C193.994 78.312 194.229 97.433 200.666 104.108C208.103 111.822 203.027 122.021 199.321 129.468C198.487 131.146 197.698 132.729 197.144 134.102Z" fill="#0C0C0C"/>
</g>
<path d="M199.183 107.412C199.183 107.412 235.296 163.924 236.846 170.899C238.396 177.874 214.179 178.522 214.179 178.522L191.315 157.484L199.183 107.412Z" fill="#EFEAEA"/>
<path d="M211.305 172.894C211.305 172.894 211.915 163.557 226.642 161.581C234.096 160.581 237.165 167.917 236.29 170.917C235.415 173.917 227.229 179.087 226.642 179.087C226.055 179.087 211.305 177.082 211.305 177.082V172.894Z" fill="#D6D4D4"/>
<g opacity="0.24">
<path d="M189.525 99.331C197.346 50.382 177.099 24.653 162.805 34.248C148.512 43.842 152.591 95.466 153.091 96.675C153.591 97.884 174.666 123.376 176.877 122.415C179.088 121.453 188.423 106.227 189.525 99.331Z" fill="#0C0C0C"/>
</g>
<path d="M191.747 353.146C191.747 353.146 171.612 368.014 169.373 376.281C167.134 384.548 172.199 386.558 178.055 385.008C183.911 383.458 200.575 374.819 204.178 360.684C205.077 357.158 199.756 353.663 199.756 353.663L191.747 353.146Z" fill="#BD79C6"/>
<path d="M246.774 230.175C246.058 228.553 235.252 222.844 231.057 224.528C225.603 226.718 207.293 250.399 203.115 281.843C198.207 318.786 191.748 353.662 191.748 353.662C191.748 353.662 174.206 369.97 176.012 374.645C177.787 379.241 190.118 373.133 196.345 368.812C199.198 366.833 201.567 362.327 202.941 359.138C215.936 328.967 247.449 231.703 246.774 230.175Z" fill="#FFCCB6"/>
<path d="M172.8 114.451C172.7 116.961 170.93 122.131 167.58 127.311C161.84 136.201 150.87 148.611 136.23 144.081C127.9 141.501 122.35 138.301 118.89 134.371C118.57 134.011 118.27 133.641 117.99 133.261C115.33 129.751 114.2 125.691 114.15 121.041C114.14 120.411 114.15 119.771 114.18 119.121C114.21 118.401 114.27 117.661 114.35 116.911C115.54 105.521 128.51 99.331 133.49 88.271C137.84 78.611 132.35 50.861 138.68 30.581C142.31 18.971 152.16 5.86101 165.52 5.58101H165.55C166.35 5.56101 167.11 5.61101 167.82 5.71101C171.23 6.18101 173.72 7.86101 175.53 9.97101C175.76 10.261 175.99 10.551 176.22 10.851C176.85 11.721 177.39 12.651 177.85 13.581C177.93 13.731 178 13.881 178.07 14.041C178.12 14.141 178.16 14.251 178.21 14.351C175.65 16.821 173.65 19.891 172.53 23.281C172.35 23.831 172.23 24.371 172.17 24.901C171.69 28.551 173.74 31.771 176.72 34.041C178.6 35.471 180.77 36.441 183.06 37.001C183.79 41.011 178.497 45.038 178.597 46.058C178.877 48.828 173.08 107.621 172.8 114.451Z" fill="#BD79C6"/>
<g opacity="0.24">
<path d="M155.76 69.708C160.177 86.048 153.93 100.414 150.097 102.762C149.777 102.958 171.087 101.348 172.679 95.248C176.877 79.164 153.944 62.989 155.76 69.708Z" fill="#0C0C0C"/>
</g>
<path d="M200.6 212.591C200.6 223.741 195.23 233.641 186.94 239.831C181.26 244.071 174.22 246.591 166.59 246.591H166.37C162.59 246.571 158.95 245.921 155.55 244.751C142.19 240.181 132.59 227.511 132.59 212.591C132.59 206.311 134.3 200.421 137.27 195.371C143.17 185.321 154.09 178.581 166.59 178.581C178.47 178.581 188.93 184.671 195.01 193.911C198.54 199.271 200.6 205.691 200.6 212.591Z" fill="#4183C4"/>
<path d="M162.243 77.681C162.243 77.681 164.715 100.131 152.314 102.198H187.965C187.965 102.198 174.073 98.581 179.181 76.106C179.181 76.106 168.039 71.248 162.243 77.681Z" fill="#FFCCB6"/>
<path d="M199.203 189.05L145.3 190.121C145.3 190.121 145 188.521 144.5 185.761C141.76 170.611 133.2 120.611 137.34 110.571C137.35 110.551 137.36 110.541 137.36 110.541C137.61 109.931 137.92 109.461 138.28 109.171C138.32 109.141 138.36 109.111 138.4 109.081C138.69 108.841 138.97 108.621 139.26 108.401C146.11 103.221 152.31 102.201 152.31 102.201H187.97C187.97 102.201 194.42 104.351 198.56 106.421C200.25 107.261 203.425 122.12 209.245 139.67C213.125 151.38 199.203 189.05 199.203 189.05Z" fill="white"/>
<path d="M158.374 100.885L176.22 124.198L187.966 102.199C187.966 102.199 198.05 104.592 199.193 107.21C199.873 108.767 176.743 129.665 176.743 129.665L141.973 106.29C141.973 106.29 147.695 99.233 158.374 100.885Z" fill="#F4E6E6"/>
<path d="M220.495 170.929C216.676 173.78 212.704 177.254 213.162 179.086L241.055 179.393C241.055 179.393 241.817 175.152 236.291 170.916C231.647 167.358 225.183 167.429 220.495 170.929Z" fill="#DDA794"/>
<path d="M264.69 236.281C264.69 236.281 245.17 231.411 225.72 243.731C225.72 243.731 225.72 243.731 225.71 243.741C221.46 246.431 214.61 249.951 210.57 254.531L204.66 253.471L203.84 253.321L166.37 246.591L155.55 244.751L162.39 235.941L195.01 193.911C195.01 193.911 237.09 210.541 258.01 229.261C258.31 229.531 258.61 229.801 258.9 230.071C261.12 232.121 263.08 234.201 264.69 236.281Z" fill="#4183C4"/>
<g opacity="0.24">
<path d="M225.72 243.731C225.72 243.731 225.72 243.731 225.71 243.741C221.46 246.431 214.606 249.951 210.566 254.531L166.37 246.591C162.59 246.571 158.95 245.921 155.55 244.751C142.19 240.181 132.59 227.511 132.59 212.591C132.59 206.311 134.3 200.421 137.27 195.371C139.76 195.321 141.68 195.241 141.68 195.241C141.68 195.241 139.422 227.702 162.39 235.941C185.43 244.206 225.72 243.731 225.72 243.731Z" fill="#0C0C0C"/>
</g>
<path d="M297.72 200.168V378.921L286.427 378.911L277.632 209.171L277.259 201.933L297.72 200.168Z" fill="#D1B48F"/>
<g opacity="0.24">
<path d="M297.72 201.933V209.171H277.632L277.259 201.933H297.72Z" fill="black"/>
</g>
<path d="M33.0279 201.933L32.6549 209.171L23.7569 380.686H12.5669V201.933H33.0279Z" fill="#D1B48F"/>
<path d="M396.021 201.933V380.686H384.831L375.944 209.171L375.572 201.933H396.021Z" fill="#D1B48F"/>
<path d="M53.6929 60.148C70.3023 60.148 83.7669 46.6834 83.7669 30.074C83.7669 13.4646 70.3023 0 53.6929 0C37.0835 0 23.6189 13.4646 23.6189 30.074C23.6189 46.6834 37.0835 60.148 53.6929 60.148Z" fill="#C4B9FF"/>
<path d="M53.693 56.496C39.125 56.496 27.272 44.644 27.272 30.075C27.272 15.506 39.124 3.65399 53.693 3.65399C68.262 3.65399 80.114 15.506 80.114 30.075C80.114 44.643 68.262 56.496 53.693 56.496ZM53.693 4.74499C39.726 4.74499 28.364 16.108 28.364 30.075C28.364 44.042 39.727 55.405 53.693 55.405C67.659 55.405 79.023 44.042 79.023 30.075C79.023 16.108 67.66 4.74499 53.693 4.74499Z" fill="#8C85C9"/>
<path d="M56.0588 30.212C56.0588 31.408 55.0888 32.377 53.8928 32.377C52.6968 32.377 51.7278 31.408 51.7278 30.212C51.7278 29.016 52.6968 28.047 53.8928 28.047C55.0898 28.047 56.0588 29.016 56.0588 30.212Z" fill="#8C85C9"/>
<path d="M54.4699 30.999C54.1609 30.999 53.8529 30.868 53.6379 30.614C53.2479 30.154 53.3039 29.466 53.7629 29.076L62.2999 21.828C62.7609 21.438 63.4489 21.494 63.8379 21.953C64.2279 22.413 64.1719 23.101 63.7129 23.491L55.1759 30.739C54.9699 30.914 54.7189 30.999 54.4699 30.999Z" fill="#8C85C9"/>
<path d="M53.4248 31.628C53.3528 31.628 53.2788 31.621 53.2058 31.606L40.9678 29.116C40.3768 28.996 39.9958 28.42 40.1158 27.829C40.2358 27.238 40.8148 26.859 41.4028 26.977L53.6408 29.467C54.2318 29.587 54.6128 30.163 54.4928 30.754C54.3878 31.272 53.9338 31.628 53.4248 31.628Z" fill="#8C85C9"/>
<path d="M308.517 72.423H272.275C270.476 72.423 269.018 70.965 269.018 69.166V52.26C269.018 50.461 270.476 49.003 272.275 49.003H308.517C310.316 49.003 311.774 50.461 311.774 52.26V69.166C311.774 70.965 310.316 72.423 308.517 72.423Z" fill="#BD79C6"/>
<path d="M306.971 56.286H275.117C274.805 56.286 274.552 56.034 274.552 55.721C274.552 55.408 274.805 55.156 275.117 55.156H306.971C307.283 55.156 307.536 55.408 307.536 55.721C307.536 56.034 307.283 56.286 306.971 56.286Z" fill="#7E4C87"/>
<path d="M299.354 61.278H275.626C275.314 61.278 275.061 61.025 275.061 60.713C275.061 60.401 275.314 60.148 275.626 60.148H299.354C299.666 60.148 299.919 60.401 299.919 60.713C299.918 61.025 299.666 61.278 299.354 61.278Z" fill="#7E4C87"/>
<path d="M299.862 66.27H275.118C274.806 66.27 274.553 66.017 274.553 65.705C274.553 65.393 274.806 65.14 275.118 65.14H299.862C300.174 65.14 300.427 65.392 300.427 65.705C300.427 66.017 300.174 66.27 299.862 66.27Z" fill="#7E4C87"/>
<path d="M355.19 81.052H335.629C332.28 81.052 329.566 78.337 329.566 74.989V65.526C329.566 62.177 332.281 59.463 335.629 59.463H355.19C358.539 59.463 361.253 62.178 361.253 65.526V74.989C361.253 78.337 358.538 81.052 355.19 81.052Z" fill="#4183C4"/>
<path d="M356.558 65.829H334.657C334.345 65.829 334.092 65.576 334.092 65.264C334.092 64.952 334.345 64.699 334.657 64.699H356.558C356.87 64.699 357.123 64.951 357.123 65.264C357.123 65.577 356.87 65.829 356.558 65.829Z" fill="#2F6591"/>
<path d="M351.32 70.822H335.006C334.694 70.822 334.441 70.569 334.441 70.257C334.441 69.945 334.694 69.692 335.006 69.692H351.32C351.632 69.692 351.885 69.944 351.885 70.257C351.885 70.569 351.632 70.822 351.32 70.822Z" fill="#2F6591"/>
<path d="M351.67 75.814H334.657C334.345 75.814 334.092 75.561 334.092 75.249C334.092 74.937 334.345 74.684 334.657 74.684H351.67C351.982 74.684 352.235 74.937 352.235 75.249C352.234 75.561 351.982 75.814 351.67 75.814Z" fill="#2F6591"/>
<path d="M310.722 111.116H287.764C285.353 111.116 283.399 109.162 283.399 106.751V93.891C283.399 91.48 285.353 89.526 287.764 89.526H310.722C313.133 89.526 315.087 91.48 315.087 93.891V106.751C315.087 109.162 313.133 111.116 310.722 111.116Z" fill="#C4B9FF"/>
<path d="M310.813 95.687H288.91C288.598 95.687 288.345 95.435 288.345 95.122C288.345 94.81 288.598 94.557 288.91 94.557H310.813C311.125 94.557 311.378 94.81 311.378 95.122C311.378 95.435 311.125 95.687 310.813 95.687Z" fill="#9B95D1"/>
<path d="M305.575 100.679H289.26C288.948 100.679 288.695 100.426 288.695 100.114C288.695 99.802 288.948 99.549 289.26 99.549H305.575C305.887 99.549 306.14 99.802 306.14 100.114C306.14 100.427 305.887 100.679 305.575 100.679Z" fill="#9B95D1"/>
<path d="M305.925 105.672H288.911C288.599 105.672 288.346 105.419 288.346 105.107C288.346 104.795 288.599 104.542 288.911 104.542H305.925C306.237 104.542 306.49 104.795 306.49 105.107C306.489 105.419 306.237 105.672 305.925 105.672Z" fill="#9B95D1"/>
<g opacity="0.24">
<path d="M33.0279 201.933L32.6549 209.171H12.5669V201.933H33.0279Z" fill="black"/>
</g>
<g opacity="0.24">
<path d="M396.021 201.933V209.171H375.944L375.572 201.933H396.021Z" fill="black"/>
</g>
<path d="M139.252 201.933L138.879 209.171L129.992 383.005H118.791V201.933H139.252Z" fill="#D1B48F"/>
<g opacity="0.24">
<path d="M139.252 201.933L138.879 209.171H118.791V201.933H139.252Z" fill="black"/>
</g>
<path d="M478.607 319.441L471.978 364.542L471.144 370.199C470.31 375.909 465.412 380.142 459.639 380.142H429.684C423.794 380.142 418.834 375.73 418.137 369.872L417.577 365.091L412.184 319.272C411.772 315.757 414.516 312.675 418.052 312.675H472.758C476.369 312.675 479.135 315.873 478.607 319.441Z" fill="#9E63A8"/>
<path d="M423.915 256.758C433.425 256.744 438.935 273.635 437.597 281.972C436.259 290.309 439.571 308.483 439.571 308.483C439.571 308.483 425.027 312.461 425.586 284.295C425.725 277.31 416.497 256.769 423.915 256.758Z" fill="#8380C1"/>
<path d="M458.061 269.994C458.061 269.994 465.695 254.999 469.917 256.318C474.139 257.637 477.569 273.998 474.931 279.539C472.292 285.08 465.469 311.204 458.062 310.412C450.655 309.62 436.67 301.936 439.572 296.279C442.474 290.622 458.061 269.994 458.061 269.994Z" fill="#A099E0"/>
<path d="M441.155 320.88C439.995 315.336 432.969 301.98 432.359 296.28C429.783 293.8 419.789 281.116 412.447 281.827C404.287 282.617 419.773 305.633 429.667 316.078C429.821 313.257 441.746 323.704 441.155 320.88Z" fill="#A099E0"/>
<path d="M465.994 315.937C463.64 317.161 460.326 317.89 456.716 318.301C456.03 318.385 455.344 318.459 454.637 318.512C447.861 319.061 440.493 318.66 436.62 318.354C434.868 318.217 433.221 317.446 431.986 316.19C431.617 315.81 431.194 315.377 430.73 314.902C429.463 313.593 428.376 306.458 428.038 304.695C427.194 300.125 425.663 256.353 445.485 227.76C447.628 224.667 449.939 223.337 452.019 223.243C452.452 223.222 452.863 223.253 453.275 223.338C456.304 223.929 458.647 227.148 458.954 231.085C460.273 248.437 460.706 275.416 451.924 284.915C438.572 299.344 447.955 305.117 452.283 300.79C455.734 297.349 463.746 279.511 469.604 280.366C469.963 280.419 470.322 280.545 470.66 280.746C471.747 281.379 472.739 282.815 473.573 285.274C478.987 301.149 475.018 311.25 465.994 315.937Z" fill="#C4B9FF"/>
<path d="M438.143 315.704C438.185 315.989 437.985 316.253 437.7 316.295C437.668 316.306 437.647 316.306 437.616 316.306C437.363 316.306 437.141 316.116 437.099 315.852C437.004 315.219 428.338 255.077 452.024 223.243C452.457 223.222 452.868 223.253 453.28 223.338C429.351 254.655 438.048 315.071 438.143 315.704Z" fill="#A099E0"/>
<path d="M470.659 280.746C470.1 287.923 467.556 309.403 456.716 318.301C454.594 320.053 452.156 321.309 449.349 321.89L449.138 320.856C451.165 320.444 452.991 319.632 454.637 318.513C466.342 310.607 469.055 287.323 469.604 280.367C469.962 280.419 470.321 280.546 470.659 280.746Z" fill="#A099E0"/>
<path d="M438.983 256.764C438.856 256.764 438.728 256.719 438.627 256.626C438.412 256.43 438.396 256.096 438.593 255.881L452.024 241.142C452.221 240.927 452.555 240.91 452.769 241.108C452.984 241.304 453 241.638 452.803 241.853L439.372 256.592C439.269 256.707 439.126 256.764 438.983 256.764Z" fill="#A099E0"/>
<path d="M436.814 277.916C436.687 277.916 436.56 277.871 436.459 277.779C436.244 277.584 436.227 277.25 436.423 277.034L448.856 263.309C449.053 263.095 449.387 263.078 449.601 263.273C449.816 263.468 449.833 263.802 449.637 264.018L437.205 277.743C437.101 277.858 436.958 277.916 436.814 277.916Z" fill="#A099E0"/>
<path d="M436.067 297.051C435.889 297.051 435.713 296.96 435.615 296.795C433.961 294.043 429.625 286.833 429.414 286.516C429.252 286.274 429.318 285.946 429.56 285.784C429.8 285.623 430.128 285.687 430.292 285.93C430.56 286.332 436.277 295.846 436.52 296.25C436.67 296.501 436.589 296.824 436.339 296.975C436.254 297.027 436.16 297.051 436.067 297.051Z" fill="#A099E0"/>
<path d="M464.016 307.603C463.803 307.603 463.602 307.473 463.522 307.262L459.836 297.493C459.733 297.22 459.871 296.916 460.143 296.813C460.419 296.713 460.721 296.847 460.823 297.12L464.509 306.888C464.612 307.161 464.474 307.465 464.202 307.568C464.141 307.592 464.078 307.603 464.016 307.603Z" fill="#A099E0"/>
<path d="M438.235 313.202C438.131 313.202 438.026 313.171 437.934 313.108C437.695 312.941 437.635 312.612 437.801 312.373C437.982 312.112 442.257 305.969 444.546 303.967C444.765 303.777 445.097 303.796 445.291 304.018C445.483 304.238 445.46 304.57 445.24 304.763C443.049 306.678 438.711 312.912 438.668 312.975C438.566 313.123 438.402 313.202 438.235 313.202Z" fill="#A099E0"/>
<path d="M478.607 319.441L477.562 326.523L477.414 327.579L472.58 360.458C471.894 365.081 468.527 368.976 463.957 369.968C463.007 370.179 462.015 370.285 461.002 370.285H428.059C422.359 370.232 417.663 365.767 416.987 360.11L413.166 327.58L413.039 326.524L412.184 319.273C411.772 315.758 414.516 312.676 418.052 312.676H472.758C476.369 312.675 479.135 315.873 478.607 319.441Z" fill="#BD79C6"/>
<path d="M477.562 326.523L477.414 327.579H413.166L413.04 326.523H477.562Z" fill="#9E63A8"/>
<path d="M154.242 100.646L176.22 124.197L187.966 102.198L174.263 99.331L154.242 100.646Z" fill="#FFCCB6"/>
<g opacity="0.24">
<path d="M162.243 77.681C162.243 77.681 177.112 79.081 179.638 76.331C179.638 76.331 178.518 79.175 177.93 79.998C176.888 81.456 172.52 82.094 170.14 81.997C165.055 81.789 162.243 77.681 162.243 77.681Z" fill="#333232"/>
</g>
<path d="M189.93 52.582C189.93 68.002 182.223 80.502 171.005 80.502C159.788 80.502 150.694 68.002 150.694 52.582C150.694 37.162 159.787 24.662 171.005 24.662C182.223 24.662 189.93 37.162 189.93 52.582Z" fill="#FFCCB6"/>
<path d="M172.108 62.702C172.053 62.702 171.999 62.69 171.947 62.665C171.759 62.576 171.68 62.352 171.769 62.165C172.117 61.437 174.215 59.787 175.336 58.939C174.57 58.573 173.74 57.797 172.995 56.73C171.721 54.905 170.612 52.04 171.319 49.472C171.374 49.272 171.581 49.155 171.78 49.21C171.979 49.265 172.097 49.471 172.042 49.671C171.404 51.989 172.434 54.615 173.61 56.301C174.468 57.53 175.479 58.363 176.186 58.422C176.342 58.435 176.473 58.543 176.516 58.693C176.558 58.844 176.502 59.005 176.376 59.097C174.999 60.108 172.715 61.922 172.445 62.487C172.382 62.624 172.247 62.702 172.108 62.702Z" fill="#DDA794"/>
<path d="M171.71 69.151C169.191 69.151 167.323 68.232 166.899 67.904C166.711 67.758 166.642 67.594 166.693 67.417C166.75 67.217 166.96 67.102 167.156 67.159C167.25 67.186 167.326 67.246 167.373 67.324C167.881 67.714 172.146 69.676 176.687 67.018C176.865 66.914 177.095 66.974 177.2 67.152C177.305 67.331 177.245 67.561 177.066 67.665C175.156 68.783 173.303 69.151 171.71 69.151Z" fill="#DDA794"/>
<path d="M153.901 45.779C153.182 45.961 155.385 43.23 161.222 42.91C162.968 42.814 165.838 43.014 166.43 43.665C166.952 44.238 166.722 45.788 163.607 45.457C161.451 45.227 157.421 44.889 153.901 45.779Z" fill="#76497F"/>
<path d="M160.758 50.968C160.594 52.144 161.056 53.181 161.791 53.284C162.526 53.387 163.255 52.516 163.419 51.34C163.583 50.164 163.121 49.127 162.386 49.024C161.651 48.921 160.922 49.791 160.758 50.968Z" fill="#2B2B2B"/>
<path d="M157.977 49.163L164.001 48.702L163.916 50.558L158.033 49.748L157.977 49.163Z" fill="#2B2B2B"/>
<path d="M187.839 46.05C188.558 46.232 186.635 43.207 180.798 42.887C179.052 42.791 177.551 42.661 176.711 43.191C175.298 44.081 176.803 45.826 178.721 45.511C180.86 45.158 184.319 45.161 187.839 46.05Z" fill="#76497F"/>
<path d="M183.648 51.215C183.76 52.397 183.252 53.413 182.514 53.483C181.775 53.553 181.085 52.652 180.973 51.469C180.861 50.287 181.368 49.271 182.107 49.201C182.845 49.132 183.535 50.033 183.648 51.215Z" fill="#2B2B2B"/>
<path d="M185.653 49.61L179.709 48.528L179.601 50.383L185.537 50.186L185.653 49.61Z" fill="#2B2B2B"/>
<path d="M171.967 71.997C170.822 71.997 170.112 71.401 170.068 71.364C169.912 71.229 169.894 70.992 170.029 70.835C170.163 70.678 170.399 70.66 170.556 70.794C170.605 70.835 171.801 71.807 173.607 70.756C173.783 70.652 174.014 70.712 174.12 70.891C174.225 71.07 174.164 71.3 173.984 71.404C173.223 71.847 172.54 71.997 171.967 71.997Z" fill="#DDA794"/>
<path d="M144.677 131.831C144.677 131.831 150.43 157.706 145.809 164.221C143.589 167.352 146.673 172.06 156.304 168.893C165.935 165.726 188.5 163.83 190.346 167.664C190.346 167.664 194.388 155.859 169.179 162.331C158.881 164.974 151.581 164.373 151.327 158.643C151.074 152.914 144.677 131.831 144.677 131.831Z" fill="#EFEAEA"/>
<path d="M137.359 110.537C137.359 110.537 109.986 159.236 113.43 185.759H186.513C186.513 185.759 194.936 164.993 187.013 162.582C179.09 160.171 146.889 173.243 145.856 166.354C144.823 159.465 153.811 143.275 150.695 132.942C147.578 122.607 137.359 110.537 137.359 110.537Z" fill="white"/>
<path d="M190.119 167.042C190.119 167.042 196.925 165.374 205.743 168.276C213.126 170.706 221.431 179.394 221.431 179.394L207.323 179.087C207.323 179.087 207.343 179.615 203.037 179.615C198.731 179.615 190.12 180.304 190.12 180.304V167.042H190.119Z" fill="#FFCCB6"/>
<path d="M113.43 172.415H48.5701V185.759H113.43V172.415Z" fill="#9BB2BA"/>
<path d="M162.62 172.415H106.206V185.734H162.62V172.415Z" fill="#BFD4DD"/>
<g opacity="0.65">
<path d="M162.619 174.991H48.5701V176.12H162.619V174.991Z" fill="#52767F"/>
</g>
<g opacity="0.65">
<path d="M162.619 178.522H48.5701V179.651H162.619V178.522Z" fill="#52767F"/>
</g>
<g opacity="0.65">
<path d="M162.619 182.211H48.5701V183.34H162.619V182.211Z" fill="#52767F"/>
</g>
<path d="M240.438 179.087H181.382V185.719H240.438V179.087Z" fill="#8988E5"/>
<path d="M258.862 123.744L224.978 185.759H321.588L352.528 125.982L258.862 123.744Z" fill="#8988E5"/>
<path d="M262.564 123.832L228.728 185.759H325.338L356.277 125.982L262.564 123.832Z" fill="#C5C3F4"/>
<path d="M220.127 184.102H213.086C212.612 184.102 212.229 183.718 212.229 183.245V181.946C212.229 181.472 212.613 181.088 213.086 181.088H220.127C220.601 181.088 220.984 181.472 220.984 181.946V183.245C220.984 183.718 220.6 184.102 220.127 184.102Z" fill="#6867A5"/>
<path d="M205.179 184.102H198.262C197.754 184.102 197.343 183.691 197.343 183.183V182.007C197.343 181.499 197.754 181.088 198.262 181.088H205.179C205.687 181.088 206.098 181.499 206.098 182.007V183.183C206.098 183.691 205.687 184.102 205.179 184.102Z" fill="#6867A5"/>
<path d="M178.41 14.191L173.82 24.931H173.57L172.17 24.901L168.76 24.831L169.86 23.461L177.62 13.861L177.85 13.581C177.93 13.731 178 13.881 178.07 14.041C178.19 14.081 178.3 14.131 178.41 14.191Z" fill="#794E82"/>
<path d="M189.263 51.873C189.501 51.396 191.88 50.579 192.346 52.582C193.596 57.956 188.471 62.581 188.471 62.581C188.471 62.581 188.339 53.731 189.263 51.873Z" fill="#FFCCB6"/>
<path d="M306.347 156.311H292.14C291.043 156.311 290.153 155.422 290.153 154.324V153.416C290.153 152.319 291.042 151.429 292.14 151.429H306.347C307.444 151.429 308.334 152.318 308.334 153.416V154.324C308.334 155.421 307.444 156.311 306.347 156.311Z" fill="#F0F0FF"/>
<path d="M150.95 133.951C150.93 135.791 150.82 137.751 150.59 139.851C150.56 140.111 150.35 140.301 150.1 140.301H150.04C149.77 140.271 149.57 140.021 149.6 139.751C149.96 136.381 150.04 133.371 149.9 130.671C149.13 116.071 141.87 110.781 138.4 109.081C138.69 108.841 138.97 108.621 139.26 108.401C143.37 110.591 151.17 116.991 150.95 133.951Z" fill="#EFEAEA"/>
<path d="M191.018 56.331C190.984 56.331 190.949 56.324 190.915 56.309C190.789 56.252 190.732 56.104 190.79 55.978C191.496 54.415 191.389 53.706 191.175 53.386C190.949 53.049 190.541 53.052 190.515 53.06C190.403 53.054 190.261 52.958 190.255 52.821C190.249 52.684 190.354 52.568 190.491 52.561C190.518 52.555 191.195 52.532 191.585 53.101C192.006 53.718 191.892 54.756 191.245 56.185C191.204 56.277 191.112 56.331 191.018 56.331Z" fill="#DDA794"/>
<path d="M189.305 60.498C189.263 60.498 189.22 60.487 189.181 60.465C189.061 60.397 189.02 60.244 189.088 60.124L190.401 57.832C190.468 57.711 190.622 57.669 190.742 57.739C190.862 57.807 190.903 57.96 190.835 58.08L189.522 60.372C189.476 60.453 189.392 60.498 189.305 60.498Z" fill="#DDA794"/>
<g opacity="0.24">
<path d="M258.9 230.071C227.54 227.901 211.01 244.791 204.66 253.471L203.84 253.321C210.09 244.681 226.58 227.451 258.01 229.261C258.31 229.531 258.61 229.801 258.9 230.071Z" fill="#0C0C0C"/>
</g>
<g opacity="0.24">
<path d="M174.074 24.986C154.555 40.706 156.2 71.301 156.34 72.151L150.69 60.711C150.69 60.711 161.26 20.581 161.64 20.581C161.81 20.811 165.142 23.557 168.632 24.777L168.76 24.831L172.17 24.901L173.57 24.931C173.836 24.893 174.074 24.986 174.074 24.986Z" fill="#0C0C0C"/>
</g>
<path d="M171.776 19.831C171.776 19.831 155.2 44.355 154.436 59.193C153.801 71.521 159.096 77.351 154.171 76.885C149.889 76.48 138.68 51.498 138.68 51.498C138.68 51.498 148.18 22.22 148.68 22.025C149.18 21.831 172.251 17.048 171.776 19.831Z" fill="#BD79C6"/>
<g opacity="0.24">
<path d="M167.82 5.71101C157.6 9.68101 147.34 17.671 143.37 33.541C140.85 43.571 141.61 53.451 142.34 63.021C143.44 77.241 144.47 90.681 133.57 100.861C131.82 102.501 130.18 104.011 128.65 105.421C121.56 111.951 116.84 116.291 114.15 121.041C114.14 120.411 114.15 119.771 114.18 119.121C117.06 114.741 121.6 110.551 127.97 104.691C129.5 103.281 131.14 101.771 132.89 100.131C143.43 90.281 142.47 77.681 141.35 63.091C140.61 53.451 139.84 43.481 142.39 33.291C146.22 18.021 155.72 9.87101 165.52 5.58101H165.55C166.35 5.56101 167.11 5.61101 167.82 5.71101Z" fill="#0C0C0C"/>
</g>
<g opacity="0.24">
<path d="M149.46 39.661C146.89 49.901 147.97 59.491 149.01 68.761C150.48 81.861 151.87 94.231 141.12 104.271C139.36 105.911 137.72 107.421 136.19 108.831C124.7 119.411 119.46 124.251 118.89 134.371C118.57 134.011 118.27 133.641 117.99 133.261C118.91 123.391 124.47 118.271 135.51 108.101C137.04 106.691 138.68 105.181 140.43 103.541C150.82 93.841 149.52 82.271 148.02 68.871C146.97 59.511 145.88 49.831 148.49 39.411C153.53 19.341 164.25 12.451 175.53 9.97101C175.76 10.261 175.99 10.551 176.22 10.851C165.08 13.201 154.43 19.831 149.46 39.661Z" fill="#0C0C0C"/>
</g>
<path d="M74.7141 181.714C69.7551 181.593 64.4091 174.379 64.5271 169.583C64.6461 164.704 69.5341 160.032 74.3951 160.151C78.6321 160.255 81.4941 164.302 81.3551 169.995C81.1731 177.43 78.6901 181.811 74.7141 181.714ZM74.3121 163.537C71.5851 163.47 67.9931 166.43 67.9141 169.665C67.8341 172.918 72.0801 178.261 74.7971 178.327C76.7421 178.375 77.8651 174.129 77.9681 169.911C78.0251 167.578 77.3191 163.61 74.3121 163.537Z" fill="#D58AE2"/>
<path d="M93.0551 186.252C91.2971 188.863 86.8211 187.551 82.2831 187.915C72.9421 188.664 72.9791 184.547 72.4451 177.746C71.7891 169.484 72.5521 159.992 72.5521 159.992L73.1731 159.985L95.3911 159.523C95.3911 159.523 96.2791 181.44 93.0551 186.252Z" fill="#D58AE2"/>
<path d="M95.3881 159.527C95.4001 160.105 90.2961 160.679 83.9891 160.809C77.6821 160.939 72.5591 160.576 72.5471 159.998C72.5351 159.42 77.6391 158.846 83.9461 158.716C90.2531 158.586 95.3761 158.949 95.3881 159.527Z" fill="#754A7C"/>
<path d="M85.0251 153.082C84.9671 153.081 84.9071 153.07 84.8491 153.05C84.5551 152.945 84.4021 152.622 84.5071 152.329C85.9831 148.187 84.6211 146.445 83.3051 144.759C82.4841 143.708 81.6341 142.621 81.6721 141.07C81.7911 136.2 86.5471 134.737 86.5961 134.723C86.8911 134.634 87.2071 134.805 87.2971 135.104C87.3861 135.402 87.2161 135.716 86.9181 135.806C86.7531 135.855 82.9001 137.061 82.8011 141.098C82.7731 142.245 83.4321 143.088 84.1951 144.064C85.5591 145.809 87.2561 147.982 85.5721 152.708C85.4871 152.942 85.2621 153.087 85.0251 153.082Z" fill="#C4B9FF"/>
<path d="M407.186 185.719H34.782V201.93H407.186V185.719Z" fill="#FFE8C7"/>
<path d="M144.089 185.719H5.85596V201.93H144.089V185.719Z" fill="#D1B48F"/>
</svg>
