<?xml version="1.0" encoding="UTF-8"?>
<svg version="1.1" xmlns="http://www.w3.org/2000/svg" width="512" height="512">
<path d="M0 0 C1.060979 0.00054382 2.12195801 0.00108765 3.21508789 0.00164795 C19.7016791 0.04046989 35.53426367 0.80786068 51.6875 4.375 C52.71085449 4.59462402 53.73420898 4.81424805 54.78857422 5.04052734 C101.12158479 15.204872 143.50094854 37.44846715 177.6875 70.375 C178.6765332 71.32318604 178.6765332 71.32318604 179.68554688 72.29052734 C189.17380305 81.43497479 197.9137044 90.73234009 205.6875 101.375 C206.54556152 102.52605017 207.40363451 103.67709177 208.26171875 104.828125 C213.89355191 112.4715568 218.94353855 120.40349781 223.67480469 128.63330078 C224.37647329 129.84007605 225.09730992 131.0358316 225.83300781 132.22216797 C229.29182326 137.90841197 229.29182326 137.90841197 228.6875 141.625 C227.6875 145.375 227.6875 145.375 226 147.375 C222.9356637 148.7001184 221.0000739 148.84822484 217.6875 148.375 C213.15702896 145.44437427 210.98098556 141.80597627 208.5625 137.125 C201.84901304 124.68922152 193.76754233 113.19820232 184.6875 102.375 C178.68927972 104.25370766 173.01044986 106.48183471 167.3125 109.125 C153.49592414 115.38518183 139.36020338 120.52132097 124.6875 124.375 C124.45927485 126.60368529 124.45927485 126.60368529 126.625 128.4375 C128.24421118 130.01611814 129.88729347 131.55527103 131.56640625 133.0703125 C158.53193576 158.39705293 176.72852757 199.68374182 179.6875 236.375 C179.6875 240.335 179.6875 244.295 179.6875 248.375 C199.8175 248.375 219.9475 248.375 240.6875 248.375 C238.303674 225.33134867 235.74400918 203.63804154 228.56713867 181.79077148 C227.19420242 177.54292568 226.1690705 173.89947562 226.6875 169.375 C229.14344125 166.05225596 230.6131644 164.59881992 234.6875 163.75 C238.5504867 164.5547889 240.45840779 166.23723326 242.6875 169.375 C244.18646263 172.72068458 245.19011596 176.16403941 246.1875 179.6875 C246.62968872 181.19872437 246.62968872 181.19872437 247.08081055 182.74047852 C249.1599955 190.03878444 250.92972698 197.38901037 252.5 204.8125 C252.79197266 206.19272339 252.79197266 206.19272339 253.08984375 207.60083008 C256.30871289 223.67675794 257.0940336 239.3346231 257.0625 255.6875 C257.06168427 257.27896851 257.06168427 257.27896851 257.06085205 258.90258789 C257.02203011 275.3891791 256.25463932 291.22176367 252.6875 307.375 C252.46787598 308.39835449 252.24825195 309.42170898 252.02197266 310.47607422 C239.41111651 367.9612295 206.88826213 422.50501067 159.6875 458.375 C159.14722168 458.79168945 158.60694336 459.20837891 158.05029297 459.63769531 C148.0552884 467.3209873 137.59540964 474.06342968 126.6875 480.375 C126.01025879 480.76929199 125.33301758 481.16358398 124.63525391 481.56982422 C102.28096689 494.42751444 77.58034359 502.7696794 52.4375 508.125 C51.50413818 508.32391846 50.57077637 508.52283691 49.60913086 508.7277832 C33.48179079 511.99133297 17.78570486 512.78164511 1.375 512.75 C0.314021 512.74945618 -0.74695801 512.74891235 -1.84008789 512.74835205 C-18.3266791 512.70953011 -34.15926367 511.94213932 -50.3125 508.375 C-51.33585449 508.15537598 -52.35920898 507.93575195 -53.41357422 507.70947266 C-94.70293096 498.65158396 -133.25046718 480.03234461 -165.3125 452.375 C-166.05757813 451.74078125 -166.80265625 451.1065625 -167.5703125 450.453125 C-181.07529833 438.64198485 -193.74668743 425.89139772 -204.3125 411.375 C-205.16899066 410.22505169 -206.02576433 409.07531411 -206.8828125 407.92578125 C-212.9234414 399.73410474 -218.28255071 391.21854922 -223.3125 382.375 C-223.67698242 381.74319824 -224.04146484 381.11139648 -224.41699219 380.46044922 C-237.26898753 358.0063232 -245.68808662 333.35748282 -251.0625 308.125 C-251.36087769 306.72495728 -251.36087769 306.72495728 -251.6652832 305.29663086 C-254.92883297 289.16929079 -255.71914511 273.47320486 -255.6875 257.0625 C-255.68695618 256.001521 -255.68641235 254.94054199 -255.68585205 253.84741211 C-255.64703011 237.3608209 -254.87963932 221.52823633 -251.3125 205.375 C-251.09287598 204.35164551 -250.87325195 203.32829102 -250.64697266 202.27392578 C-241.58908396 160.98456904 -222.96984461 122.43703282 -195.3125 90.375 C-194.67828125 89.62992187 -194.0440625 88.88484375 -193.390625 88.1171875 C-181.57948485 74.61220167 -168.82889772 61.94081257 -154.3125 51.375 C-153.16255169 50.51850934 -152.01281411 49.66173567 -150.86328125 48.8046875 C-142.67160474 42.7640586 -134.15604922 37.40494929 -125.3125 32.375 C-124.68069824 32.01051758 -124.04889648 31.64603516 -123.39794922 31.27050781 C-97.67390658 16.54692089 -68.56204285 6.95780503 -39.3125 2.375 C-38.21268799 2.19839844 -37.11287598 2.02179687 -35.97973633 1.83984375 C-23.9994481 0.11749951 -12.08855149 -0.02331061 0 0 Z M8.6875 16.375 C8.6875 36.505 8.6875 56.635 8.6875 77.375 C15.2875 78.035 21.8875 78.695 28.6875 79.375 C32.43310375 80.019379 36.01549829 80.67237352 39.6875 81.5625 C40.59137451 81.77608154 41.49524902 81.98966309 42.42651367 82.2097168 C58.29520042 86.10745866 73.09319861 92.09675384 87.6875 99.375 C85.66550491 92.52146795 82.85565106 86.35990192 79.5 80.0625 C79.01168701 79.14041748 78.52337402 78.21833496 78.02026367 77.26831055 C72.24432283 66.49962333 65.57708241 56.72227668 57.6875 47.375 C57.00042969 46.55257812 56.31335938 45.73015625 55.60546875 44.8828125 C42.20245055 29.37878063 28.68566502 20.98996116 8.6875 16.375 Z M-51.1796875 41.18359375 C-64.91848095 55.52564866 -74.91990592 72.91871453 -83.4375 90.75 C-83.74526367 91.38687744 -84.05302734 92.02375488 -84.37011719 92.67993164 C-85.08213165 94.21666109 -85.70621461 95.79357026 -86.3125 97.375 C-85.9825 98.035 -85.6525 98.695 -85.3125 99.375 C-84.47074219 98.90191406 -83.62898437 98.42882812 -82.76171875 97.94140625 C-59.20253859 85.19825385 -33.80216434 79.58247203 -7.3125 77.375 C-7.3125 57.245 -7.3125 37.115 -7.3125 16.375 C-24.24534386 16.375 -39.92728027 30.02825698 -51.1796875 41.18359375 Z M-99.3125 37.375 C-99.99231934 37.68663086 -100.67213867 37.99826172 -101.37255859 38.31933594 C-125.67213457 49.62842202 -147.0998978 64.73935282 -166.3125 83.375 C-167.08851563 84.10460937 -167.86453125 84.83421875 -168.6640625 85.5859375 C-170.53837097 87.21468748 -170.53837097 87.21468748 -170.3125 89.375 C-158.2230978 95.32421979 -145.89734183 100.07723953 -133.125 104.3125 C-132.40958038 104.55110748 -131.69416077 104.78971497 -130.95706177 105.03555298 C-123.47936142 107.51983703 -116.06019633 109.86682774 -108.3125 111.375 C-108.05146484 110.70146484 -107.79042969 110.02792969 -107.52148438 109.33398438 C-102.34328581 96.03027634 -97.07723477 82.95416172 -90.3125 70.375 C-89.97428223 69.72805176 -89.63606445 69.08110352 -89.28759766 68.41455078 C-81.36174389 53.27465795 -71.4216127 40.17494881 -59.61328125 27.8515625 C-57.31080329 25.60588237 -57.31080329 25.60588237 -56.3125 23.375 C-70.74454637 23.375 -86.39723495 31.45182172 -99.3125 37.375 Z M57.6875 23.375 C61.61220955 28.01340263 61.61220955 28.01340263 65.703125 32.50390625 C76.81605378 44.3163899 85.11591272 58.11240705 92.6875 72.375 C93.02346191 72.99777832 93.35942383 73.62055664 93.70556641 74.26220703 C100.10800741 86.19615728 104.92166769 98.71492591 109.6875 111.375 C131.24981395 106.14167293 151.6326634 98.86425456 171.6875 89.375 C158.58941409 61.47342498 111.47542736 40.40622319 84.16259766 30.45507812 C81.3858942 29.47022773 78.60200387 28.51046037 75.8125 27.5625 C74.93247314 27.26013428 74.05244629 26.95776855 73.14575195 26.64624023 C67.96351172 24.92930691 63.12748752 23.86093856 57.6875 23.375 Z M-71.3125 109.375 C-72.24304199 109.81900146 -72.24304199 109.81900146 -73.19238281 110.27197266 C-87.82728596 117.31544788 -100.61710846 127.152723 -112.3125 138.375 C-113.25351563 139.25285156 -114.19453125 140.13070312 -115.1640625 141.03515625 C-127.78121835 153.02176239 -137.39022627 166.93472951 -145.3125 182.375 C-145.63057617 182.98666016 -145.94865234 183.59832031 -146.27636719 184.22851562 C-165.1974485 221.04257351 -168.09241297 266.73071192 -155.6328125 306.10546875 C-155.20787874 309.11627989 -155.84437263 310.73955424 -157.3125 313.375 C-160.625 314.875 -160.625 314.875 -164.3125 315.375 C-167.40539413 314.01895633 -168.95188294 313.06167019 -170.53515625 310.046875 C-174.82877141 295.10908829 -177.02335493 279.84474087 -178.3125 264.375 C-198.4425 264.375 -218.5725 264.375 -239.3125 264.375 C-239.3125 272.17773835 -239.21017489 279.40888885 -238.1875 287.0625 C-238.05698242 288.03944824 -237.92646484 289.01639648 -237.79199219 290.02294922 C-231.39270152 334.69737641 -213.00275949 377.23503754 -183.3125 411.375 C-177.32794842 409.50303017 -171.67804976 407.27371911 -166 404.625 C-156.31861426 400.21861705 -146.39512576 396.73794094 -136.3125 393.375 C-134.77989012 392.85954681 -133.2473359 392.34392811 -131.71484375 391.828125 C-128.25106533 390.66587101 -124.78329508 389.51615535 -121.3125 388.375 C-122.055 387.63765625 -122.7975 386.9003125 -123.5625 386.140625 C-135.69101109 373.94320191 -150.11926854 358.68789072 -156.3125 342.375 C-156.0125 336.075 -156.0125 336.075 -153.3125 333.375 C-150.52191372 332.46994499 -148.76037625 332.26936198 -145.89453125 332.9453125 C-142.3997392 334.88040159 -141.12166293 337.5875846 -139.3125 341 C-124.24375436 367.52676948 -100.25733606 388.54982984 -73.3125 402.375 C-72.70083984 402.69307617 -72.08917969 403.01115234 -71.45898438 403.33886719 C-33.55481492 422.82022603 11.34785548 424.41361377 51.66796875 412.04296875 C58.93174439 409.70102014 65.84687074 406.74588003 72.6875 403.375 C73.81542969 402.81941406 74.94335938 402.26382812 76.10546875 401.69140625 C106.56977198 385.93149789 131.06499867 360.75378939 146.6875 330.375 C147.00557617 329.76865723 147.32365234 329.16231445 147.65136719 328.53759766 C167.16181918 290.97437111 168.62113144 245.34461492 156.3515625 205.38671875 C154.00757951 198.11815755 151.04231082 191.22760773 147.6875 184.375 C147.39149902 183.75463867 147.09549805 183.13427734 146.79052734 182.49511719 C139.74705212 167.86021404 129.909777 155.07039154 118.6875 143.375 C117.80964844 142.43398437 116.93179687 141.49296875 116.02734375 140.5234375 C104.04073761 127.90628165 90.12777049 118.29727373 74.6875 110.375 C74.07583984 110.05692383 73.46417969 109.73884766 72.83398438 109.41113281 C28.39312312 86.5701531 -26.74623233 87.55682462 -71.3125 109.375 Z M-183.3125 101.375 C-195.36235677 113.81879439 -204.1853558 129.2085676 -212.3125 144.375 C-212.64991211 144.99391113 -212.98732422 145.61282227 -213.33496094 146.25048828 C-230.14448542 177.27021078 -239.3125 213.14172945 -239.3125 248.375 C-219.1825 248.375 -199.0525 248.375 -178.3125 248.375 C-177.6525 241.775 -176.9925 235.175 -176.3125 228.375 C-175.66812299 224.62940779 -175.0152096 221.04697661 -174.125 217.375 C-173.91141846 216.47185059 -173.69783691 215.56870117 -173.4777832 214.63818359 C-169.64101678 199.02726372 -163.97754147 184.48268903 -156.3125 170.375 C-155.99168457 169.76962402 -155.67086914 169.16424805 -155.34033203 168.54052734 C-147.77521693 154.29782461 -137.92597362 141.81700386 -126.4375 130.5 C-124.4962141 128.5587141 -122.92997836 126.58401331 -121.3125 124.375 C-122.11131592 124.11920166 -122.91013184 123.86340332 -123.7331543 123.59985352 C-141.19054122 117.97857743 -158.12149898 111.88371718 -174.81005859 104.22949219 C-175.61910645 103.86243164 -176.4281543 103.49537109 -177.26171875 103.1171875 C-177.99092529 102.78315918 -178.72013184 102.44913086 -179.47143555 102.10498047 C-181.29228115 101.25213884 -181.29228115 101.25213884 -183.3125 101.375 Z M179.6875 264.375 C179.0275 270.975 178.3675 277.575 177.6875 284.375 C176.88940419 288.64715995 176.06902966 292.74697478 175 296.9375 C174.60917236 298.50745728 174.60917236 298.50745728 174.21044922 300.10913086 C166.22690499 331.15598441 150.75468961 359.65125634 127.8125 382.25 C125.8712141 384.1912859 124.30497836 386.16598669 122.6875 388.375 C123.88572388 388.75869751 123.88572388 388.75869751 125.1081543 389.15014648 C142.47101591 394.74098543 159.76041801 400.39885151 176.11474609 408.59082031 C177.30124756 409.16848145 177.30124756 409.16848145 178.51171875 409.7578125 C179.21772217 410.11504395 179.92372559 410.47227539 180.65112305 410.84033203 C182.71936417 411.58661457 182.71936417 411.58661457 184.81152344 410.62866211 C213.48549602 391.46665675 230.01222877 336.56861838 236.62109375 305.015625 C237.77835637 299.12072157 238.6954078 293.2026186 239.5 287.25 C239.6861084 285.88319092 239.6861084 285.88319092 239.87597656 284.48876953 C240.71983239 277.6470653 240.6875 271.38874579 240.6875 264.375 C220.5575 264.375 200.4275 264.375 179.6875 264.375 Z M109.6875 401.375 C109.42646484 402.04853516 109.16542969 402.72207031 108.89648438 403.41601562 C103.71967981 416.71614223 98.47069095 429.80807377 91.6875 442.375 C91.15624512 443.37732666 91.15624512 443.37732666 90.61425781 444.39990234 C83.59459942 457.59971012 74.99315304 469.04489391 65.265625 480.3671875 C62.71107682 483.34749371 60.19413041 486.35442018 57.6875 489.375 C64.56796442 488.80162796 70.66818282 486.97362302 77.1875 484.75 C78.25194336 484.3888208 79.31638672 484.0276416 80.41308594 483.65551758 C100.79344123 476.63030736 120.14771926 466.98243767 137.6875 454.375 C138.28449707 453.9517041 138.88149414 453.5284082 139.49658203 453.09228516 C149.98626823 445.62072107 159.49570259 437.38894112 168.6875 428.375 C169.52317505 427.60361694 169.52317505 427.60361694 170.37573242 426.81665039 C171.91183438 425.45330771 171.91183438 425.45330771 171.6875 423.375 C159.5980978 417.42578021 147.27234183 412.67276047 134.5 408.4375 C133.78458038 408.19889252 133.06916077 407.96028503 132.33206177 407.71444702 C124.85436142 405.23016297 117.43519633 402.88317226 109.6875 401.375 Z M-170.3125 423.375 C-165.78721383 433.94202462 -153.26175159 441.63830362 -144.3125 448.375 C-143.36117187 449.09816406 -142.40984375 449.82132812 -141.4296875 450.56640625 C-134.65420023 455.61345289 -127.5828158 460.08008747 -120.3125 464.375 C-119.70809082 464.7373877 -119.10368164 465.09977539 -118.48095703 465.47314453 C-104.39239046 473.88537394 -89.64503816 480.03916606 -74.125 485.3125 C-72.83396362 485.75456787 -72.83396362 485.75456787 -71.5168457 486.20556641 C-66.4249257 487.88113613 -61.65303304 488.88837704 -56.3125 489.375 C-60.23720955 484.73659737 -60.23720955 484.73659737 -64.328125 480.24609375 C-84.75470204 458.53367103 -98.70612307 429.3023996 -108.3125 401.375 C-127.6913954 401.375 -153.11033746 414.80071337 -170.3125 423.375 Z M-86.3125 413.375 C-84.29050491 420.22853205 -81.48065106 426.39009808 -78.125 432.6875 C-77.63668701 433.60958252 -77.14837402 434.53166504 -76.64526367 435.48168945 C-70.86932283 446.25037667 -64.20208241 456.02772332 -56.3125 465.375 C-55.62542969 466.19742188 -54.93835938 467.01984375 -54.23046875 467.8671875 C-40.82745055 483.37121937 -27.31066502 491.76003884 -7.3125 496.375 C-7.3125 476.245 -7.3125 456.115 -7.3125 435.375 C-13.5825 434.715 -19.8525 434.055 -26.3125 433.375 C-47.36862686 429.65078709 -67.25962726 423.10853282 -86.3125 413.375 Z M86.6875 413.375 C85.8109375 413.8596875 84.934375 414.344375 84.03125 414.84375 C60.2820795 427.55349201 35.34151088 432.70959891 8.6875 435.375 C8.6875 455.505 8.6875 475.635 8.6875 496.375 C37.64784436 489.69184361 56.23680441 471.00426907 71.6875 446.375 C76.51107536 438.48411572 80.82699076 430.34352429 84.8125 422 C85.12026367 421.36312256 85.42802734 420.72624512 85.74511719 420.07006836 C86.45713165 418.53333891 87.08121461 416.95642974 87.6875 415.375 C87.1925 414.385 87.1925 414.385 86.6875 413.375 Z " fill="#EFAFFA" transform="translate(255.3125,-0.375)"/>
<path d="M0 0 C9.26568036 7.26133964 15.19364433 16.86409991 17.05859375 28.61328125 C18.04574873 40.3155548 15.30647597 51.72005891 8.15234375 61.1171875 C-0.25137607 71.0448213 -9.86775308 76.51655288 -22.84765625 77.9296875 C-33.85293425 78.378587 -44.09520644 75.12595113 -52.94140625 68.61328125 C-53.78703125 68.05640625 -54.63265625 67.49953125 -55.50390625 66.92578125 C-64.09713832 58.77322774 -68.94668975 48.77087245 -69.41186523 36.98022461 C-69.57409069 23.98207735 -66.09707703 13.42676033 -57.19921875 3.7109375 C-41.08953433 -11.56318238 -17.80034883 -12.78705986 0 0 Z M-47.94140625 17.61328125 C-52.59580047 24.94462475 -53.87537167 31.98721863 -52.94140625 40.61328125 C-50.08554003 49.2164301 -44.80027474 55.14451289 -36.94140625 59.61328125 C-29.78051251 62.16207394 -22.64627693 62.39051296 -15.44921875 59.671875 C-7.65967876 55.69842278 -2.67350011 49.95335725 0.05859375 41.61328125 C1.60510084 34.60244912 1.47709672 27.7689133 -2.203125 21.4453125 C-7.04635656 14.66987308 -12.65096914 9.51286631 -20.94140625 7.61328125 C-31.77990019 6.33507437 -40.70357673 9.3438154 -47.94140625 17.61328125 Z " fill="#EFAFFA" transform="translate(331.94140625,164.38671875)"/>
<path d="M0 0 C6.72693933 4.71970743 11.48344832 10.03400904 13.52832031 18.07836914 C14.1558837 21.96555915 14.18221254 25.77128434 14.203125 29.703125 C14.20882507 30.54035095 14.21452515 31.3775769 14.22039795 32.24017334 C14.22982074 34.00857287 14.23637109 35.77698974 14.24023438 37.54541016 C14.2499177 40.22720621 14.28095738 42.90822798 14.3125 45.58984375 C14.31903339 47.31509966 14.32428254 49.040361 14.328125 50.765625 C14.3404718 51.55656555 14.3528186 52.3475061 14.36553955 53.16241455 C14.32699376 62.97503376 11.24482469 69.79514104 4.4453125 76.82421875 C-2.02944801 82.58530757 -8.28636386 83.68229497 -16.8515625 83.3828125 C-24.53074864 82.44911493 -30.80827045 78.67718997 -36 73 C-39.47451939 68.13144852 -41.09859378 63.58850589 -41.17700195 57.6496582 C-41.18983719 56.79809647 -41.20267242 55.94653473 -41.21589661 55.06916809 C-41.22328354 54.15560043 -41.23067047 53.24203278 -41.23828125 52.30078125 C-41.246353 51.35116013 -41.25442474 50.401539 -41.26274109 49.42314148 C-41.27656016 47.41337904 -41.28729203 45.40359335 -41.29516602 43.39379883 C-41.30667204 41.34848098 -41.32710192 39.30319284 -41.35668945 37.25805664 C-41.3995721 34.29292523 -41.41556484 31.32868511 -41.42578125 28.36328125 C-41.44328934 27.45983475 -41.46079742 26.55638824 -41.47883606 25.62556458 C-41.45252382 17.82495842 -39.13844194 12.17711373 -34.8125 5.75 C-25.42591081 -3.42799832 -11.8862195 -6.2132511 0 0 Z M-23 17 C-25.72345164 20.73021454 -25.32348884 25.06378821 -25.3359375 29.4921875 C-25.3425943 30.31574738 -25.3492511 31.13930725 -25.35610962 31.98782349 C-25.36622003 33.7276995 -25.37092714 35.46761417 -25.37060547 37.20751953 C-25.37497373 39.85905408 -25.41129465 42.50891657 -25.44921875 45.16015625 C-25.4550884 46.854161 -25.4590568 48.54817362 -25.4609375 50.2421875 C-25.47530853 51.02987518 -25.48967957 51.81756287 -25.50448608 52.62911987 C-25.46128999 57.87606675 -24.4361882 60.81523953 -21 65 C-17.58449489 67.59107284 -14.16674536 67.50288306 -10 67 C-5.17420827 63.90420908 -3.42010486 61.46429876 -2 56 C-1.69561015 52.53936438 -1.69561015 52.53936438 -1.734375 48.87890625 C-1.73246155 48.21592026 -1.7305481 47.55293427 -1.72857666 46.86985779 C-1.72722329 45.47565326 -1.73086011 44.08143576 -1.73925781 42.68725586 C-1.74995293 40.57180997 -1.73934301 38.45721642 -1.7265625 36.34179688 C-1.72788458 34.97916482 -1.73044797 33.61653329 -1.734375 32.25390625 C-1.73663086 31.03002197 -1.73888672 29.8061377 -1.74121094 28.54516602 C-2.10696367 23.53469865 -2.72909622 19.37983839 -6.1875 15.625 C-12.87952191 11.75849845 -17.07516482 12.70159016 -23 17 Z " fill="#EFAFFA" transform="translate(315,273)"/>
<path d="M0 0 C7.43244457 5.21469901 12.04129911 11.12108583 14 20 C14.13105726 22.92574026 14.21190909 25.82713567 14.23828125 28.75390625 C14.246353 29.60999985 14.25442474 30.46609344 14.26274109 31.34812927 C14.27655776 33.16118359 14.2872907 34.97426366 14.29516602 36.78735352 C14.30664422 38.62499721 14.32702953 40.46260866 14.35668945 42.30004883 C14.54388555 53.90725261 14.33335602 63.49996074 8.375 73.8125 C0.83468619 80.75752587 -6.54271376 83.37832286 -16.640625 83.27734375 C-24.32040578 82.64331534 -30.93830311 78.77164918 -36 73 C-38.96626496 68.24856646 -41.08736788 63.45870499 -41.20874023 57.81079102 C-41.22803085 56.96883682 -41.24732147 56.12688263 -41.26719666 55.25941467 C-41.32541351 51.38433487 -41.37429431 47.50943563 -41.4050293 43.6340332 C-41.42650793 41.60228371 -41.46048864 39.57062416 -41.50756836 37.53930664 C-42.02155461 15.13426192 -42.02155461 15.13426192 -35 6 C-25.5927585 -3.35923954 -12.02502918 -6.28581071 0 0 Z M-22 16 C-25.37569849 20.26960469 -25.45314561 24.35111834 -25.43359375 29.58984375 C-25.4388356 30.41198868 -25.44407745 31.23413361 -25.44947815 32.08119202 C-25.45588401 33.81510288 -25.45457996 35.54905729 -25.44604492 37.28295898 C-25.43753779 39.92576034 -25.46630925 42.56639646 -25.49804688 45.20898438 C-25.49965924 46.89843686 -25.49908067 48.58789314 -25.49609375 50.27734375 C-25.50732773 51.06189438 -25.51856171 51.84644501 -25.53013611 52.6547699 C-25.46421327 57.88447165 -24.41940706 60.8276739 -21 65 C-17.57368419 67.59927406 -14.17728341 67.56641131 -10 67 C-6.89023324 65.10335017 -3.67320125 62.91303743 -2.42626953 59.36962891 C-1.82850565 56.04666429 -1.81718457 52.74828116 -1.796875 49.3828125 C-1.78832489 48.28064896 -1.78832489 48.28064896 -1.77960205 47.15621948 C-1.77017627 45.60464914 -1.76362771 44.05305901 -1.75976562 42.50146484 C-1.7500614 40.13994097 -1.71901709 37.77928858 -1.6875 35.41796875 C-1.68096888 33.90625514 -1.67571884 32.39453534 -1.671875 30.8828125 C-1.6595282 30.18261993 -1.6471814 29.48242737 -1.63446045 28.76101685 C-1.65907726 23.28708036 -2.91053177 19.16409209 -6.75 15.1875 C-12.35415591 12.22975105 -16.80625848 12.4588126 -22 16 Z " fill="#EFAFFA" transform="translate(249,273)"/>
<path d="M0 0 C2.75489998 2.16136462 4.38261191 3.84893547 5.796875 7.0703125 C5.58568053 11.18860472 3.51009945 13.66958805 0.671875 16.5078125 C-5.13369708 17.33717994 -8.51377141 15.64389311 -13.3125 12.69921875 C-17.81278984 10.03916371 -22.24876579 10.01769889 -27.328125 10.5078125 C-30.34793601 11.49977223 -30.34793601 11.49977223 -32.328125 13.5078125 C-33.40085062 15.95321036 -33.40085062 15.95321036 -33.328125 18.5078125 C-30.98961601 22.01557598 -29.89238498 22.29382803 -26.015625 23.671875 C-24.40107422 24.27322266 -24.40107422 24.27322266 -22.75390625 24.88671875 C-20.50515436 25.70467981 -18.25261922 26.51232861 -15.99609375 27.30859375 C-6.62253015 30.83340948 1.620298 35.88552363 6.296875 45.0703125 C8.9496975 52.37189061 8.05252353 58.14727163 4.9921875 65.11328125 C0.70199765 72.89401017 -5.97788203 76.60273961 -14.28125 79.09375 C-25.54076865 81.37143889 -36.60831503 78.30746991 -46.0859375 72.17578125 C-49.42735532 69.69009238 -52.39383201 67.25448926 -54.328125 63.5078125 C-54.38908516 59.85020301 -54.09691146 57.72168586 -52.140625 54.6328125 C-49.4324852 52.95189814 -47.52312605 52.57045958 -44.328125 52.5078125 C-41.328125 54.1953125 -41.328125 54.1953125 -38.328125 56.5078125 C-31.62786547 61.46017824 -25.65431155 63.2760371 -17.37890625 62.046875 C-14.24051357 61.22192607 -12.46877564 59.91604447 -10.328125 57.5078125 C-9.08411222 55.12172639 -9.08411222 55.12172639 -9.328125 52.5078125 C-12.16920105 48.12522804 -14.89672673 46.46757497 -19.703125 44.5703125 C-20.6159021 44.19592041 -20.6159021 44.19592041 -21.54711914 43.81396484 C-24.7169131 42.51610286 -27.91029528 41.28730701 -31.11328125 40.07421875 C-39.9118833 36.60182928 -45.5458301 33.19337164 -49.765625 24.5703125 C-51.34682173 15.96157474 -50.29416629 9.88163139 -45.328125 2.5078125 C-33.71378628 -10.91069535 -13.85867566 -8.882574 0 0 Z " fill="#EFAFFA" transform="translate(244.328125,162.4921875)"/>
<path d="M0 0 C6.86960172 3.9572463 11.34696879 9.29113446 14.75 16.4375 C18.22068171 32.05556769 12.3516252 47.47955155 4.5 60.8125 C2.32846374 63.97025635 -0.00652386 66.90544248 -2.5 69.8125 C-2.95375 70.38613281 -3.4075 70.95976562 -3.875 71.55078125 C-7.0304096 75.52462521 -10.13505194 78.90290459 -14.9375 80.75 C-18.45774461 80.83585962 -20.53453991 79.63221415 -23.5 77.8125 C-25.05024464 74.71201072 -24.78992015 72.23355782 -24.5 68.8125 C-22.625 65.875 -22.625 65.875 -20.5 63.8125 C-19.84 63.8125 -19.18 63.8125 -18.5 63.8125 C-18.273125 63.27625 -18.04625 62.74 -17.8125 62.1875 C-16.06617944 59.02749137 -13.8597151 56.5448017 -11.5 53.8125 C-12.29664063 53.64234375 -13.09328125 53.4721875 -13.9140625 53.296875 C-24.09619039 50.96811582 -30.31981022 47.30245768 -36.5 38.8125 C-40.12133649 32.69193128 -40.52791284 25.7423457 -39.5 18.8125 C-36.76760777 10.35657404 -32.31595023 4.16337896 -24.5 -0.1875 C-16.51381432 -3.37118213 -7.84938742 -3.73668443 0 0 Z M-21.5 17.8125 C-23.85898416 21.56328482 -23.71032234 24.34651542 -23.09765625 28.62109375 C-22.12575756 32.18472226 -20.48985323 33.7326021 -17.5 35.8125 C-13.3959168 37.00641511 -11.27313893 37.09499307 -7.25 35.625 C-3.1630934 32.93135701 -1.8588341 31.19657437 -0.625 26.4375 C-0.4787717 22.19687942 -1.12176676 20.30057541 -3.5 16.8125 C-6.38932788 14.40472677 -8.19478136 13.85134601 -11.9375 13.375 C-16.18345227 13.89643274 -18.23817577 15.08167041 -21.5 17.8125 Z " fill="#EFAFFA" transform="translate(181.5,274.1875)"/>
<path d="M0 0 C0.75990234 -0.01224609 1.51980469 -0.02449219 2.30273438 -0.03710938 C6.50317944 -0.04805754 9.93522717 0.06848664 13.6875 2.1875 C16.16625041 5.90562561 15.94636475 7.81550084 15.9621582 12.25756836 C15.9698246 13.33123405 15.9698246 13.33123405 15.97764587 14.42658997 C15.99155023 16.79359286 15.9905845 19.16030486 15.98828125 21.52734375 C15.99216776 23.17257292 15.99650234 24.81780109 16.00126648 26.46302795 C16.00873052 29.91215263 16.00843613 33.36117494 16.00317383 36.81030273 C15.99737931 41.23009971 16.01430865 45.64947761 16.0375185 50.06920528 C16.05225128 53.46727447 16.05312817 56.86524263 16.05000877 60.26333809 C16.05052223 61.89282626 16.05576456 63.52232005 16.06582069 65.15177727 C16.07815909 67.43080742 16.0714097 69.70902002 16.05981445 71.98803711 C16.06044388 73.2847081 16.0610733 74.58137909 16.0617218 75.91734314 C15.66428964 79.39032492 15.19634049 80.79615898 12.6875 83.1875 C8.71405839 84.29123378 6.59750228 84.60293583 2.8125 82.875 C0.6875 81.1875 0.6875 81.1875 -0.3125 79.1875 C-0.4038666 77.21643455 -0.43001968 75.24222084 -0.42602539 73.26904297 C-0.42594986 72.02790741 -0.42587433 70.78677185 -0.42579651 69.50802612 C-0.4206895 68.14857951 -0.4154735 66.78913331 -0.41015625 65.4296875 C-0.40829142 64.04249116 -0.40686782 62.65529416 -0.40586853 61.26809692 C-0.40204848 57.61515488 -0.39222255 53.96225252 -0.38116455 50.30932617 C-0.37093944 46.58252499 -0.36636855 42.85571741 -0.36132812 39.12890625 C-0.35059983 31.81508606 -0.33352954 24.50129859 -0.3125 17.1875 C-2.20162109 17.23003906 -2.20162109 17.23003906 -4.12890625 17.2734375 C-7.99979047 17.36060173 -10.20444691 16.6362691 -13.3125 14.1875 C-14.85836876 11.09576248 -14.60609521 8.59320448 -14.3125 5.1875 C-10.14664406 -0.08925086 -6.35930535 0.0053127 0 0 Z " fill="#EFAFFA" transform="translate(354.3125,270.8125)"/>
<path d="M0 0 C2.19322205 1.54760742 2.19322205 1.54760742 4 4 C4.40004107 6.65465304 4.55787979 8.89747718 4.53344727 11.55078125 C4.54206284 12.30571869 4.55067841 13.06065613 4.55955505 13.83847046 C4.5822301 16.33016388 4.57547435 18.8207341 4.56640625 21.3125 C4.57164093 23.04598322 4.57791684 24.77946359 4.58518982 26.51293945 C4.59559662 30.14450492 4.59102833 33.77567861 4.57641602 37.40722656 C4.55922139 42.06157874 4.58272951 46.71469723 4.61790562 51.36891174 C4.63986271 54.9480406 4.63844242 58.52687343 4.6301403 62.10604858 C4.62931997 63.82206577 4.63619914 65.53810452 4.65091133 67.25405884 C4.66832863 69.65321788 4.65384192 72.05014948 4.63110352 74.44921875 C4.64279572 75.15791107 4.65448792 75.86660339 4.66653442 76.59677124 C4.59566697 80.27076782 4.23092482 81.75280592 1.68711853 84.47583008 C-1 86 -1 86 -4.625 85.9375 C-7.84839166 85.04211343 -9.09276958 84.64893115 -11 82 C-12.48131093 79.03737815 -12.14370133 76.36558657 -12.16113281 73.05932617 C-12.16609772 72.34530136 -12.17106262 71.63127655 -12.17617798 70.89561462 C-12.19080978 68.52805626 -12.19760378 66.16056494 -12.203125 63.79296875 C-12.20887627 62.14870705 -12.214634 60.50444537 -12.22039795 58.86018372 C-12.23091128 55.40930875 -12.23675155 51.9584571 -12.24023438 48.50756836 C-12.24571535 44.08898983 -12.26973331 39.67072005 -12.29820633 35.25223827 C-12.31684633 31.85414231 -12.32203906 28.45612045 -12.32357025 25.05797768 C-12.32659498 23.42930732 -12.3346175 21.80063822 -12.34775543 20.17201805 C-12.36484242 17.89072708 -12.3629294 15.61018672 -12.35644531 13.32885742 C-12.36009094 12.03139084 -12.36373657 10.73392426 -12.36749268 9.3971405 C-11.97484139 5.76743118 -11.19595652 3.88338984 -9 1 C-5.90826248 -0.54586876 -3.40570448 -0.29359521 0 0 Z " fill="#EFAFFA" transform="translate(175,156)"/>
</svg>
