<?xml version="1.0" standalone="no"?>
<!DOCTYPE svg PUBLIC "-//W3C//DTD SVG 20010904//EN"
 "http://www.w3.org/TR/2001/REC-SVG-20010904/DTD/svg10.dtd">
<svg version="1.0" xmlns="http://www.w3.org/2000/svg"
 width="512.000000pt" height="512.000000pt" viewBox="0 0 512.000000 512.000000"
 preserveAspectRatio="xMidYMid meet">

<g transform="translate(0.000000,512.000000) scale(0.100000,-0.100000)"
fill= "#EFAFFA" stroke="none">
<path d="M1248 4850 c-74 -13 -146 -39 -233 -83 -112 -57 -244 -190 -302 -302
-70 -136 -88 -210 -88 -360 0 -108 4 -142 23 -205 33 -103 82 -196 143 -271
64 -79 77 -109 94 -216 15 -95 42 -140 98 -167 31 -14 82 -16 394 -16 353 0
359 1 398 23 52 29 81 83 88 162 8 84 24 120 97 217 122 161 164 284 164 473
0 178 -38 297 -140 442 -93 131 -263 248 -419 289 -71 18 -250 27 -317 14z
m259 -106 c286 -59 497 -300 520 -594 12 -154 -38 -313 -137 -445 -84 -110
-108 -160 -124 -261 -10 -61 -19 -92 -32 -101 -22 -16 -684 -19 -714 -3 -21
11 -40 67 -40 117 0 55 -39 139 -102 220 -175 224 -206 481 -87 723 52 104
170 227 264 276 59 31 165 69 215 77 59 10 166 6 237 -9z"/>
<path d="M1161 4545 c-136 -66 -252 -217 -268 -353 -7 -58 6 -82 42 -82 30 0
43 17 60 84 33 127 114 222 229 271 75 32 93 60 61 95 -25 27 -39 25 -124 -15z"/>
<path d="M2780 3985 c-367 -75 -620 -383 -620 -755 0 -285 142 -529 394 -675
l48 -28 -99 -28 c-228 -64 -448 -189 -621 -353 -41 -40 -46 -42 -150 -56 -131
-18 -132 -20 -132 -166 l0 -102 -54 -6 c-76 -10 -138 -53 -170 -118 -26 -52
-26 -54 -26 -297 0 -278 5 -298 75 -359 43 -38 62 -47 128 -56 l47 -7 0 -269
c0 -148 4 -280 9 -293 13 -34 32 -38 119 -25 124 20 534 16 672 -5 159 -25
275 -51 411 -94 l116 -35 79 25 c152 49 302 83 479 109 114 16 532 17 637 0
87 -13 106 -9 119 25 5 13 9 145 9 293 l0 269 48 7 c65 9 84 18 127 56 70 61
75 81 75 359 l0 245 -26 53 c-33 66 -92 107 -170 117 l-54 6 0 108 c0 143 -2
146 -135 161 l-100 12 -70 64 c-169 155 -395 279 -611 336 l-86 23 68 41 c194
117 332 317 369 537 23 139 -4 326 -69 461 -147 310 -503 488 -836 420z m278
-101 c423 -87 653 -544 473 -938 -105 -230 -350 -386 -606 -386 -304 0 -580
217 -649 510 -20 83 -20 237 0 320 80 342 434 566 782 494z m149 -1453 c121
-25 250 -69 354 -121 83 -42 244 -147 272 -177 17 -20 15 -20 -124 -27 -252
-12 -492 -52 -694 -117 l-90 -28 -90 28 c-201 65 -442 105 -696 117 l-143 7
35 30 c51 44 185 130 264 170 133 66 304 117 461 137 110 14 336 4 451 -19z
m-947 -431 c153 -14 359 -52 500 -92 l115 -33 3 -747 c1 -412 1 -748 -1 -748
-2 0 -40 11 -85 24 -109 33 -242 61 -387 82 -129 19 -497 26 -632 11 l-73 -7
0 244 0 244 53 7 c96 13 175 74 196 152 6 22 11 139 11 271 0 261 -4 279 -68
345 -37 38 -107 67 -164 67 l-28 0 0 80 c0 61 4 82 14 86 54 21 377 29 546 14z
m1845 -8 l40 -7 3 -83 3 -82 -29 0 c-16 0 -51 -7 -79 -15 -61 -18 -126 -83
-142 -141 -14 -51 -14 -477 0 -527 21 -78 100 -139 197 -152 l52 -7 0 -244 0
-244 -72 7 c-136 15 -504 8 -633 -11 -127 -18 -286 -52 -397 -85 l-68 -20 0
747 0 747 73 23 c153 46 376 88 567 106 64 6 437 -3 485 -12z m-2298 -298 c50
-37 53 -52 53 -295 0 -219 -1 -227 -23 -260 -32 -48 -79 -61 -204 -57 -84 3
-107 7 -130 24 -52 38 -53 50 -51 305 3 221 4 238 23 259 37 42 72 50 192 48
95 -3 116 -6 140 -24z m2559 -16 l34 -38 0 -232 c0 -250 -3 -265 -53 -302 -23
-17 -46 -21 -130 -24 -125 -4 -172 9 -205 58 -23 34 -23 37 -20 271 3 220 4
239 23 259 37 42 72 50 198 48 l119 -3 34 -37z"/>
<path d="M1020 3131 c-14 -28 -13 -38 10 -61 19 -19 33 -20 345 -20 312 0 326
1 345 20 24 24 25 43 4 64 -13 14 -60 16 -354 16 -325 0 -340 -1 -350 -19z"/>
<path d="M1027 2962 c-22 -24 -21 -45 1 -65 17 -15 55 -17 345 -17 314 0 328
1 347 20 24 24 24 29 4 58 -15 22 -15 22 -348 22 -310 0 -334 -1 -349 -18z"/>
<path d="M1144 2785 c-15 -23 -15 -27 0 -50 l16 -25 213 0 c152 0 216 3 225
12 19 19 15 66 -7 78 -12 6 -103 10 -225 10 l-206 0 -16 -25z"/>
</g>
</svg>
