<?xml version="1.0" encoding="UTF-8"?>
<svg version="1.1" xmlns="http://www.w3.org/2000/svg" width="512" height="512">
<path d="M0 0 C0.77267166 -0.00205263 1.54534331 -0.00410527 2.34142926 -0.0062201 C4.93986139 -0.01189072 7.53824052 -0.01043277 10.13667774 -0.00901413 C12.01477568 -0.01159773 13.89287307 -0.01461087 15.77096969 -0.01801753 C20.93948721 -0.02609138 26.10799085 -0.02787732 31.27651393 -0.028615 C36.84790697 -0.03046488 42.41929278 -0.03801187 47.99068165 -0.04475021 C60.17661781 -0.05833668 72.36255068 -0.06435871 84.54849315 -0.06876087 C92.15605251 -0.0715227 99.76361059 -0.07575994 107.37116909 -0.08026505 C128.43036505 -0.092458 149.48956017 -0.10279272 170.54875946 -0.10614014 C171.91041553 -0.10636177 173.27207159 -0.10658355 174.63372766 -0.10680549 C175.99865815 -0.10702613 177.36358865 -0.10724661 178.72851914 -0.10746694 C181.46677029 -0.10790949 184.20502144 -0.1083566 186.94327259 -0.10880661 C187.62219884 -0.108916 188.30112508 -0.10902539 189.00062485 -0.1091381 C211.01415209 -0.11276862 233.0276464 -0.12868881 255.04116103 -0.15199697 C278.31897999 -0.17659871 301.59677758 -0.19030641 324.87461215 -0.19150805 C337.5622124 -0.19242512 350.24976953 -0.19818542 362.9373579 -0.21632767 C373.74063779 -0.23172097 384.54386122 -0.23685364 395.34714999 -0.22858956 C400.85921643 -0.22468039 406.37116915 -0.22562584 411.88322163 -0.23964691 C416.93094885 -0.25236947 421.97847673 -0.25120267 427.02620361 -0.2390562 C428.8505826 -0.23709637 430.67497564 -0.24019084 432.49933489 -0.24890056 C446.66671112 -0.31224569 457.40668544 0.55542937 467.97867298 10.76033401 C475.8230088 19.21260586 476.87901007 27.70265807 476.8125658 38.92679214 C476.81861486 40.31607338 476.82639685 41.70534796 476.83575094 43.09461087 C476.85625183 46.89355572 476.85196279 50.69212184 476.84338975 54.49109733 C476.83844438 58.59554254 476.85649708 62.69989783 476.87146473 66.80430984 C476.89693337 74.8383189 476.90054927 82.87219418 476.8958642 90.90623681 C476.89229452 97.43863866 476.89580427 103.97099998 476.90431309 110.50339699 C476.90550347 111.43400964 476.90669384 112.3646223 476.90792029 113.32343533 C476.91034386 115.21414176 476.91277213 117.10484818 476.91520505 118.99555459 C476.9369466 136.71780284 476.93263569 154.43997494 476.92043535 172.16222747 C476.91009926 188.36199314 476.93260346 204.56151821 476.97063179 220.76123629 C477.0094111 237.40894461 477.02589657 254.05653918 477.01838529 270.70429295 C477.01456441 280.04518533 477.01950523 289.38587298 477.04781437 298.72672844 C477.07167291 306.6793442 477.07441771 314.63162921 477.05023403 322.58424965 C477.0384774 326.63857232 477.03619746 330.69229052 477.06023884 334.74657249 C477.08202999 338.46472677 477.07566712 342.18177464 477.04771547 345.89987793 C477.03996 347.86796489 477.06145791 349.83610167 477.08430922 351.80407125 C476.9681637 361.41159753 474.58934115 369.33379797 468.07852042 376.60119802 C459.4552574 384.93856806 450.22955389 387.29991645 438.47040272 387.25168228 C437.31727646 387.25296392 437.31727646 387.25296392 436.14085472 387.25427145 C433.57521414 387.25591332 431.00963953 387.25042611 428.44400501 387.24495316 C426.60077891 387.24467098 424.7575527 387.24482961 422.91432667 387.24539566 C417.9168976 387.24568244 412.91949256 387.23980489 407.92206907 387.2328217 C402.69703163 387.22656841 397.47199362 387.2259828 392.24695301 387.2247963 C382.35546785 387.22168881 372.46399375 387.21348327 362.57251346 387.20344681 C351.3101959 387.19226758 340.04787781 387.18677065 328.78555608 387.18175137 C305.62075537 387.17130018 282.45596526 387.15351046 259.29117298 387.13142776 C259.29117298 397.36142776 259.29117298 407.59142776 259.29117298 418.13142776 C263.58117298 418.13142776 267.87117298 418.13142776 272.29117298 418.13142776 C284.03689878 420.24565841 291.4515568 424.1354011 298.78336048 433.59236526 C302.9946969 440.68399395 303.79132527 446.78219617 303.72867298 454.88142776 C303.74865345 455.81341995 303.76863392 456.74541214 303.78921986 457.70564651 C303.78437238 464.46302611 303.78437238 464.46302611 301.38882923 467.70955276 C297.76368439 470.16682041 295.62015839 470.26030602 291.23787403 470.27186966 C289.94657078 470.2775798 288.65526752 470.28328995 287.32483387 470.28917313 C285.88547239 470.29041855 284.44611081 470.29154363 283.00674915 470.29256058 C281.49734341 470.29718773 279.98793885 470.30221225 278.47853565 470.30760574 C274.3710118 470.32074234 270.26350429 470.32717724 266.15596271 470.3316164 C263.59066691 470.33454531 261.0253756 470.33864979 258.46008205 470.34312057 C250.43662288 470.3567993 242.41317395 470.36646392 234.38970393 470.37032247 C225.12281668 470.37480322 215.85607693 470.39235031 206.58923453 470.42132306 C199.42993656 470.4429307 192.27068012 470.45302627 185.11134988 470.45436358 C180.83379725 470.45541235 176.5563832 470.46133506 172.27886486 470.4791832 C168.25448511 470.49564791 164.23034833 470.49782726 160.20594692 470.48904419 C158.72932377 470.48827293 157.25268764 470.49262826 155.7760973 470.50250244 C153.75924542 470.51519774 151.74229618 470.50756223 149.72542286 470.49892044 C148.5969805 470.500387 147.46853815 470.50185356 146.30590057 470.50336456 C142.90864507 470.08423405 141.02491271 469.15865424 138.29117298 467.13142776 C136.45117063 463.45142305 137.02015181 459.12002653 136.97867298 455.06892776 C136.94966908 454.1517598 136.92066517 453.23459183 136.89078236 452.28963089 C136.79956841 442.38940969 140.51159823 434.32050703 147.29117298 427.13142776 C157.33231764 418.30799647 168.14582104 418.13142776 181.29117298 418.13142776 C181.29117298 407.90142776 181.29117298 397.67142776 181.29117298 387.13142776 C178.96840824 387.13586899 176.6456435 387.14031021 174.25249195 387.14488602 C152.37239131 387.1857639 130.49229571 387.21552334 108.61216545 387.23505211 C97.36314415 387.24535936 86.11415089 387.25940921 74.86514759 387.28230667 C65.05914222 387.30225736 55.25315716 387.31514821 45.44713205 387.31960475 C40.25618947 387.32220928 35.065305 387.32831966 29.87438107 387.34288788 C24.98496982 387.35649827 20.09564043 387.36064341 15.20621204 387.35764313 C13.4152116 387.35819174 11.62420832 387.36214852 9.8332243 387.36983871 C-4.0314853 387.42643363 -15.92930157 387.08996706 -26.75570202 377.27595901 C-34.93265816 368.52242264 -36.29962462 360.06030293 -36.23021984 348.33606339 C-36.2362689 346.94678215 -36.24405088 345.55750757 -36.25340497 344.16824466 C-36.27390587 340.36929981 -36.26961683 336.57073369 -36.26104379 332.7717582 C-36.25609842 328.66731299 -36.27415111 324.5629577 -36.28911877 320.45854568 C-36.3145874 312.42453663 -36.31820331 304.39066135 -36.31351824 296.35661872 C-36.30994856 289.82421687 -36.31345831 283.29185555 -36.32196712 276.75945854 C-36.3231575 275.82884589 -36.32434788 274.89823323 -36.32557433 273.9394202 C-36.3279979 272.04871377 -36.33042617 270.15800735 -36.33285908 268.26730094 C-36.35460064 250.54505269 -36.35028973 232.82288059 -36.33808939 215.10062806 C-36.32775329 198.90086238 -36.3502575 182.70133732 -36.38828583 166.50161924 C-36.42706513 149.85391092 -36.44355061 133.20631635 -36.43603933 116.55856258 C-36.43221845 107.2176702 -36.43715927 97.87698255 -36.46546841 88.53612709 C-36.48932695 80.58351133 -36.49207174 72.63122631 -36.46788807 64.67860588 C-36.45613143 60.62428321 -36.4538515 56.57056501 -36.47789288 52.51628304 C-36.49968403 48.79812876 -36.49332116 45.08108089 -36.46536951 41.3629776 C-36.45761404 39.39489064 -36.47911195 37.42675386 -36.50196326 35.45878428 C-36.37769692 25.17950609 -33.32750128 16.9381989 -26.45882702 9.19392776 C-18.73766739 2.17625157 -10.17526235 -0.02516089 0 0 Z M-15.64632702 23.19392776 C-18.26179902 26.91899395 -18.83377502 28.50362364 -18.83187485 32.96903038 C-18.83386572 33.99745426 -18.83585659 35.02587814 -18.83790779 36.08546638 C-18.83499513 37.22325602 -18.83208246 38.36104565 -18.82908154 39.53331375 C-18.82993755 40.73267563 -18.83079357 41.93203751 -18.83167553 43.16774368 C-18.83304738 46.51392058 -18.82989347 49.86003962 -18.82489975 53.20620957 C-18.82054732 56.86358849 -18.82199342 60.52096584 -18.82271767 64.17834663 C-18.82325034 71.28483451 -18.81862317 78.3913098 -18.81221634 85.49779444 C-18.80502997 93.71413376 -18.80422234 101.93046547 -18.80343151 110.14680862 C-18.79817636 131.85001701 -18.78421531 153.55322257 -18.77132702 175.25642776 C-18.75070202 223.72517776 -18.73007702 272.19392776 -18.70882702 322.13142776 C139.03117298 322.13142776 296.77117298 322.13142776 459.29117298 322.13142776 C459.41492298 273.78642776 459.53867298 225.44142776 459.66617298 175.63142776 C459.720797 160.35539261 459.77542103 145.07935745 459.83170033 129.34041214 C459.85176451 115.67031122 459.85176451 115.67031122 459.86383533 102.00020218 C459.86943478 95.90207958 459.891461 89.80428609 459.92462635 83.70625687 C459.96281869 76.67353154 459.98018878 69.64112231 459.97184268 62.60829249 C459.96822787 59.01053497 459.97395875 55.41348391 460.00646377 51.81585598 C460.04107279 47.96191724 460.02913428 44.10891806 460.01270008 40.25484085 C460.03017607 39.13452721 460.04765205 38.01421356 460.06565762 36.85995102 C459.99463417 30.67416721 459.14328515 26.69583278 455.35955679 21.74818277 C450.01224586 17.56844994 443.95521607 16.68701326 437.30132008 16.75390434 C436.53471794 16.74954402 435.76811579 16.7451837 434.97828329 16.74069124 C432.41841634 16.72977317 429.85909233 16.7401407 427.29922962 16.75047684 C425.44186376 16.74701891 423.58449995 16.74225344 421.72714043 16.7362951 C416.62989597 16.72377402 411.53282006 16.72996059 406.43557501 16.73925376 C400.93584045 16.74603933 395.43613493 16.73556545 389.93640614 16.727314 C379.16505928 16.71396925 368.39377511 16.71685773 357.62242579 16.72555192 C348.86886534 16.73232512 340.11532246 16.73324675 331.36176014 16.72998047 C330.11624128 16.72952077 328.87072243 16.72906107 327.58746058 16.72858744 C325.05726869 16.72762827 322.52707682 16.72665563 319.99688494 16.72566967 C296.94390243 16.71735754 273.89094953 16.72597976 250.83797421 16.74169746 C229.79729038 16.75593408 208.75666102 16.75466019 187.71597767 16.74031448 C164.07176198 16.72424752 140.42757028 16.71793759 116.78334808 16.72715127 C114.26242733 16.72810693 111.74150658 16.72905004 109.22058582 16.72998047 C107.9802218 16.7304433 106.73985778 16.73090612 105.46190697 16.73138297 C96.71814942 16.73397401 87.97441118 16.72959941 79.23065662 16.72254181 C68.57597057 16.71413089 57.92135082 16.71639842 47.26667237 16.73238404 C41.82977317 16.74027219 36.39298456 16.743349 30.95608616 16.73343658 C25.97950524 16.72450058 21.00313749 16.72940462 16.02657592 16.74536924 C14.22587923 16.74872166 12.42516455 16.74701263 10.62447941 16.73974188 C8.17640577 16.73061502 5.72906158 16.73998027 3.28102589 16.75390434 C2.58237333 16.74688084 1.88372077 16.73985735 1.16389692 16.73262101 C-5.30983916 16.80618203 -11.35293614 18.13688545 -15.64632702 23.19392776 Z M-18.70882702 339.13142776 C-20.27993366 356.72570077 -20.27993366 356.72570077 -14.70882702 365.13142776 C-10.44816189 369.12995813 -5.41649014 369.70946517 0.25447559 369.63479233 C1.4182928 369.64351297 1.4182928 369.64351297 2.60562146 369.65240979 C5.20319029 369.66699747 7.79981236 369.65313068 10.39737415 369.63936234 C12.27934057 369.64397174 14.16130338 369.65032492 16.04325867 369.65827131 C21.21314452 369.67498227 26.38273535 369.66671015 31.55262232 369.65432644 C37.12871114 369.64528555 42.70474882 369.65924091 48.28082752 369.67024612 C59.20372451 369.68804617 70.12651165 369.68418472 81.04941297 369.67259556 C89.92553087 369.66356737 98.80161796 369.66233458 107.67773914 369.66669083 C108.94033438 369.66730376 110.20292961 369.66791669 111.50378531 369.6685482 C114.06860647 369.66982708 116.63342761 369.67112393 119.19824874 369.67243856 C142.57078486 369.68352335 165.94325048 369.67202188 189.31577294 369.65106817 C210.65168058 369.63208576 231.98749273 369.63378428 253.32339954 369.65291214 C277.29502131 369.67433112 301.2665834 369.68275004 325.23821831 369.67046309 C327.79368114 369.66918887 330.34914397 369.66793139 332.90460682 369.66669083 C334.1619912 369.66607372 335.41937559 369.66545662 336.71486253 369.66482082 C345.58181425 369.66136501 354.44873212 369.66720124 363.3156786 369.67660904 C374.11938911 369.6878196 384.92298335 369.68480875 395.72668052 369.66348606 C401.24043697 369.65296304 406.75399947 369.64887527 412.26775455 369.66208267 C417.31346402 369.67398628 422.35879941 369.66747739 427.40447485 369.64617246 C429.2314268 369.6416978 431.05841024 369.64399199 432.885342 369.65367562 C435.3666356 369.66582058 437.84664405 369.6533845 440.32787037 369.63479233 C441.03906186 369.64415699 441.75025336 369.65352166 442.48299611 369.6631701 C447.45339191 369.5886109 451.63942157 368.55850746 455.29117298 365.13142776 C460.86227962 356.72570077 460.86227962 356.72570077 459.29117298 339.13142776 C301.55117298 339.13142776 143.81117298 339.13142776 -18.70882702 339.13142776 Z M198.29117298 387.13142776 C198.29117298 397.36142776 198.29117298 407.59142776 198.29117298 418.13142776 C212.81117298 418.13142776 227.33117298 418.13142776 242.29117298 418.13142776 C242.29117298 407.90142776 242.29117298 397.67142776 242.29117298 387.13142776 C227.77117298 387.13142776 213.25117298 387.13142776 198.29117298 387.13142776 Z M156.97867298 442.75642776 C153.99239027 446.95934417 154.29117298 447.23145681 154.29117298 453.13142776 C197.85117298 453.13142776 241.41117298 453.13142776 286.29117298 453.13142776 C285.84765008 446.02714174 285.84765008 446.02714174 282.47867298 441.25642776 C281.97722767 440.70213089 281.47578236 440.14783401 280.95914173 439.57674026 C277.71330043 436.76418457 274.93767807 435.88187002 270.67450428 435.86400223 C269.75211964 435.85547226 268.82973499 435.84694229 267.8793993 435.83815384 C266.3722385 435.8395134 266.3722385 435.8395134 264.83463001 435.84090042 C263.23887135 435.83082458 263.23887135 435.83082458 261.61087513 435.8205452 C258.09019788 435.8015301 254.5697109 435.79763923 251.04898548 435.79549026 C248.6028482 435.7890649 246.1567117 435.78233674 243.71057606 435.77531815 C238.58101081 435.76333666 233.45151296 435.75963824 228.3219347 435.7608223 C221.74890156 435.76102556 215.17630044 435.73371937 208.60336971 435.69927788 C203.55046065 435.67704116 198.49765609 435.67298377 193.4447031 435.67404175 C191.02140151 435.67168108 188.59809725 435.66283151 186.17484379 435.64737701 C182.78508968 435.62778272 179.39627421 435.63353004 176.00650501 435.64558792 C174.50541691 435.6287294 174.50541691 435.6287294 172.97400379 435.6115303 C165.79054608 435.67646596 161.85100101 437.22567703 156.97867298 442.75642776 Z " fill="#EA5D3E" transform="translate(35.70882701873779,20.868572235107422)"/>
<path d="M0 0 C0.85095749 -0.00807175 1.70191498 -0.01614349 2.57865906 -0.02445984 C4.38176434 -0.03830169 6.18489584 -0.0490234 7.98803711 -0.05688477 C10.74057942 -0.07408664 13.49191713 -0.11796924 16.24414062 -0.16210938 C17.99608492 -0.17223738 19.74803942 -0.18075315 21.5 -0.1875 C22.32099686 -0.20500809 23.14199371 -0.22251617 23.98786926 -0.24055481 C27.96517751 -0.22552091 29.97866551 -0.05049085 33.44604492 2.07739258 C36.57376716 5.45136814 36.57138383 8.23203522 36.55360413 12.64582825 C36.55094543 14.33025276 36.55094543 14.33025276 36.54823303 16.04870605 C36.53801369 17.89788635 36.53801369 17.89788635 36.52758789 19.78442383 C36.5230584 21.77655796 36.51854255 23.76869216 36.5145396 25.76082742 C36.50967033 27.90333586 36.50270682 30.04583135 36.49562263 32.18833351 C36.48244646 36.6555031 36.48417643 41.12258638 36.48985291 45.58976746 C36.49077299 46.34381499 36.49169307 47.09786252 36.49264103 47.87475997 C36.49561232 50.1971058 36.49877726 52.51945132 36.50195312 54.84179688 C36.51474807 64.46117863 36.51673475 74.0801527 36.47338867 83.69946289 C36.44188121 90.71495808 36.43859202 97.72983281 36.46814817 104.74534529 C36.48269274 108.45712558 36.48289187 112.16766501 36.44874763 115.87934303 C36.41096913 120.0217238 36.43547325 124.16150778 36.46508789 128.30395508 C36.44410538 129.53066925 36.42312286 130.75738342 36.40150452 132.02127075 C36.34472168 138.11639182 36.34472168 138.11639182 39.21020317 143.22006798 C41.30043615 144.80986266 41.30043615 144.80986266 43.49577999 145.97156811 C47.63204459 148.65374112 48.9526449 153.7485597 50.44921875 158.23828125 C50.78710175 162.52445553 50.81934802 166.81549329 50.88671875 171.11328125 C50.95536133 172.89025391 50.95536133 172.89025391 51.02539062 174.703125 C51.04762695 176.41822266 51.04762695 176.41822266 51.0703125 178.16796875 C51.09536865 179.21194824 51.1204248 180.25592773 51.14624023 181.33154297 C50.34493233 184.67317938 49.06227454 186.07970524 46.38666642 188.18589687 C42.5668859 190.26072832 38.48225715 189.9154038 34.23240662 189.85974121 C33.20583625 189.86613003 32.17926589 189.87251885 31.12158734 189.87910128 C27.6827934 189.89435795 24.24515026 189.87388434 20.80639648 189.85351562 C18.34074522 189.85701657 15.87509621 189.86267484 13.40945435 189.87033081 C7.40860464 189.8831104 1.40820544 189.8726351 -4.59258599 189.85121757 C-11.58139965 189.82719034 -18.57013598 189.82892296 -25.55898177 189.83152348 C-38.02856791 189.83521249 -50.49799459 189.81439751 -62.9675293 189.78027344 C-75.06652862 189.74717568 -87.16536061 189.73301647 -99.2644043 189.73925781 C-112.44199268 189.7460221 -125.619511 189.74356107 -138.79708904 189.72389841 C-139.49391678 189.72285893 -140.19074452 189.72181944 -140.90868826 189.72074845 C-142.30820756 189.71865757 -143.70772682 189.7165466 -145.10724606 189.71441528 C-149.97861859 189.7075207 -154.84996952 189.70685019 -159.7213459 189.70829773 C-166.2770492 189.70988787 -172.83257952 189.69499104 -179.38824081 189.6690712 C-181.79690898 189.66189751 -184.20559847 189.65983152 -186.61427498 189.66318893 C-189.8967198 189.66689215 -193.17857578 189.65219589 -196.46095276 189.63269043 C-197.41892386 189.63801836 -198.37689495 189.64334628 -199.36389548 189.64883566 C-204.23368969 189.59875094 -207.61835227 189.45233294 -211.55078125 186.23828125 C-214.48561206 181.93268119 -213.88080629 177.13245317 -213.86328125 172.11328125 C-213.87939453 171.21351563 -213.89550781 170.31375 -213.91210938 169.38671875 C-213.91825551 160.83129282 -212.73567094 152.63094918 -206.61328125 146.23828125 C-205.94425781 145.51640625 -205.27523437 144.79453125 -204.5859375 144.05078125 C-201.56504498 141.36038945 -199.62244012 140.23828125 -195.55078125 140.23828125 C-195.55522247 139.43505936 -195.5596637 138.63183746 -195.5642395 137.80427551 C-195.60434795 130.22702573 -195.63478177 122.64982758 -195.65440559 115.07249928 C-195.66483361 111.17711157 -195.67897482 107.28181174 -195.70166016 103.38647461 C-195.72342364 99.62580695 -195.73535726 95.8652237 -195.74053574 92.10449791 C-195.74422521 90.67120727 -195.75142984 89.23792113 -195.76224136 87.80466652 C-195.77680204 85.79405871 -195.77759856 83.78336559 -195.77783203 81.77270508 C-195.78227325 80.62909012 -195.78671448 79.48547516 -195.79129028 78.3072052 C-195.48119832 74.35039483 -194.61694092 71.45332732 -191.98608398 68.45507812 C-188.25889142 66.59278963 -184.69972221 66.77051928 -180.5859375 66.76953125 C-179.71561386 66.76191772 -178.84529022 66.7543042 -177.94859314 66.74645996 C-176.11037053 66.73566863 -174.27208666 66.73280193 -172.43383789 66.73730469 C-169.62607256 66.73827682 -166.82104257 66.69665122 -164.01367188 66.65234375 C-162.2252661 66.64713631 -160.43685085 66.64444856 -158.6484375 66.64453125 C-157.81184097 66.62813599 -156.97524445 66.61174072 -156.11329651 66.59484863 C-155.32575485 66.60415405 -154.5382132 66.61345947 -153.72680664 66.62304688 C-153.03937881 66.62099243 -152.35195099 66.61893799 -151.64369202 66.61682129 C-148.24931451 67.62473321 -146.71644941 69.50016246 -144.55078125 72.23828125 C-143.94950867 75.34516907 -143.94950867 75.34516907 -143.9831543 78.86450195 C-143.98242416 79.50896774 -143.98169403 80.15343353 -143.98094177 80.81742859 C-143.98440734 82.93384914 -144.02321098 85.04802973 -144.0625 87.1640625 C-144.07183201 88.6366404 -144.07894629 90.10923388 -144.0839386 91.58183289 C-144.10297851 95.44722779 -144.15205136 99.31167492 -144.2074585 103.17669678 C-144.25871712 107.1248289 -144.28146662 111.07311502 -144.30664062 115.02148438 C-144.36017476 122.76084754 -144.44544885 130.49943131 -144.55078125 138.23828125 C-141.25078125 138.23828125 -137.95078125 138.23828125 -134.55078125 138.23828125 C-134.56188431 136.85876785 -134.57298737 135.47925446 -134.58442688 134.05793762 C-134.6857307 121.06521132 -134.76071233 108.07256502 -134.80984211 95.07953358 C-134.83594939 88.39943276 -134.87136905 81.71971231 -134.92797852 75.03979492 C-134.98225618 68.59478812 -135.01219332 62.15008792 -135.02516747 55.70487022 C-135.03441481 53.24442403 -135.05247253 50.78399484 -135.07943153 48.32367897 C-135.11566361 44.88053591 -135.12072879 41.43866397 -135.1184082 37.99536133 C-135.13638458 36.97540573 -135.15436096 35.95545013 -135.17288208 34.90458679 C-135.13880762 30.24035544 -135.07878788 27.96501312 -132.27531433 24.10639954 C-129.63769933 22.29787798 -128.51305442 21.60945691 -125.390625 21.59130859 C-124.60631104 21.57554779 -123.82199707 21.55978699 -123.01391602 21.54354858 C-122.18045654 21.55366974 -121.34699707 21.56379089 -120.48828125 21.57421875 C-119.61937256 21.56943512 -118.75046387 21.56465149 -117.85522461 21.5597229 C-116.02293074 21.556329 -114.1905759 21.56549581 -112.35839844 21.58642578 C-109.55916906 21.61320102 -106.76394892 21.58666322 -103.96484375 21.5546875 C-102.18098076 21.55799169 -100.39712026 21.56439812 -98.61328125 21.57421875 C-97.36309204 21.55903702 -97.36309204 21.55903702 -96.08764648 21.54354858 C-95.30333252 21.55930939 -94.51901855 21.57507019 -93.7109375 21.59130859 C-93.02652588 21.59528656 -92.34211426 21.59926453 -91.63696289 21.60336304 C-88.08191858 22.68532174 -86.73126464 24.2371319 -84.55078125 27.23828125 C-83.83552653 30.8261781 -83.9188669 34.34778068 -83.9831543 37.99536133 C-83.9820591 39.62042603 -83.9820591 39.62042603 -83.98094177 41.27832031 C-83.98442214 44.85532892 -84.02330729 48.43103166 -84.0625 52.0078125 C-84.07182646 54.48930652 -84.07894336 56.97080976 -84.0839386 59.45231628 C-84.10302121 65.98079892 -84.15213424 72.50872459 -84.2074585 79.0369873 C-84.26132646 85.69968158 -84.28144678 92.36253788 -84.30664062 99.02539062 C-84.36025066 112.09659876 -84.44557979 125.16739367 -84.55078125 138.23828125 C-81.25078125 138.23828125 -77.95078125 138.23828125 -74.55078125 138.23828125 C-74.56188431 137.15944168 -74.57298737 136.08060211 -74.58442688 134.96907043 C-74.68578673 124.80186561 -74.76073894 114.6347633 -74.80984211 104.46716785 C-74.8359354 99.23986058 -74.87132893 94.01296119 -74.92797852 88.78588867 C-74.9823073 83.7413857 -75.0122038 78.69727502 -75.02516747 73.65250206 C-75.03440576 71.72793082 -75.0524462 69.80338104 -75.07943153 67.87897682 C-75.11573371 65.18292482 -75.12072617 62.48849343 -75.1184082 59.79223633 C-75.14537277 58.59892952 -75.14537277 58.59892952 -75.17288208 57.3815155 C-75.13575225 53.38993651 -74.71865525 51.45990781 -72.28204346 48.24310303 C-69.58082332 46.26033296 -68.54445223 45.61162585 -65.28295898 45.60717773 C-64.47539658 45.59464462 -63.66783417 45.58211151 -62.83580017 45.56919861 C-61.97732986 45.58245682 -61.11885956 45.59571503 -60.234375 45.609375 C-58.89416039 45.60575706 -58.89416039 45.60575706 -57.52687073 45.60206604 C-55.64327544 45.60304313 -53.75965095 45.61640386 -51.8762207 45.64135742 C-48.99396305 45.67571352 -46.11476461 45.6619986 -43.23242188 45.64257812 C-41.39972654 45.6494756 -39.56703911 45.65914709 -37.734375 45.671875 C-36.87388046 45.66691513 -36.01338593 45.66195526 -35.1268158 45.65684509 C-34.32240555 45.67268143 -33.5179953 45.68851776 -32.68920898 45.70483398 C-31.98481186 45.71103256 -31.28041473 45.71723114 -30.55467224 45.72361755 C-27.47141627 46.51549691 -26.39032993 47.63973098 -24.55078125 50.23828125 C-24.17683548 53.20939684 -24.04390196 55.80342388 -24.09667969 58.77050781 C-24.09609558 59.62940613 -24.09551147 60.48830444 -24.09490967 61.37322998 C-24.0976938 64.2088682 -24.12880108 67.04345194 -24.16015625 69.87890625 C-24.16761747 71.84616522 -24.17331097 73.81343162 -24.17730713 75.78070068 C-24.19257276 80.9561417 -24.23186276 86.13113303 -24.27612305 91.30639648 C-24.3170556 96.58831702 -24.33531385 101.87031029 -24.35546875 107.15234375 C-24.39835596 117.51452039 -24.4666187 127.87636341 -24.55078125 138.23828125 C-21.25078125 138.23828125 -17.95078125 138.23828125 -14.55078125 138.23828125 C-14.5596637 136.59567825 -14.56854614 134.95307526 -14.57769775 133.26069641 C-14.65871517 117.79561402 -14.71895413 102.33059743 -14.75802994 86.86535358 C-14.7786542 78.91413664 -14.80677204 70.96307814 -14.85253906 63.01196289 C-14.89241119 56.08166545 -14.91821506 49.15148276 -14.92713523 42.22107381 C-14.93234941 38.5515025 -14.94460129 34.88225944 -14.97370148 31.21279335 C-15.0059263 27.11607942 -15.00674043 23.01993596 -15.00488281 18.9230957 C-15.01926392 17.7067746 -15.03364502 16.49045349 -15.04846191 15.23727417 C-15.00800203 7.01424804 -15.00800203 7.01424804 -12.6473999 3.00798035 C-8.66857549 -0.35043772 -4.99912754 0.04464947 0 0 Z M2.44921875 17.23828125 C2.44921875 57.16828125 2.44921875 97.09828125 2.44921875 138.23828125 C7.72921875 138.23828125 13.00921875 138.23828125 18.44921875 138.23828125 C18.44921875 98.30828125 18.44921875 58.37828125 18.44921875 17.23828125 C13.16921875 17.23828125 7.88921875 17.23828125 2.44921875 17.23828125 Z M-117.55078125 39.23828125 C-117.55078125 71.90828125 -117.55078125 104.57828125 -117.55078125 138.23828125 C-112.27078125 138.23828125 -106.99078125 138.23828125 -101.55078125 138.23828125 C-101.55078125 105.56828125 -101.55078125 72.89828125 -101.55078125 39.23828125 C-106.83078125 39.23828125 -112.11078125 39.23828125 -117.55078125 39.23828125 Z M-57.55078125 63.23828125 C-57.55078125 87.98828125 -57.55078125 112.73828125 -57.55078125 138.23828125 C-52.27078125 138.23828125 -46.99078125 138.23828125 -41.55078125 138.23828125 C-41.55078125 113.48828125 -41.55078125 88.73828125 -41.55078125 63.23828125 C-46.83078125 63.23828125 -52.11078125 63.23828125 -57.55078125 63.23828125 Z M-177.55078125 84.23828125 C-177.55078125 102.05828125 -177.55078125 119.87828125 -177.55078125 138.23828125 C-172.27078125 138.23828125 -166.99078125 138.23828125 -161.55078125 138.23828125 C-161.55078125 120.41828125 -161.55078125 102.59828125 -161.55078125 84.23828125 C-166.83078125 84.23828125 -172.11078125 84.23828125 -177.55078125 84.23828125 Z M-194.55078125 158.23828125 C-196.37067284 161.50538644 -196.37067284 161.50538644 -195.55078125 171.23828125 C-119.98078125 171.23828125 -44.41078125 171.23828125 33.44921875 171.23828125 C34.29808691 162.07946569 34.29808691 162.07946569 31.63671875 158.17578125 C27.53601333 154.54372788 23.15069843 155.09238615 17.96659851 155.09783936 C16.65215806 155.09338267 16.65215806 155.09338267 15.31116325 155.08883595 C12.36327569 155.08013707 9.41542869 155.0786397 6.4675293 155.07714844 C4.35862135 155.07252112 2.24971424 155.06749658 0.14080811 155.06210327 C-5.59683711 155.04896929 -11.33447063 155.04253241 -17.07212853 155.03809261 C-20.6550584 155.03516361 -24.23798506 155.03105914 -27.82091331 155.02658844 C-39.02609566 155.01291113 -50.23127068 155.00324551 -61.43646079 154.99938655 C-74.38052281 154.99490451 -87.32447929 154.97735077 -100.26850921 154.94838595 C-110.26773366 154.92678573 -120.26692839 154.91668316 -130.26617593 154.91534543 C-136.24114961 154.91429625 -142.21602412 154.90836435 -148.19097328 154.89052582 C-153.81093669 154.8740738 -159.43072608 154.87187573 -165.05070496 154.88066483 C-167.1138779 154.88143673 -169.17706008 154.87707241 -171.24020958 154.86720657 C-174.05608472 154.85453052 -176.87133949 154.86034033 -179.68721008 154.87078857 C-180.50424056 154.86273217 -181.32127103 154.85467577 -182.16306001 154.84637523 C-187.01253044 154.88847819 -190.34691961 155.55355026 -194.55078125 158.23828125 Z " fill="#EA5D3E" transform="translate(410.55078125,113.76171875)"/>
<path d="M0 0 C0.98871094 0.05671875 1.97742188 0.1134375 2.99609375 0.171875 C7.12255421 0.49070998 10.42027861 0.77966648 14 3 C17.42724441 8.14086661 17.1015597 13.00797796 17 19 C18.62542193 18.35522931 20.25032424 17.70914857 21.875 17.0625 C22.77992188 16.70285156 23.68484375 16.34320313 24.6171875 15.97265625 C26.96137667 15.05098738 26.96137667 15.05098738 29 14 C32.64544444 13.59495062 34.40023148 13.57939556 37.4453125 15.71484375 C41.53172559 19.37012151 44.68398063 23.65463295 48 28 C48.474375 28.57363281 48.94875 29.14726562 49.4375 29.73828125 C51.49831637 32.39301345 51.99971578 33.99232616 52.125 37.375 C50.84868005 41.48758649 49.00944034 44.02869381 46.27734375 47.30078125 C44.79970611 48.91214891 44.79970611 48.91214891 45 51 C45.74765625 51.23074219 46.4953125 51.46148437 47.265625 51.69921875 C48.25046875 52.02535156 49.2353125 52.35148437 50.25 52.6875 C51.22453125 53.00074219 52.1990625 53.31398437 53.203125 53.63671875 C56.66486323 55.32407439 58.09168429 56.64446878 60 60 C60.18269165 62.93485299 60.16504212 65.36606208 59.875 68.25 C59.81223877 69.00490723 59.74947754 69.75981445 59.68481445 70.53759766 C58.41639852 84.60989194 58.41639852 84.60989194 55.31640625 87.65234375 C52.45509946 89.31701634 50.01988016 89.72545172 46.75 90.1875 C45.13351563 90.42533203 45.13351563 90.42533203 43.484375 90.66796875 C42.66453125 90.77753906 41.8446875 90.88710938 41 91 C42.27095151 95.09326207 42.27095151 95.09326207 44.125 98.9375 C45.47095549 102.11010938 45.35827341 104.59640262 45 108 C42.3444767 111.82960883 39.22474073 114.69075755 35.625 117.625 C34.70976562 118.38039063 33.79453125 119.13578125 32.8515625 119.9140625 C25.96973725 124.94816481 25.96973725 124.94816481 21.625 125.0625 C18.2415598 123.6930123 15.69336033 121.66233054 12.8671875 119.375 C10.94224971 117.80969136 10.94224971 117.80969136 8 117 C7.82984375 117.74765625 7.6596875 118.4953125 7.484375 119.265625 C7.24203125 120.25046875 6.9996875 121.2353125 6.75 122.25 C6.51796875 123.22453125 6.2859375 124.1990625 6.046875 125.203125 C4.83389639 128.44376933 3.76266833 129.92323553 1 132 C-4.15258881 133.54046469 -9.29130895 132.85470295 -14.5625 132.3125 C-15.39974609 132.24611328 -16.23699219 132.17972656 -17.09960938 132.11132812 C-22.1400322 131.60449226 -25.47275102 130.94913562 -29 127 C-29.92578125 124.5625 -29.92578125 124.5625 -30.3125 122 C-30.45300781 121.154375 -30.59351563 120.30875 -30.73828125 119.4375 C-31 117 -31 117 -31 113 C-31.72445312 113.3609375 -32.44890625 113.721875 -33.1953125 114.09375 C-34.64550781 114.78984375 -34.64550781 114.78984375 -36.125 115.5 C-37.07632813 115.9640625 -38.02765625 116.428125 -39.0078125 116.90625 C-42.29825287 118.10902194 -44.52571437 118.39706122 -48 118 C-55.00715987 114.1508058 -61.22432019 105.85215966 -65 99 C-65.4570548 95.22929786 -65.56497791 93.0021632 -63.6875 89.671875 C-63.130625 89.03765625 -62.57375 88.4034375 -62 87.75 C-59.35524707 84.85502976 -59.35524707 84.85502976 -59 81 C-60.13888672 80.63648438 -60.13888672 80.63648438 -61.30078125 80.265625 C-62.29464844 79.93046875 -63.28851563 79.5953125 -64.3125 79.25 C-65.29863281 78.92515625 -66.28476563 78.6003125 -67.30078125 78.265625 C-70.31403228 76.85275476 -71.4513057 75.92588889 -73 73 C-74.24901295 64.20318833 -73.599489 52.50578093 -69.125 44.75 C-64.32403941 42.06146207 -59.42425638 42.09516239 -54 42 C-54.41572266 41.03900391 -54.41572266 41.03900391 -54.83984375 40.05859375 C-59.17739452 29.70095473 -59.17739452 29.70095473 -59 25 C-55.75571036 19.94272498 -51.24383616 16.34088127 -46.625 12.5625 C-46.09632324 12.11285889 -45.56764648 11.66321777 -45.02294922 11.19995117 C-40.47003462 7.63845273 -37.54348556 7.32601999 -32 8 C-29.57421875 9.27734375 -29.57421875 9.27734375 -27.6875 10.9375 C-25.30064093 12.98545413 -24.04339611 13.98553463 -21 15 C-20.91363281 14.33613281 -20.82726562 13.67226562 -20.73828125 12.98828125 C-20.08023504 8.85285325 -19.30777759 5.54960283 -17.25 1.875 C-11.81066235 -1.26307942 -6.12262791 -0.39973632 0 0 Z M-5 18 C-5.16113281 18.67546875 -5.32226562 19.3509375 -5.48828125 20.046875 C-7.66222679 27.17659212 -7.66222679 27.17659212 -11.46875 29.51953125 C-14.29425703 30.55580924 -17.06710197 31.33153321 -20 32 C-21.216875 32.350625 -22.43375 32.70125 -23.6875 33.0625 C-27.87494666 32.98349157 -29.8415624 31.53069764 -33.10546875 29.03125 C-34.97615561 27.76498693 -34.97615561 27.76498693 -37.23828125 28.34375 C-37.81964844 28.5603125 -38.40101562 28.776875 -39 29 C-38.5752721 31.5483674 -38.18660667 33.65971725 -36.9375 35.9375 C-35.63059441 38.81269229 -35.75110098 40.85105031 -36 44 C-37.35546875 47.140625 -37.35546875 47.140625 -39.1875 50.25 C-39.77917969 51.28640625 -40.37085938 52.3228125 -40.98046875 53.390625 C-44.08446792 57.40120806 -46.9343998 57.82531144 -51.8125 58.625 C-52.864375 58.74875 -53.91625 58.8725 -55 59 C-55 60.65 -55 62.3 -55 64 C-54.33613281 64.13792969 -53.67226562 64.27585937 -52.98828125 64.41796875 C-48.4220024 65.73119055 -45.7384755 66.77461758 -43.22265625 70.94921875 C-41.10559985 76.33083747 -39.42399859 81.15885892 -40 87 C-41.12890625 88.9765625 -41.12890625 88.9765625 -42.5625 90.625 C-44.03533045 92.22137219 -44.03533045 92.22137219 -45 94 C-44.8821953 96.14941621 -44.8821953 96.14941621 -44 98 C-43.34 98.33 -42.68 98.66 -42 99 C-40.00243668 98.06420457 -38.15781402 96.94483358 -36.265625 95.8125 C-32.19184951 94.35155982 -28.92634124 95.59751216 -25.078125 97.26953125 C-24.14484375 97.77871094 -23.2115625 98.28789062 -22.25 98.8125 C-21.30640625 99.31394531 -20.3628125 99.81539063 -19.390625 100.33203125 C-16.19842614 102.55926803 -15.31293143 104.38220354 -14.5859375 108.140625 C-14.390625 110.09375 -14.1953125 112.046875 -14 114 C-12.35 114.33 -10.7 114.66 -9 115 C-8.76925781 114.31292969 -8.53851563 113.62585938 -8.30078125 112.91796875 C-7.97464844 112.01691406 -7.64851563 111.11585938 -7.3125 110.1875 C-6.99925781 109.29417969 -6.68601563 108.40085937 -6.36328125 107.48046875 C-4.20655665 103.55634233 -1.23313919 102.47454598 2.83203125 100.91015625 C11.86805556 98.34027778 11.86805556 98.34027778 16.5625 100.6875 C17.73314797 101.42009906 18.8821006 102.18918622 20 103 C21.485 103.99 21.485 103.99 23 105 C23.99 104.34 24.98 103.68 26 103 C24.69844994 98.92035719 24.69844994 98.92035719 23 95 C21.94194277 87.89590144 25.23850692 82.87611483 29 77 C31.52480693 74.47519307 33.13823034 74.44261367 36.625 73.875 C37.62789063 73.70742188 38.63078125 73.53984375 39.6640625 73.3671875 C40.43492187 73.24601562 41.20578125 73.12484375 42 73 C42 71.35 42 69.7 42 68 C41.30132812 67.73445313 40.60265625 67.46890625 39.8828125 67.1953125 C38.51769531 66.66550781 38.51769531 66.66550781 37.125 66.125 C35.76761719 65.60292969 35.76761719 65.60292969 34.3828125 65.0703125 C31.55191054 63.79872703 30.32023906 62.79031475 29.1484375 59.8984375 C27.45890725 54.38613174 26.2449464 49.75728372 27 44 C28.44616091 41.36376917 30.05886149 39.32936621 32 37 C31.01 35.515 31.01 35.515 30 34 C27.43323987 34.42779335 25.37243922 34.77653647 23.125 36.125 C19.74435071 37.51703206 17.52565186 36.86696357 14 36 C11.56545685 34.78671948 9.24235997 33.47083144 6.91796875 32.05859375 C5.07328567 30.83892708 5.07328567 30.83892708 3 31 C2.01 26.71 1.02 22.42 0 18 C-1.65 18 -3.3 18 -5 18 Z " fill="#EA5D3E" transform="translate(124,195)"/>
<path d="M0 0 C2.1875 1.625 2.1875 1.625 3.1875 3.625 C3.27766377 5.22854452 3.30506075 6.83582222 3.30102539 8.44189453 C3.30094986 9.44278107 3.30087433 10.4436676 3.30079651 11.47488403 C3.29563522 12.55825043 3.29047394 13.64161682 3.28515625 14.7578125 C3.2837413 15.86478485 3.28232635 16.9717572 3.28086853 18.11227417 C3.27525772 21.65820993 3.26270337 25.20408323 3.25 28.75 C3.24498639 31.14973867 3.24042325 33.54947833 3.23632812 35.94921875 C3.22528478 41.84116725 3.2085361 47.73307916 3.1875 53.625 C3.79027267 53.61833817 4.39304535 53.61167633 5.01408386 53.60481262 C11.29196841 53.53840364 17.56975303 53.49317623 23.84790039 53.46020508 C26.19038954 53.44512572 28.5328505 53.42465922 30.87524414 53.39868164 C34.24372317 53.36226179 37.61182864 53.34526487 40.98046875 53.33203125 C42.02647751 53.31654739 43.07248627 53.30106354 44.15019226 53.28511047 C53.3143063 53.28299295 53.3143063 53.28299295 57.1875 56.625 C60.19817659 62.64635317 58.09722675 70.00094963 56.125 76.0625 C50.88426961 91.2163276 41.27330867 102.10647096 27.1875 109.625 C12.17397542 116.33427715 -4.10883116 118.34474361 -19.8125 112.625 C-35.24610745 106.45507265 -46.47500355 96.75969147 -53.8125 81.625 C-56.30829733 75.16357717 -58.27942698 68.55494927 -58.8125 61.625 C-58.8640625 61.00109375 -58.915625 60.3771875 -58.96875 59.734375 C-59.66774903 44.00689686 -54.01679858 28.83605062 -43.5625 17.1875 C-34.49115658 7.62791492 -13.77148651 -6.73272674 0 0 Z M-27.8125 25.625 C-37.49104859 35.36764494 -41.11434738 45.53184048 -41.12719727 58.98852539 C-40.93292546 69.82061545 -36.8729394 78.44294294 -29.8125 86.625 C-20.6908086 95.12517335 -9.68099569 99.1487025 2.72265625 98.8046875 C14.60005742 97.93882307 24.09754115 92.63085857 32.23828125 84.0078125 C37.21369759 77.95202755 37.21369759 77.95202755 39.1875 70.625 C38.59281418 70.61691315 37.99812836 70.60882629 37.38542175 70.60049438 C31.20488829 70.51454451 25.02467911 70.41504527 18.84448242 70.30761719 C16.53692056 70.26929584 14.22929832 70.23444859 11.92163086 70.203125 C8.60769037 70.15754318 5.29416673 70.09953712 1.98046875 70.0390625 C0.9460112 70.02751129 -0.08844635 70.01596008 -1.1542511 70.00405884 C-2.59540535 69.9742543 -2.59540535 69.9742543 -4.06567383 69.94384766 C-4.91172684 69.93052399 -5.75777985 69.91720032 -6.62947083 69.9034729 C-8.8125 69.625 -8.8125 69.625 -11.8125 67.625 C-12.75039698 64.81130906 -12.96181982 62.981895 -13.01782227 60.06176758 C-13.03776749 59.14103958 -13.05771271 58.22031158 -13.07826233 57.27168274 C-13.09497482 56.28097275 -13.11168732 55.29026276 -13.12890625 54.26953125 C-13.14968735 53.25275803 -13.17046844 52.2359848 -13.19187927 51.18840027 C-13.25730048 47.93816937 -13.31622537 44.68785723 -13.375 41.4375 C-13.41819227 39.23501762 -13.46180679 37.03254347 -13.50585938 34.83007812 C-13.61297427 29.42847147 -13.71475457 24.02678388 -13.8125 18.625 C-19.29914868 18.625 -23.57477272 22.38302284 -27.8125 25.625 Z " fill="#EA5D3E" transform="translate(153.8125,72.375)"/>
<path d="M0 0 C0.7955127 0.04922607 1.59102539 0.09845215 2.41064453 0.14916992 C4.92081058 0.31474881 7.42909738 0.49712365 9.9375 0.6875 C10.74525879 0.74808594 11.55301758 0.80867188 12.38525391 0.87109375 C14.69728623 1.05670028 17.00428018 1.27218687 19.3125 1.5 C20.01898682 1.55776611 20.72547363 1.61553223 21.45336914 1.67504883 C24.58873757 2.01783081 26.72715343 2.54488639 29.3515625 4.32421875 C33.88389333 11.0780615 31.53002585 20.70065358 30.75 28.3125 C30.57887695 30.27703125 30.57887695 30.27703125 30.40429688 32.28125 C30.27732422 33.54195312 30.15035156 34.80265625 30.01953125 36.1015625 C29.90843018 37.2457666 29.7973291 38.3899707 29.68286133 39.56884766 C28.81345112 43.20653059 27.54548594 45.03648395 24.9375 47.6875 C21.30456886 48.92424251 19.69558047 49.03208203 16.1875 47.4375 C13.9375 45.6875 13.9375 45.6875 11.9375 42.6875 C11.7421875 40.20703125 11.7421875 40.20703125 11.8125 37.5 C11.83054687 36.59894531 11.84859375 35.69789062 11.8671875 34.76953125 C11.89039063 34.08246094 11.91359375 33.39539063 11.9375 32.6875 C6.48788059 37.06998861 1.10603075 41.47599367 -4.0625 46.1875 C-8.24957574 49.99990805 -12.57744067 53.58557436 -16.98046875 57.14453125 C-21.40271414 60.79330406 -25.71537474 64.56502149 -30.02416992 68.34667969 C-30.63494385 68.88067383 -31.24571777 69.41466797 -31.875 69.96484375 C-32.41769531 70.44171631 -32.96039063 70.91858887 -33.51953125 71.40991211 C-37.56031991 74.75571069 -39.88356414 75.07273846 -45.0625 74.6875 C-48.04321289 73.70043945 -48.04321289 73.70043945 -51.03515625 72.30078125 C-52.16816162 71.77991943 -53.30116699 71.25905762 -54.46850586 70.72241211 C-55.06404266 70.44154755 -55.65957947 70.16068298 -56.27316284 69.87130737 C-58.15430328 68.98621252 -60.04334714 68.12064824 -61.93579102 67.26000977 C-67.38747493 64.77761595 -72.82557158 62.26657 -78.25292969 59.73144531 C-81.66719392 58.13852331 -85.09312313 56.57342348 -88.52755737 55.02450562 C-89.83751269 54.42711832 -91.14274943 53.81926874 -92.44290161 53.20083618 C-94.26136019 52.3365391 -96.09723926 51.50918641 -97.93359375 50.68359375 C-98.97443115 50.20075928 -100.01526855 49.7179248 -101.08764648 49.22045898 C-104.21064693 48.34322073 -104.21064693 48.34322073 -107.24169922 50.39404297 C-108.17256348 51.15088379 -109.10342773 51.90772461 -110.0625 52.6875 C-110.65377686 53.15373779 -111.24505371 53.61997559 -111.85424805 54.1003418 C-112.33933838 54.52484619 -112.82442871 54.94935059 -113.32421875 55.38671875 C-113.87980469 55.86882812 -114.43539062 56.3509375 -115.0078125 56.84765625 C-115.58273437 57.35167969 -116.15765625 57.85570312 -116.75 58.375 C-120.97484074 62.03949344 -125.21680464 65.66587724 -129.5625 69.1875 C-133.79042457 72.61957994 -137.93778759 76.13300121 -142.0625 79.6875 C-147.22257472 84.13363308 -152.42951605 88.50398515 -157.734375 92.77734375 C-159.66171319 94.35866653 -161.4828029 95.99743768 -163.3125 97.6875 C-166.70029364 100.15134992 -168.88696365 100.6875 -173.0625 100.6875 C-176.01005732 99.34187601 -177.60527272 98.60195456 -179.0625 95.6875 C-179.96373977 89.04085673 -179.96373977 89.04085673 -177.88671875 85.921875 C-176.03889242 84.03435789 -174.10696069 82.36088929 -172.0625 80.6875 C-171.25167969 80.01074219 -170.44085938 79.33398438 -169.60546875 78.63671875 C-167.77154926 77.12501059 -165.9285481 75.62427374 -164.078125 74.1328125 C-160.91247841 71.56585037 -157.79415535 68.95017347 -154.6875 66.3125 C-154.14544922 65.85278809 -153.60339844 65.39307617 -153.04492188 64.91943359 C-151.38346634 63.50955029 -149.72284251 62.09869381 -148.0625 60.6875 C-141.05844994 54.734468 -134.04455048 48.80459337 -126.890625 43.03125 C-124.79501297 41.29455495 -122.75802219 39.53561808 -120.734375 37.71875 C-120.16525391 37.21537109 -119.59613281 36.71199219 -119.00976562 36.19335938 C-117.90926163 35.21696285 -116.81866152 34.22924243 -115.74023438 33.22851562 C-111.86318974 29.81454875 -109.19617136 28.83002227 -104.0625 28.6875 C-100.55653162 29.70071546 -97.3270563 31.20739625 -94.02734375 32.75390625 C-93.07162979 33.18501205 -92.11591583 33.61611786 -91.13124084 34.06028748 C-88.07990773 35.44083558 -85.03999267 36.84468169 -82 38.25 C-79.9831545 39.16892736 -77.96558214 40.08626119 -75.94726562 41.00195312 C-72.06640604 42.76460041 -68.18657591 44.52946501 -64.30810547 46.29736328 C-63.41565125 46.70367981 -62.52319702 47.10999634 -61.60369873 47.52862549 C-59.98917566 48.26490385 -58.37565187 49.00338048 -56.76348877 49.74481201 C-54.80681165 50.64196358 -52.84433081 51.52456441 -50.87890625 52.40234375 C-49.8329126 52.87663818 -48.78691895 53.35093262 -47.70922852 53.83959961 C-44.87284321 54.74825805 -43.76263119 54.85353977 -41.0625 53.6875 C-38.85159838 51.96953028 -36.77198018 50.23478833 -34.6875 48.375 C-33.43113946 47.27587033 -32.17462473 46.17691688 -30.91796875 45.078125 C-30.27778809 44.51416016 -29.63760742 43.95019531 -28.97802734 43.36914062 C-26.00775783 40.76154231 -23.0040291 38.19354625 -20 35.625 C-19.43087891 35.13700928 -18.86175781 34.64901855 -18.27539062 34.14624023 C-12.22939538 28.96383633 -6.14831121 23.82303504 -0.0625 18.6875 C-0.82175781 18.50574219 -1.58101562 18.32398437 -2.36328125 18.13671875 C-3.35714844 17.88535156 -4.35101563 17.63398437 -5.375 17.375 C-6.36113281 17.13136719 -7.34726562 16.88773438 -8.36328125 16.63671875 C-11.11887058 15.66767648 -12.37803008 15.04575789 -14.0625 12.6875 C-14.83919903 5.69720874 -14.83919903 5.69720874 -12.1875 2.25 C-8.10008413 -0.75545285 -4.88543542 -0.30629211 0 0 Z " fill="#EA5D3E" transform="translate(405.0625,60.3125)"/>
<path d="M0 0 C17.93174248 4.97756847 30.61445104 14.56914236 39.75244141 30.62695312 C43.7650646 38.20658827 46.44510816 46.75463238 45.67578125 55.37109375 C43.5389884 58.76048931 42.49830455 60.09691932 38.67578125 61.37109375 C37.12234018 61.47259644 35.56500189 61.51943533 34.00830078 61.53222656 C32.59135422 61.54663788 32.59135422 61.54663788 31.14578247 61.56134033 C30.12701019 61.56559021 29.10823792 61.56984009 28.05859375 61.57421875 C26.48463333 61.58276886 26.48463333 61.58276886 24.87887573 61.5914917 C22.65803028 61.60094061 20.43717081 61.60747525 18.21630859 61.61132812 C14.82104013 61.62103583 11.42637643 61.65206159 8.03125 61.68359375 C5.87370151 61.6901237 3.71614869 61.6953742 1.55859375 61.69921875 C0.03650803 61.71773895 0.03650803 61.71773895 -1.5163269 61.7366333 C-10.57178629 61.70805478 -10.57178629 61.70805478 -14.32421875 58.37109375 C-16.16124338 55.36155313 -16.57940447 53.09268712 -16.59887695 49.59008789 C-16.60840897 48.64553238 -16.61794098 47.70097687 -16.62776184 46.72779846 C-16.62685043 45.71418747 -16.62593903 44.70057648 -16.625 43.65625 C-16.62928513 42.608358 -16.63357025 41.560466 -16.63798523 40.4808197 C-16.64372503 38.26594769 -16.64423137 36.05105684 -16.63989258 33.83618164 C-16.63673378 30.449705 -16.6601928 27.06410295 -16.68554688 23.67773438 C-16.68782003 21.52474068 -16.68852329 19.37174465 -16.6875 17.21875 C-16.69670975 16.20716324 -16.70591949 15.19557648 -16.71540833 14.15333557 C-16.65701546 5.26888723 -16.65701546 5.26888723 -13.32421875 1.37109375 C-8.88496738 -1.58840717 -5.12809746 -0.9701806 0 0 Z M1.67578125 19.37109375 C1.67578125 27.29109375 1.67578125 35.21109375 1.67578125 43.37109375 C9.59578125 43.37109375 17.51578125 43.37109375 25.67578125 43.37109375 C22.27577024 33.17106073 15.64221251 25.79626725 6.30078125 20.43359375 C3.83877859 19.2460295 3.83877859 19.2460295 1.67578125 19.37109375 Z " fill="#EA5D3E" transform="translate(175.32421875,62.62890625)"/>
<path d="M0 0 C6.80332265 5.46933782 10.37825566 12.57775874 11.5078125 21.16796875 C11.90724381 29.31121354 9.53476906 37.17647431 4.50390625 43.63671875 C-1.49374354 49.93651715 -9.7483715 53.60656246 -18.40234375 53.828125 C-27.73514853 53.39556523 -34.81355997 50.24563674 -41.24609375 43.44921875 C-47.20404033 36.10710276 -48.51481372 29.84175048 -48.28125 20.3671875 C-47.14002894 11.6618401 -42.76126262 4.48580636 -35.88671875 -0.90625 C-24.53430718 -8.18288975 -11.10749148 -7.36339323 0 0 Z M-29.80859375 17.76171875 C-31.01502941 21.38102573 -31.13127934 23.9540288 -30.80859375 27.76171875 C-28.67943359 31.79191476 -27.02222198 34.06391983 -22.80859375 35.76171875 C-17.95542502 36.59999335 -14.65470063 36.25399912 -10.37109375 33.76171875 C-7.33096799 30.20254713 -5.9156067 27.46137068 -5.80859375 22.76171875 C-7.05858919 18.7485755 -8.37877672 15.33408152 -11.80859375 12.76171875 C-19.65723589 10.1455047 -24.55465837 11.50268268 -29.80859375 17.76171875 Z " fill="#EA5D3E" transform="translate(135.80859375,237.23828125)"/>
<path d="M0 0 C3.13359488 3.29027462 3.98397316 5.07044345 4.0625 9.625 C2.78327144 13.6884319 1.70492515 14.94170825 -2 17 C-5.7822566 17.6303761 -7.45611204 17.30215998 -10.8125 15.4375 C-13.70725902 12.21191137 -14.07437263 10.31361262 -14 6 C-10.51305469 -0.7248231 -7.30696039 -1.92288431 0 0 Z " fill="#EA5D3E" transform="translate(261,367)"/>
</svg>
